ISO-10303-21;
HEADER;
/* Generated by software containing ST-Developer
 * from STEP Tools, Inc. (www.steptools.com) 
 */

FILE_DESCRIPTION(
/* description */ (''),
/* implementation_level */ '2;1');

FILE_NAME(
/* name */ 
'L:/Altium Libraries/3D Objects/Film Capacitors/WIMA Film Capacitors/F
ilm Capacitors P52.5/FILM_RED_P5250L5700W4500H6500PD120.step',
/* time_stamp */ '2021-01-13T15:08:19+01:00',
/* author */ (''),
/* organization */ (''),
/* preprocessor_version */ 'ST-DEVELOPER v18.1',
/* originating_system */ 'Autodesk Translation Framework v9.7.1.1290',
/* authorisation */ '');

FILE_SCHEMA (('AUTOMOTIVE_DESIGN { 1 0 10303 214 3 1 1 }'));
ENDSEC;

DATA;
#10=MECHANICAL_DESIGN_GEOMETRIC_PRESENTATION_REPRESENTATION('',(#811,#812,
#813,#814,#815,#816,#817,#818,#819,#820,#821,#822,#823,#824,#825,#826,#827,
#828),#1736);
#11=SHAPE_REPRESENTATION_RELATIONSHIP('SRR','None',#1743,#12);
#12=ADVANCED_BREP_SHAPE_REPRESENTATION('',(#13,#14,#15,#16,#17,#18,#19),
#1735);
#13=MANIFOLD_SOLID_BREP('Extruded body',#888);
#14=MANIFOLD_SOLID_BREP('pin 1',#889);
#15=MANIFOLD_SOLID_BREP('pin2',#890);
#16=MANIFOLD_SOLID_BREP('Body5',#891);
#17=MANIFOLD_SOLID_BREP('Body6',#892);
#18=MANIFOLD_SOLID_BREP('Body7',#893);
#19=MANIFOLD_SOLID_BREP('Body8',#894);
#20=SPHERICAL_SURFACE('',#924,0.499999999999998);
#21=SPHERICAL_SURFACE('',#929,0.499999999999998);
#22=SPHERICAL_SURFACE('',#933,0.499999999999998);
#23=SPHERICAL_SURFACE('',#938,0.499999999999998);
#24=CYLINDRICAL_SURFACE('',#919,0.5);
#25=CYLINDRICAL_SURFACE('',#922,0.5);
#26=CYLINDRICAL_SURFACE('',#928,0.5);
#27=CYLINDRICAL_SURFACE('',#932,0.5);
#28=CYLINDRICAL_SURFACE('',#937,0.5);
#29=CYLINDRICAL_SURFACE('',#941,0.5);
#30=CYLINDRICAL_SURFACE('',#942,0.5);
#31=CYLINDRICAL_SURFACE('',#943,0.5);
#32=CYLINDRICAL_SURFACE('',#950,0.600000000000001);
#33=CYLINDRICAL_SURFACE('',#956,0.600000000000001);
#34=FACE_BOUND('',#165,.T.);
#35=CIRCLE('',#914,0.5);
#36=CIRCLE('',#915,0.5);
#37=CIRCLE('',#916,0.5);
#38=CIRCLE('',#917,0.5);
#39=CIRCLE('',#920,0.499999999999998);
#40=CIRCLE('',#923,0.499999999999998);
#41=CIRCLE('',#925,0.499999999999998);
#42=CIRCLE('',#926,0.499999999999998);
#43=CIRCLE('',#927,0.499999999999998);
#44=CIRCLE('',#930,0.499999999999998);
#45=CIRCLE('',#931,0.499999999999998);
#46=CIRCLE('',#934,0.499999999999998);
#47=CIRCLE('',#935,0.499999999999998);
#48=CIRCLE('',#936,0.499999999999998);
#49=CIRCLE('',#939,0.499999999999998);
#50=CIRCLE('',#940,0.499999999999998);
#51=CIRCLE('',#948,1.);
#52=CIRCLE('',#949,0.600000000000001);
#53=CIRCLE('',#951,0.600000000000001);
#54=CIRCLE('',#954,1.);
#55=CIRCLE('',#955,0.600000000000001);
#56=CIRCLE('',#957,0.600000000000001);
#57=PLANE('',#908);
#58=PLANE('',#909);
#59=PLANE('',#910);
#60=PLANE('',#911);
#61=PLANE('',#912);
#62=PLANE('',#913);
#63=PLANE('',#918);
#64=PLANE('',#921);
#65=PLANE('',#944);
#66=PLANE('',#945);
#67=PLANE('',#946);
#68=PLANE('',#947);
#69=PLANE('',#952);
#70=PLANE('',#953);
#71=PLANE('',#958);
#72=PLANE('',#959);
#73=PLANE('',#960);
#74=PLANE('',#961);
#75=PLANE('',#962);
#76=PLANE('',#963);
#77=PLANE('',#964);
#78=PLANE('',#965);
#79=PLANE('',#966);
#80=PLANE('',#967);
#81=PLANE('',#968);
#82=PLANE('',#969);
#83=PLANE('',#970);
#84=PLANE('',#971);
#85=PLANE('',#972);
#86=PLANE('',#973);
#87=PLANE('',#974);
#88=PLANE('',#975);
#89=PLANE('',#976);
#90=PLANE('',#977);
#91=PLANE('',#978);
#92=PLANE('',#979);
#93=PLANE('',#980);
#94=PLANE('',#981);
#95=PLANE('',#982);
#96=FACE_OUTER_BOUND('',#155,.T.);
#97=FACE_OUTER_BOUND('',#156,.T.);
#98=FACE_OUTER_BOUND('',#157,.T.);
#99=FACE_OUTER_BOUND('',#158,.T.);
#100=FACE_OUTER_BOUND('',#159,.T.);
#101=FACE_OUTER_BOUND('',#160,.T.);
#102=FACE_OUTER_BOUND('',#161,.T.);
#103=FACE_OUTER_BOUND('',#162,.T.);
#104=FACE_OUTER_BOUND('',#163,.T.);
#105=FACE_OUTER_BOUND('',#164,.T.);
#106=FACE_OUTER_BOUND('',#166,.T.);
#107=FACE_OUTER_BOUND('',#167,.T.);
#108=FACE_OUTER_BOUND('',#168,.T.);
#109=FACE_OUTER_BOUND('',#169,.T.);
#110=FACE_OUTER_BOUND('',#170,.T.);
#111=FACE_OUTER_BOUND('',#171,.T.);
#112=FACE_OUTER_BOUND('',#172,.T.);
#113=FACE_OUTER_BOUND('',#173,.T.);
#114=FACE_OUTER_BOUND('',#174,.T.);
#115=FACE_OUTER_BOUND('',#175,.T.);
#116=FACE_OUTER_BOUND('',#176,.T.);
#117=FACE_OUTER_BOUND('',#177,.T.);
#118=FACE_OUTER_BOUND('',#178,.T.);
#119=FACE_OUTER_BOUND('',#179,.T.);
#120=FACE_OUTER_BOUND('',#180,.T.);
#121=FACE_OUTER_BOUND('',#181,.T.);
#122=FACE_OUTER_BOUND('',#182,.T.);
#123=FACE_OUTER_BOUND('',#183,.T.);
#124=FACE_OUTER_BOUND('',#184,.T.);
#125=FACE_OUTER_BOUND('',#185,.T.);
#126=FACE_OUTER_BOUND('',#186,.T.);
#127=FACE_OUTER_BOUND('',#187,.T.);
#128=FACE_OUTER_BOUND('',#188,.T.);
#129=FACE_OUTER_BOUND('',#189,.T.);
#130=FACE_OUTER_BOUND('',#190,.T.);
#131=FACE_OUTER_BOUND('',#191,.T.);
#132=FACE_OUTER_BOUND('',#192,.T.);
#133=FACE_OUTER_BOUND('',#193,.T.);
#134=FACE_OUTER_BOUND('',#194,.T.);
#135=FACE_OUTER_BOUND('',#195,.T.);
#136=FACE_OUTER_BOUND('',#196,.T.);
#137=FACE_OUTER_BOUND('',#197,.T.);
#138=FACE_OUTER_BOUND('',#198,.T.);
#139=FACE_OUTER_BOUND('',#199,.T.);
#140=FACE_OUTER_BOUND('',#200,.T.);
#141=FACE_OUTER_BOUND('',#201,.T.);
#142=FACE_OUTER_BOUND('',#202,.T.);
#143=FACE_OUTER_BOUND('',#203,.T.);
#144=FACE_OUTER_BOUND('',#204,.T.);
#145=FACE_OUTER_BOUND('',#205,.T.);
#146=FACE_OUTER_BOUND('',#206,.T.);
#147=FACE_OUTER_BOUND('',#207,.T.);
#148=FACE_OUTER_BOUND('',#208,.T.);
#149=FACE_OUTER_BOUND('',#209,.T.);
#150=FACE_OUTER_BOUND('',#210,.T.);
#151=FACE_OUTER_BOUND('',#211,.T.);
#152=FACE_OUTER_BOUND('',#212,.T.);
#153=FACE_OUTER_BOUND('',#213,.T.);
#154=FACE_OUTER_BOUND('',#214,.T.);
#155=EDGE_LOOP('',(#577,#578,#579,#580));
#156=EDGE_LOOP('',(#581,#582,#583,#584));
#157=EDGE_LOOP('',(#585,#586,#587,#588));
#158=EDGE_LOOP('',(#589,#590,#591,#592));
#159=EDGE_LOOP('',(#593,#594,#595,#596));
#160=EDGE_LOOP('',(#597,#598,#599,#600));
#161=EDGE_LOOP('',(#601,#602,#603,#604));
#162=EDGE_LOOP('',(#605,#606,#607,#608));
#163=EDGE_LOOP('',(#609,#610,#611,#612));
#164=EDGE_LOOP('',(#613,#614,#615,#616,#617,#618,#619,#620));
#165=EDGE_LOOP('',(#621,#622,#623,#624));
#166=EDGE_LOOP('',(#625,#626,#627,#628));
#167=EDGE_LOOP('',(#629,#630,#631,#632));
#168=EDGE_LOOP('',(#633,#634,#635,#636));
#169=EDGE_LOOP('',(#637,#638,#639,#640));
#170=EDGE_LOOP('',(#641,#642,#643));
#171=EDGE_LOOP('',(#644,#645,#646,#647));
#172=EDGE_LOOP('',(#648,#649,#650));
#173=EDGE_LOOP('',(#651,#652,#653,#654));
#174=EDGE_LOOP('',(#655,#656,#657));
#175=EDGE_LOOP('',(#658,#659,#660,#661));
#176=EDGE_LOOP('',(#662,#663,#664));
#177=EDGE_LOOP('',(#665,#666,#667,#668));
#178=EDGE_LOOP('',(#669,#670,#671,#672));
#179=EDGE_LOOP('',(#673,#674,#675,#676));
#180=EDGE_LOOP('',(#677,#678,#679,#680));
#181=EDGE_LOOP('',(#681,#682,#683,#684));
#182=EDGE_LOOP('',(#685,#686,#687,#688));
#183=EDGE_LOOP('',(#689));
#184=EDGE_LOOP('',(#690,#691,#692,#693));
#185=EDGE_LOOP('',(#694,#695,#696,#697));
#186=EDGE_LOOP('',(#698));
#187=EDGE_LOOP('',(#699));
#188=EDGE_LOOP('',(#700,#701,#702,#703));
#189=EDGE_LOOP('',(#704,#705,#706,#707));
#190=EDGE_LOOP('',(#708));
#191=EDGE_LOOP('',(#709,#710,#711,#712));
#192=EDGE_LOOP('',(#713,#714,#715,#716));
#193=EDGE_LOOP('',(#717,#718,#719,#720));
#194=EDGE_LOOP('',(#721,#722,#723,#724));
#195=EDGE_LOOP('',(#725,#726,#727,#728));
#196=EDGE_LOOP('',(#729,#730,#731,#732));
#197=EDGE_LOOP('',(#733,#734,#735,#736));
#198=EDGE_LOOP('',(#737,#738,#739,#740));
#199=EDGE_LOOP('',(#741,#742,#743,#744));
#200=EDGE_LOOP('',(#745,#746,#747,#748));
#201=EDGE_LOOP('',(#749,#750,#751,#752));
#202=EDGE_LOOP('',(#753,#754,#755,#756));
#203=EDGE_LOOP('',(#757,#758,#759,#760));
#204=EDGE_LOOP('',(#761,#762,#763,#764));
#205=EDGE_LOOP('',(#765,#766,#767,#768));
#206=EDGE_LOOP('',(#769,#770,#771,#772));
#207=EDGE_LOOP('',(#773,#774,#775,#776));
#208=EDGE_LOOP('',(#777,#778,#779,#780));
#209=EDGE_LOOP('',(#781,#782,#783,#784));
#210=EDGE_LOOP('',(#785,#786,#787,#788));
#211=EDGE_LOOP('',(#789,#790,#791,#792));
#212=EDGE_LOOP('',(#793,#794,#795,#796));
#213=EDGE_LOOP('',(#797,#798,#799,#800));
#214=EDGE_LOOP('',(#801,#802,#803,#804));
#215=B_SPLINE_CURVE_WITH_KNOTS('',3,(#1254,#1255,#1256,#1257,#1258,#1259,
#1260,#1261,#1262,#1263,#1264,#1265),.UNSPECIFIED.,.F.,.F.,(4,2,2,2,2,4),
(-0.0412262509278463,-0.0410100864053755,-0.0255595575033693,-0.0198633966982549,
-0.0139853992909072,0.),.UNSPECIFIED.);
#216=B_SPLINE_CURVE_WITH_KNOTS('',3,(#1268,#1269,#1270,#1271,#1272,#1273,
#1274,#1275,#1276,#1277,#1278,#1279),.UNSPECIFIED.,.F.,.F.,(4,2,2,2,2,4),
(-0.0412262032378088,-0.0410100321259246,-0.0255596268589258,-0.0198634156911035,
-0.0139853826089992,0.),.UNSPECIFIED.);
#217=B_SPLINE_CURVE_WITH_KNOTS('',3,(#1312,#1313,#1314,#1315,#1316,#1317,
#1318,#1319,#1320,#1321,#1322,#1323),.UNSPECIFIED.,.F.,.F.,(4,2,2,2,2,4),
(-0.0412262032360782,-0.0410100321242085,-0.0255596268581843,-0.0198634156907763,
-0.0139853826089741,0.),.UNSPECIFIED.);
#218=B_SPLINE_CURVE_WITH_KNOTS('',3,(#1356,#1357,#1358,#1359,#1360,#1361,
#1362,#1363,#1364,#1365,#1366,#1367),.UNSPECIFIED.,.F.,.F.,(4,2,2,2,2,4),
(-0.0412262509274837,-0.0410100864051216,-0.0255595575032037,-0.0198633966981839,
-0.0139853992908852,0.),.UNSPECIFIED.);
#219=B_SPLINE_CURVE_WITH_KNOTS('',3,(#1549,#1550,#1551,#1552),
 .UNSPECIFIED.,.F.,.F.,(4,4),(0.,1.),.UNSPECIFIED.);
#220=B_SPLINE_CURVE_WITH_KNOTS('',3,(#1619,#1620,#1621,#1622),
 .UNSPECIFIED.,.F.,.F.,(4,4),(0.,1.),.UNSPECIFIED.);
#221=LINE('',#1252,#307);
#222=LINE('',#1267,#308);
#223=LINE('',#1309,#309);
#224=LINE('',#1311,#310);
#225=LINE('',#1353,#311);
#226=LINE('',#1355,#312);
#227=LINE('',#1396,#313);
#228=LINE('',#1397,#314);
#229=LINE('',#1400,#315);
#230=LINE('',#1402,#316);
#231=LINE('',#1403,#317);
#232=LINE('',#1406,#318);
#233=LINE('',#1407,#319);
#234=LINE('',#1411,#320);
#235=LINE('',#1412,#321);
#236=LINE('',#1414,#322);
#237=LINE('',#1420,#323);
#238=LINE('',#1424,#324);
#239=LINE('',#1428,#325);
#240=LINE('',#1431,#326);
#241=LINE('',#1434,#327);
#242=LINE('',#1436,#328);
#243=LINE('',#1437,#329);
#244=LINE('',#1440,#330);
#245=LINE('',#1444,#331);
#246=LINE('',#1445,#332);
#247=LINE('',#1448,#333);
#248=LINE('',#1458,#334);
#249=LINE('',#1459,#335);
#250=LINE('',#1465,#336);
#251=LINE('',#1466,#337);
#252=LINE('',#1474,#338);
#253=LINE('',#1480,#339);
#254=LINE('',#1482,#340);
#255=LINE('',#1484,#341);
#256=LINE('',#1485,#342);
#257=LINE('',#1557,#343);
#258=LINE('',#1627,#344);
#259=LINE('',#1632,#345);
#260=LINE('',#1634,#346);
#261=LINE('',#1636,#347);
#262=LINE('',#1637,#348);
#263=LINE('',#1640,#349);
#264=LINE('',#1642,#350);
#265=LINE('',#1643,#351);
#266=LINE('',#1647,#352);
#267=LINE('',#1648,#353);
#268=LINE('',#1649,#354);
#269=LINE('',#1651,#355);
#270=LINE('',#1652,#356);
#271=LINE('',#1658,#357);
#272=LINE('',#1660,#358);
#273=LINE('',#1662,#359);
#274=LINE('',#1663,#360);
#275=LINE('',#1666,#361);
#276=LINE('',#1668,#362);
#277=LINE('',#1669,#363);
#278=LINE('',#1672,#364);
#279=LINE('',#1673,#365);
#280=LINE('',#1676,#366);
#281=LINE('',#1677,#367);
#282=LINE('',#1679,#368);
#283=LINE('',#1684,#369);
#284=LINE('',#1686,#370);
#285=LINE('',#1688,#371);
#286=LINE('',#1689,#372);
#287=LINE('',#1692,#373);
#288=LINE('',#1694,#374);
#289=LINE('',#1695,#375);
#290=LINE('',#1698,#376);
#291=LINE('',#1699,#377);
#292=LINE('',#1702,#378);
#293=LINE('',#1703,#379);
#294=LINE('',#1705,#380);
#295=LINE('',#1710,#381);
#296=LINE('',#1712,#382);
#297=LINE('',#1714,#383);
#298=LINE('',#1715,#384);
#299=LINE('',#1718,#385);
#300=LINE('',#1720,#386);
#301=LINE('',#1721,#387);
#302=LINE('',#1725,#388);
#303=LINE('',#1726,#389);
#304=LINE('',#1727,#390);
#305=LINE('',#1729,#391);
#306=LINE('',#1730,#392);
#307=VECTOR('',#985,10.);
#308=VECTOR('',#986,10.);
#309=VECTOR('',#987,10.);
#310=VECTOR('',#988,10.);
#311=VECTOR('',#989,10.);
#312=VECTOR('',#990,10.);
#313=VECTOR('',#991,10.);
#314=VECTOR('',#992,10.);
#315=VECTOR('',#995,10.);
#316=VECTOR('',#996,10.);
#317=VECTOR('',#997,10.);
#318=VECTOR('',#1000,10.);
#319=VECTOR('',#1001,10.);
#320=VECTOR('',#1006,10.);
#321=VECTOR('',#1007,10.);
#322=VECTOR('',#1010,10.);
#323=VECTOR('',#1015,10.);
#324=VECTOR('',#1018,10.);
#325=VECTOR('',#1021,10.);
#326=VECTOR('',#1024,10.);
#327=VECTOR('',#1027,10.);
#328=VECTOR('',#1028,10.);
#329=VECTOR('',#1029,10.);
#330=VECTOR('',#1032,10.);
#331=VECTOR('',#1037,10.);
#332=VECTOR('',#1038,10.);
#333=VECTOR('',#1041,10.);
#334=VECTOR('',#1054,10.);
#335=VECTOR('',#1055,10.);
#336=VECTOR('',#1064,10.);
#337=VECTOR('',#1065,10.);
#338=VECTOR('',#1076,10.);
#339=VECTOR('',#1085,10.);
#340=VECTOR('',#1088,10.);
#341=VECTOR('',#1091,10.);
#342=VECTOR('',#1092,10.);
#343=VECTOR('',#1109,0.600000000000001);
#344=VECTOR('',#1122,0.600000000000001);
#345=VECTOR('',#1127,10.);
#346=VECTOR('',#1128,10.);
#347=VECTOR('',#1129,10.);
#348=VECTOR('',#1130,10.);
#349=VECTOR('',#1133,10.);
#350=VECTOR('',#1134,10.);
#351=VECTOR('',#1135,10.);
#352=VECTOR('',#1138,10.);
#353=VECTOR('',#1139,10.);
#354=VECTOR('',#1140,10.);
#355=VECTOR('',#1143,10.);
#356=VECTOR('',#1144,10.);
#357=VECTOR('',#1151,10.);
#358=VECTOR('',#1152,10.);
#359=VECTOR('',#1153,10.);
#360=VECTOR('',#1154,10.);
#361=VECTOR('',#1157,10.);
#362=VECTOR('',#1158,10.);
#363=VECTOR('',#1159,10.);
#364=VECTOR('',#1162,10.);
#365=VECTOR('',#1163,10.);
#366=VECTOR('',#1166,10.);
#367=VECTOR('',#1167,10.);
#368=VECTOR('',#1170,10.);
#369=VECTOR('',#1175,10.);
#370=VECTOR('',#1176,10.);
#371=VECTOR('',#1177,10.);
#372=VECTOR('',#1178,10.);
#373=VECTOR('',#1181,10.);
#374=VECTOR('',#1182,10.);
#375=VECTOR('',#1183,10.);
#376=VECTOR('',#1186,10.);
#377=VECTOR('',#1187,10.);
#378=VECTOR('',#1190,10.);
#379=VECTOR('',#1191,10.);
#380=VECTOR('',#1194,10.);
#381=VECTOR('',#1199,10.);
#382=VECTOR('',#1200,10.);
#383=VECTOR('',#1201,10.);
#384=VECTOR('',#1202,10.);
#385=VECTOR('',#1205,10.);
#386=VECTOR('',#1206,10.);
#387=VECTOR('',#1207,10.);
#388=VECTOR('',#1210,10.);
#389=VECTOR('',#1211,10.);
#390=VECTOR('',#1212,10.);
#391=VECTOR('',#1215,10.);
#392=VECTOR('',#1216,10.);
#393=VERTEX_POINT('',#1250);
#394=VERTEX_POINT('',#1251);
#395=VERTEX_POINT('',#1253);
#396=VERTEX_POINT('',#1266);
#397=VERTEX_POINT('',#1308);
#398=VERTEX_POINT('',#1310);
#399=VERTEX_POINT('',#1352);
#400=VERTEX_POINT('',#1354);
#401=VERTEX_POINT('',#1399);
#402=VERTEX_POINT('',#1401);
#403=VERTEX_POINT('',#1405);
#404=VERTEX_POINT('',#1410);
#405=VERTEX_POINT('',#1416);
#406=VERTEX_POINT('',#1417);
#407=VERTEX_POINT('',#1419);
#408=VERTEX_POINT('',#1421);
#409=VERTEX_POINT('',#1423);
#410=VERTEX_POINT('',#1425);
#411=VERTEX_POINT('',#1427);
#412=VERTEX_POINT('',#1429);
#413=VERTEX_POINT('',#1433);
#414=VERTEX_POINT('',#1435);
#415=VERTEX_POINT('',#1439);
#416=VERTEX_POINT('',#1443);
#417=VERTEX_POINT('',#1447);
#418=VERTEX_POINT('',#1451);
#419=VERTEX_POINT('',#1452);
#420=VERTEX_POINT('',#1454);
#421=VERTEX_POINT('',#1461);
#422=VERTEX_POINT('',#1468);
#423=VERTEX_POINT('',#1469);
#424=VERTEX_POINT('',#1476);
#425=VERTEX_POINT('',#1490);
#426=VERTEX_POINT('',#1548);
#427=VERTEX_POINT('',#1555);
#428=VERTEX_POINT('',#1560);
#429=VERTEX_POINT('',#1618);
#430=VERTEX_POINT('',#1625);
#431=VERTEX_POINT('',#1630);
#432=VERTEX_POINT('',#1631);
#433=VERTEX_POINT('',#1633);
#434=VERTEX_POINT('',#1635);
#435=VERTEX_POINT('',#1639);
#436=VERTEX_POINT('',#1641);
#437=VERTEX_POINT('',#1645);
#438=VERTEX_POINT('',#1646);
#439=VERTEX_POINT('',#1656);
#440=VERTEX_POINT('',#1657);
#441=VERTEX_POINT('',#1659);
#442=VERTEX_POINT('',#1661);
#443=VERTEX_POINT('',#1665);
#444=VERTEX_POINT('',#1667);
#445=VERTEX_POINT('',#1671);
#446=VERTEX_POINT('',#1675);
#447=VERTEX_POINT('',#1682);
#448=VERTEX_POINT('',#1683);
#449=VERTEX_POINT('',#1685);
#450=VERTEX_POINT('',#1687);
#451=VERTEX_POINT('',#1691);
#452=VERTEX_POINT('',#1693);
#453=VERTEX_POINT('',#1697);
#454=VERTEX_POINT('',#1701);
#455=VERTEX_POINT('',#1708);
#456=VERTEX_POINT('',#1709);
#457=VERTEX_POINT('',#1711);
#458=VERTEX_POINT('',#1713);
#459=VERTEX_POINT('',#1717);
#460=VERTEX_POINT('',#1719);
#461=VERTEX_POINT('',#1723);
#462=VERTEX_POINT('',#1724);
#463=EDGE_CURVE('',#393,#394,#221,.T.);
#464=EDGE_CURVE('',#394,#395,#215,.T.);
#465=EDGE_CURVE('',#395,#396,#222,.T.);
#466=EDGE_CURVE('',#393,#396,#216,.T.);
#467=EDGE_CURVE('',#397,#395,#223,.T.);
#468=EDGE_CURVE('',#394,#398,#224,.T.);
#469=EDGE_CURVE('',#398,#397,#217,.T.);
#470=EDGE_CURVE('',#399,#397,#225,.T.);
#471=EDGE_CURVE('',#398,#400,#226,.T.);
#472=EDGE_CURVE('',#400,#399,#218,.T.);
#473=EDGE_CURVE('',#396,#399,#227,.T.);
#474=EDGE_CURVE('',#400,#393,#228,.T.);
#475=EDGE_CURVE('',#401,#396,#229,.T.);
#476=EDGE_CURVE('',#402,#401,#230,.T.);
#477=EDGE_CURVE('',#402,#399,#231,.T.);
#478=EDGE_CURVE('',#403,#395,#232,.T.);
#479=EDGE_CURVE('',#401,#403,#233,.T.);
#480=EDGE_CURVE('',#404,#402,#234,.T.);
#481=EDGE_CURVE('',#404,#397,#235,.T.);
#482=EDGE_CURVE('',#403,#404,#236,.T.);
#483=EDGE_CURVE('',#405,#406,#35,.T.);
#484=EDGE_CURVE('',#407,#405,#237,.T.);
#485=EDGE_CURVE('',#408,#407,#36,.T.);
#486=EDGE_CURVE('',#409,#408,#238,.T.);
#487=EDGE_CURVE('',#410,#409,#37,.T.);
#488=EDGE_CURVE('',#411,#410,#239,.T.);
#489=EDGE_CURVE('',#412,#411,#38,.T.);
#490=EDGE_CURVE('',#406,#412,#240,.T.);
#491=EDGE_CURVE('',#413,#412,#241,.T.);
#492=EDGE_CURVE('',#414,#413,#242,.T.);
#493=EDGE_CURVE('',#406,#414,#243,.T.);
#494=EDGE_CURVE('',#411,#415,#244,.T.);
#495=EDGE_CURVE('',#415,#413,#39,.F.);
#496=EDGE_CURVE('',#416,#410,#245,.T.);
#497=EDGE_CURVE('',#415,#416,#246,.T.);
#498=EDGE_CURVE('',#409,#417,#247,.T.);
#499=EDGE_CURVE('',#417,#416,#40,.F.);
#500=EDGE_CURVE('',#418,#419,#41,.F.);
#501=EDGE_CURVE('',#420,#418,#42,.F.);
#502=EDGE_CURVE('',#419,#420,#43,.F.);
#503=EDGE_CURVE('',#407,#420,#248,.T.);
#504=EDGE_CURVE('',#418,#408,#249,.T.);
#505=EDGE_CURVE('',#416,#421,#44,.F.);
#506=EDGE_CURVE('',#421,#417,#45,.F.);
#507=EDGE_CURVE('',#419,#421,#250,.T.);
#508=EDGE_CURVE('',#417,#418,#251,.T.);
#509=EDGE_CURVE('',#422,#423,#46,.F.);
#510=EDGE_CURVE('',#414,#422,#47,.F.);
#511=EDGE_CURVE('',#423,#414,#48,.F.);
#512=EDGE_CURVE('',#422,#405,#252,.T.);
#513=EDGE_CURVE('',#413,#424,#49,.F.);
#514=EDGE_CURVE('',#424,#415,#50,.F.);
#515=EDGE_CURVE('',#421,#424,#253,.T.);
#516=EDGE_CURVE('',#424,#423,#254,.T.);
#517=EDGE_CURVE('',#423,#419,#255,.T.);
#518=EDGE_CURVE('',#420,#422,#256,.T.);
#519=EDGE_CURVE('',#425,#425,#51,.T.);
#520=EDGE_CURVE('',#425,#426,#219,.T.);
#521=EDGE_CURVE('',#426,#426,#52,.T.);
#522=EDGE_CURVE('',#427,#427,#53,.T.);
#523=EDGE_CURVE('',#427,#426,#257,.T.);
#524=EDGE_CURVE('',#428,#428,#54,.T.);
#525=EDGE_CURVE('',#428,#429,#220,.T.);
#526=EDGE_CURVE('',#429,#429,#55,.T.);
#527=EDGE_CURVE('',#430,#430,#56,.T.);
#528=EDGE_CURVE('',#430,#429,#258,.T.);
#529=EDGE_CURVE('',#431,#432,#259,.T.);
#530=EDGE_CURVE('',#433,#432,#260,.T.);
#531=EDGE_CURVE('',#433,#434,#261,.T.);
#532=EDGE_CURVE('',#434,#431,#262,.T.);
#533=EDGE_CURVE('',#431,#435,#263,.T.);
#534=EDGE_CURVE('',#436,#435,#264,.T.);
#535=EDGE_CURVE('',#432,#436,#265,.T.);
#536=EDGE_CURVE('',#437,#438,#266,.T.);
#537=EDGE_CURVE('',#436,#438,#267,.T.);
#538=EDGE_CURVE('',#435,#437,#268,.T.);
#539=EDGE_CURVE('',#438,#433,#269,.T.);
#540=EDGE_CURVE('',#437,#434,#270,.T.);
#541=EDGE_CURVE('',#439,#440,#271,.T.);
#542=EDGE_CURVE('',#440,#441,#272,.T.);
#543=EDGE_CURVE('',#441,#442,#273,.T.);
#544=EDGE_CURVE('',#442,#439,#274,.T.);
#545=EDGE_CURVE('',#443,#441,#275,.T.);
#546=EDGE_CURVE('',#444,#443,#276,.T.);
#547=EDGE_CURVE('',#444,#442,#277,.T.);
#548=EDGE_CURVE('',#440,#445,#278,.T.);
#549=EDGE_CURVE('',#443,#445,#279,.T.);
#550=EDGE_CURVE('',#445,#446,#280,.T.);
#551=EDGE_CURVE('',#446,#444,#281,.T.);
#552=EDGE_CURVE('',#439,#446,#282,.T.);
#553=EDGE_CURVE('',#447,#448,#283,.T.);
#554=EDGE_CURVE('',#448,#449,#284,.T.);
#555=EDGE_CURVE('',#449,#450,#285,.T.);
#556=EDGE_CURVE('',#450,#447,#286,.T.);
#557=EDGE_CURVE('',#451,#449,#287,.T.);
#558=EDGE_CURVE('',#452,#451,#288,.T.);
#559=EDGE_CURVE('',#452,#450,#289,.T.);
#560=EDGE_CURVE('',#448,#453,#290,.T.);
#561=EDGE_CURVE('',#451,#453,#291,.T.);
#562=EDGE_CURVE('',#453,#454,#292,.T.);
#563=EDGE_CURVE('',#454,#452,#293,.T.);
#564=EDGE_CURVE('',#447,#454,#294,.T.);
#565=EDGE_CURVE('',#455,#456,#295,.T.);
#566=EDGE_CURVE('',#457,#456,#296,.T.);
#567=EDGE_CURVE('',#457,#458,#297,.T.);
#568=EDGE_CURVE('',#458,#455,#298,.T.);
#569=EDGE_CURVE('',#455,#459,#299,.T.);
#570=EDGE_CURVE('',#460,#459,#300,.T.);
#571=EDGE_CURVE('',#456,#460,#301,.T.);
#572=EDGE_CURVE('',#461,#462,#302,.T.);
#573=EDGE_CURVE('',#460,#462,#303,.T.);
#574=EDGE_CURVE('',#459,#461,#304,.T.);
#575=EDGE_CURVE('',#462,#457,#305,.T.);
#576=EDGE_CURVE('',#461,#458,#306,.T.);
#577=ORIENTED_EDGE('',*,*,#463,.T.);
#578=ORIENTED_EDGE('',*,*,#464,.T.);
#579=ORIENTED_EDGE('',*,*,#465,.T.);
#580=ORIENTED_EDGE('',*,*,#466,.F.);
#581=ORIENTED_EDGE('',*,*,#467,.T.);
#582=ORIENTED_EDGE('',*,*,#464,.F.);
#583=ORIENTED_EDGE('',*,*,#468,.T.);
#584=ORIENTED_EDGE('',*,*,#469,.T.);
#585=ORIENTED_EDGE('',*,*,#470,.T.);
#586=ORIENTED_EDGE('',*,*,#469,.F.);
#587=ORIENTED_EDGE('',*,*,#471,.T.);
#588=ORIENTED_EDGE('',*,*,#472,.T.);
#589=ORIENTED_EDGE('',*,*,#473,.T.);
#590=ORIENTED_EDGE('',*,*,#472,.F.);
#591=ORIENTED_EDGE('',*,*,#474,.T.);
#592=ORIENTED_EDGE('',*,*,#466,.T.);
#593=ORIENTED_EDGE('',*,*,#473,.F.);
#594=ORIENTED_EDGE('',*,*,#475,.F.);
#595=ORIENTED_EDGE('',*,*,#476,.F.);
#596=ORIENTED_EDGE('',*,*,#477,.T.);
#597=ORIENTED_EDGE('',*,*,#465,.F.);
#598=ORIENTED_EDGE('',*,*,#478,.F.);
#599=ORIENTED_EDGE('',*,*,#479,.F.);
#600=ORIENTED_EDGE('',*,*,#475,.T.);
#601=ORIENTED_EDGE('',*,*,#463,.F.);
#602=ORIENTED_EDGE('',*,*,#474,.F.);
#603=ORIENTED_EDGE('',*,*,#471,.F.);
#604=ORIENTED_EDGE('',*,*,#468,.F.);
#605=ORIENTED_EDGE('',*,*,#470,.F.);
#606=ORIENTED_EDGE('',*,*,#477,.F.);
#607=ORIENTED_EDGE('',*,*,#480,.F.);
#608=ORIENTED_EDGE('',*,*,#481,.T.);
#609=ORIENTED_EDGE('',*,*,#467,.F.);
#610=ORIENTED_EDGE('',*,*,#481,.F.);
#611=ORIENTED_EDGE('',*,*,#482,.F.);
#612=ORIENTED_EDGE('',*,*,#478,.T.);
#613=ORIENTED_EDGE('',*,*,#483,.F.);
#614=ORIENTED_EDGE('',*,*,#484,.F.);
#615=ORIENTED_EDGE('',*,*,#485,.F.);
#616=ORIENTED_EDGE('',*,*,#486,.F.);
#617=ORIENTED_EDGE('',*,*,#487,.F.);
#618=ORIENTED_EDGE('',*,*,#488,.F.);
#619=ORIENTED_EDGE('',*,*,#489,.F.);
#620=ORIENTED_EDGE('',*,*,#490,.F.);
#621=ORIENTED_EDGE('',*,*,#479,.T.);
#622=ORIENTED_EDGE('',*,*,#482,.T.);
#623=ORIENTED_EDGE('',*,*,#480,.T.);
#624=ORIENTED_EDGE('',*,*,#476,.T.);
#625=ORIENTED_EDGE('',*,*,#490,.T.);
#626=ORIENTED_EDGE('',*,*,#491,.F.);
#627=ORIENTED_EDGE('',*,*,#492,.F.);
#628=ORIENTED_EDGE('',*,*,#493,.F.);
#629=ORIENTED_EDGE('',*,*,#489,.T.);
#630=ORIENTED_EDGE('',*,*,#494,.T.);
#631=ORIENTED_EDGE('',*,*,#495,.T.);
#632=ORIENTED_EDGE('',*,*,#491,.T.);
#633=ORIENTED_EDGE('',*,*,#488,.T.);
#634=ORIENTED_EDGE('',*,*,#496,.F.);
#635=ORIENTED_EDGE('',*,*,#497,.F.);
#636=ORIENTED_EDGE('',*,*,#494,.F.);
#637=ORIENTED_EDGE('',*,*,#487,.T.);
#638=ORIENTED_EDGE('',*,*,#498,.T.);
#639=ORIENTED_EDGE('',*,*,#499,.T.);
#640=ORIENTED_EDGE('',*,*,#496,.T.);
#641=ORIENTED_EDGE('',*,*,#500,.F.);
#642=ORIENTED_EDGE('',*,*,#501,.F.);
#643=ORIENTED_EDGE('',*,*,#502,.F.);
#644=ORIENTED_EDGE('',*,*,#485,.T.);
#645=ORIENTED_EDGE('',*,*,#503,.T.);
#646=ORIENTED_EDGE('',*,*,#501,.T.);
#647=ORIENTED_EDGE('',*,*,#504,.T.);
#648=ORIENTED_EDGE('',*,*,#505,.F.);
#649=ORIENTED_EDGE('',*,*,#499,.F.);
#650=ORIENTED_EDGE('',*,*,#506,.F.);
#651=ORIENTED_EDGE('',*,*,#500,.T.);
#652=ORIENTED_EDGE('',*,*,#507,.T.);
#653=ORIENTED_EDGE('',*,*,#506,.T.);
#654=ORIENTED_EDGE('',*,*,#508,.T.);
#655=ORIENTED_EDGE('',*,*,#509,.F.);
#656=ORIENTED_EDGE('',*,*,#510,.F.);
#657=ORIENTED_EDGE('',*,*,#511,.F.);
#658=ORIENTED_EDGE('',*,*,#483,.T.);
#659=ORIENTED_EDGE('',*,*,#493,.T.);
#660=ORIENTED_EDGE('',*,*,#510,.T.);
#661=ORIENTED_EDGE('',*,*,#512,.T.);
#662=ORIENTED_EDGE('',*,*,#513,.F.);
#663=ORIENTED_EDGE('',*,*,#495,.F.);
#664=ORIENTED_EDGE('',*,*,#514,.F.);
#665=ORIENTED_EDGE('',*,*,#505,.T.);
#666=ORIENTED_EDGE('',*,*,#515,.T.);
#667=ORIENTED_EDGE('',*,*,#514,.T.);
#668=ORIENTED_EDGE('',*,*,#497,.T.);
#669=ORIENTED_EDGE('',*,*,#513,.T.);
#670=ORIENTED_EDGE('',*,*,#516,.T.);
#671=ORIENTED_EDGE('',*,*,#511,.T.);
#672=ORIENTED_EDGE('',*,*,#492,.T.);
#673=ORIENTED_EDGE('',*,*,#509,.T.);
#674=ORIENTED_EDGE('',*,*,#517,.T.);
#675=ORIENTED_EDGE('',*,*,#502,.T.);
#676=ORIENTED_EDGE('',*,*,#518,.T.);
#677=ORIENTED_EDGE('',*,*,#486,.T.);
#678=ORIENTED_EDGE('',*,*,#504,.F.);
#679=ORIENTED_EDGE('',*,*,#508,.F.);
#680=ORIENTED_EDGE('',*,*,#498,.F.);
#681=ORIENTED_EDGE('',*,*,#507,.F.);
#682=ORIENTED_EDGE('',*,*,#517,.F.);
#683=ORIENTED_EDGE('',*,*,#516,.F.);
#684=ORIENTED_EDGE('',*,*,#515,.F.);
#685=ORIENTED_EDGE('',*,*,#484,.T.);
#686=ORIENTED_EDGE('',*,*,#512,.F.);
#687=ORIENTED_EDGE('',*,*,#518,.F.);
#688=ORIENTED_EDGE('',*,*,#503,.F.);
#689=ORIENTED_EDGE('',*,*,#519,.T.);
#690=ORIENTED_EDGE('',*,*,#519,.F.);
#691=ORIENTED_EDGE('',*,*,#520,.T.);
#692=ORIENTED_EDGE('',*,*,#521,.T.);
#693=ORIENTED_EDGE('',*,*,#520,.F.);
#694=ORIENTED_EDGE('',*,*,#522,.F.);
#695=ORIENTED_EDGE('',*,*,#523,.T.);
#696=ORIENTED_EDGE('',*,*,#521,.F.);
#697=ORIENTED_EDGE('',*,*,#523,.F.);
#698=ORIENTED_EDGE('',*,*,#522,.T.);
#699=ORIENTED_EDGE('',*,*,#524,.T.);
#700=ORIENTED_EDGE('',*,*,#524,.F.);
#701=ORIENTED_EDGE('',*,*,#525,.T.);
#702=ORIENTED_EDGE('',*,*,#526,.T.);
#703=ORIENTED_EDGE('',*,*,#525,.F.);
#704=ORIENTED_EDGE('',*,*,#527,.F.);
#705=ORIENTED_EDGE('',*,*,#528,.T.);
#706=ORIENTED_EDGE('',*,*,#526,.F.);
#707=ORIENTED_EDGE('',*,*,#528,.F.);
#708=ORIENTED_EDGE('',*,*,#527,.T.);
#709=ORIENTED_EDGE('',*,*,#529,.T.);
#710=ORIENTED_EDGE('',*,*,#530,.F.);
#711=ORIENTED_EDGE('',*,*,#531,.T.);
#712=ORIENTED_EDGE('',*,*,#532,.T.);
#713=ORIENTED_EDGE('',*,*,#529,.F.);
#714=ORIENTED_EDGE('',*,*,#533,.T.);
#715=ORIENTED_EDGE('',*,*,#534,.F.);
#716=ORIENTED_EDGE('',*,*,#535,.F.);
#717=ORIENTED_EDGE('',*,*,#536,.T.);
#718=ORIENTED_EDGE('',*,*,#537,.F.);
#719=ORIENTED_EDGE('',*,*,#534,.T.);
#720=ORIENTED_EDGE('',*,*,#538,.T.);
#721=ORIENTED_EDGE('',*,*,#531,.F.);
#722=ORIENTED_EDGE('',*,*,#539,.F.);
#723=ORIENTED_EDGE('',*,*,#536,.F.);
#724=ORIENTED_EDGE('',*,*,#540,.T.);
#725=ORIENTED_EDGE('',*,*,#537,.T.);
#726=ORIENTED_EDGE('',*,*,#539,.T.);
#727=ORIENTED_EDGE('',*,*,#530,.T.);
#728=ORIENTED_EDGE('',*,*,#535,.T.);
#729=ORIENTED_EDGE('',*,*,#532,.F.);
#730=ORIENTED_EDGE('',*,*,#540,.F.);
#731=ORIENTED_EDGE('',*,*,#538,.F.);
#732=ORIENTED_EDGE('',*,*,#533,.F.);
#733=ORIENTED_EDGE('',*,*,#541,.T.);
#734=ORIENTED_EDGE('',*,*,#542,.T.);
#735=ORIENTED_EDGE('',*,*,#543,.T.);
#736=ORIENTED_EDGE('',*,*,#544,.T.);
#737=ORIENTED_EDGE('',*,*,#543,.F.);
#738=ORIENTED_EDGE('',*,*,#545,.F.);
#739=ORIENTED_EDGE('',*,*,#546,.F.);
#740=ORIENTED_EDGE('',*,*,#547,.T.);
#741=ORIENTED_EDGE('',*,*,#542,.F.);
#742=ORIENTED_EDGE('',*,*,#548,.T.);
#743=ORIENTED_EDGE('',*,*,#549,.F.);
#744=ORIENTED_EDGE('',*,*,#545,.T.);
#745=ORIENTED_EDGE('',*,*,#546,.T.);
#746=ORIENTED_EDGE('',*,*,#549,.T.);
#747=ORIENTED_EDGE('',*,*,#550,.T.);
#748=ORIENTED_EDGE('',*,*,#551,.T.);
#749=ORIENTED_EDGE('',*,*,#541,.F.);
#750=ORIENTED_EDGE('',*,*,#552,.T.);
#751=ORIENTED_EDGE('',*,*,#550,.F.);
#752=ORIENTED_EDGE('',*,*,#548,.F.);
#753=ORIENTED_EDGE('',*,*,#544,.F.);
#754=ORIENTED_EDGE('',*,*,#547,.F.);
#755=ORIENTED_EDGE('',*,*,#551,.F.);
#756=ORIENTED_EDGE('',*,*,#552,.F.);
#757=ORIENTED_EDGE('',*,*,#553,.T.);
#758=ORIENTED_EDGE('',*,*,#554,.T.);
#759=ORIENTED_EDGE('',*,*,#555,.T.);
#760=ORIENTED_EDGE('',*,*,#556,.T.);
#761=ORIENTED_EDGE('',*,*,#555,.F.);
#762=ORIENTED_EDGE('',*,*,#557,.F.);
#763=ORIENTED_EDGE('',*,*,#558,.F.);
#764=ORIENTED_EDGE('',*,*,#559,.T.);
#765=ORIENTED_EDGE('',*,*,#554,.F.);
#766=ORIENTED_EDGE('',*,*,#560,.T.);
#767=ORIENTED_EDGE('',*,*,#561,.F.);
#768=ORIENTED_EDGE('',*,*,#557,.T.);
#769=ORIENTED_EDGE('',*,*,#558,.T.);
#770=ORIENTED_EDGE('',*,*,#561,.T.);
#771=ORIENTED_EDGE('',*,*,#562,.T.);
#772=ORIENTED_EDGE('',*,*,#563,.T.);
#773=ORIENTED_EDGE('',*,*,#553,.F.);
#774=ORIENTED_EDGE('',*,*,#564,.T.);
#775=ORIENTED_EDGE('',*,*,#562,.F.);
#776=ORIENTED_EDGE('',*,*,#560,.F.);
#777=ORIENTED_EDGE('',*,*,#556,.F.);
#778=ORIENTED_EDGE('',*,*,#559,.F.);
#779=ORIENTED_EDGE('',*,*,#563,.F.);
#780=ORIENTED_EDGE('',*,*,#564,.F.);
#781=ORIENTED_EDGE('',*,*,#565,.T.);
#782=ORIENTED_EDGE('',*,*,#566,.F.);
#783=ORIENTED_EDGE('',*,*,#567,.T.);
#784=ORIENTED_EDGE('',*,*,#568,.T.);
#785=ORIENTED_EDGE('',*,*,#565,.F.);
#786=ORIENTED_EDGE('',*,*,#569,.T.);
#787=ORIENTED_EDGE('',*,*,#570,.F.);
#788=ORIENTED_EDGE('',*,*,#571,.F.);
#789=ORIENTED_EDGE('',*,*,#572,.T.);
#790=ORIENTED_EDGE('',*,*,#573,.F.);
#791=ORIENTED_EDGE('',*,*,#570,.T.);
#792=ORIENTED_EDGE('',*,*,#574,.T.);
#793=ORIENTED_EDGE('',*,*,#567,.F.);
#794=ORIENTED_EDGE('',*,*,#575,.F.);
#795=ORIENTED_EDGE('',*,*,#572,.F.);
#796=ORIENTED_EDGE('',*,*,#576,.T.);
#797=ORIENTED_EDGE('',*,*,#566,.T.);
#798=ORIENTED_EDGE('',*,*,#571,.T.);
#799=ORIENTED_EDGE('',*,*,#573,.T.);
#800=ORIENTED_EDGE('',*,*,#575,.T.);
#801=ORIENTED_EDGE('',*,*,#568,.F.);
#802=ORIENTED_EDGE('',*,*,#576,.F.);
#803=ORIENTED_EDGE('',*,*,#574,.F.);
#804=ORIENTED_EDGE('',*,*,#569,.F.);
#805=B_SPLINE_SURFACE_WITH_KNOTS('',3,3,((#1222,#1223,#1224,#1225),(#1226,
#1227,#1228,#1229),(#1230,#1231,#1232,#1233),(#1234,#1235,#1236,#1237),
(#1238,#1239,#1240,#1241),(#1242,#1243,#1244,#1245),(#1246,#1247,#1248,
#1249)),.UNSPECIFIED.,.F.,.F.,.F.,(4,1,1,1,4),(4,4),(0.,0.285714285714286,
0.571428571428571,0.785714285714286,1.),(-1.06500066002056,3.1950006600263),
 .UNSPECIFIED.);
#806=B_SPLINE_SURFACE_WITH_KNOTS('',3,3,((#1280,#1281,#1282,#1283),(#1284,
#1285,#1286,#1287),(#1288,#1289,#1290,#1291),(#1292,#1293,#1294,#1295),
(#1296,#1297,#1298,#1299),(#1300,#1301,#1302,#1303),(#1304,#1305,#1306,
#1307)),.UNSPECIFIED.,.F.,.F.,.F.,(4,1,1,1,4),(4,4),(0.,0.285714285714286,
0.571428571428571,0.785714285714286,1.),(-1.36500066002631,4.09500066002056),
 .UNSPECIFIED.);
#807=B_SPLINE_SURFACE_WITH_KNOTS('',3,3,((#1324,#1325,#1326,#1327),(#1328,
#1329,#1330,#1331),(#1332,#1333,#1334,#1335),(#1336,#1337,#1338,#1339),
(#1340,#1341,#1342,#1343),(#1344,#1345,#1346,#1347),(#1348,#1349,#1350,
#1351)),.UNSPECIFIED.,.F.,.F.,.F.,(4,1,1,1,4),(4,4),(0.,0.285714285714286,
0.571428571428571,0.785714285714286,1.),(-1.06500066002056,3.19500066002635),
 .UNSPECIFIED.);
#808=B_SPLINE_SURFACE_WITH_KNOTS('',3,3,((#1368,#1369,#1370,#1371),(#1372,
#1373,#1374,#1375),(#1376,#1377,#1378,#1379),(#1380,#1381,#1382,#1383),
(#1384,#1385,#1386,#1387),(#1388,#1389,#1390,#1391),(#1392,#1393,#1394,
#1395)),.UNSPECIFIED.,.F.,.F.,.F.,(4,1,1,1,4),(4,4),(0.,0.285714285714286,
0.571428571428571,0.785714285714286,1.),(-1.36500066002633,4.09500066002056),
 .UNSPECIFIED.);
#809=B_SPLINE_SURFACE_WITH_KNOTS('',3,3,((#1492,#1493,#1494,#1495),(#1496,
#1497,#1498,#1499),(#1500,#1501,#1502,#1503),(#1504,#1505,#1506,#1507),
(#1508,#1509,#1510,#1511),(#1512,#1513,#1514,#1515),(#1516,#1517,#1518,
#1519),(#1520,#1521,#1522,#1523),(#1524,#1525,#1526,#1527),(#1528,#1529,
#1530,#1531),(#1532,#1533,#1534,#1535),(#1536,#1537,#1538,#1539),(#1540,
#1541,#1542,#1543),(#1544,#1545,#1546,#1547)),.UNSPECIFIED.,.T.,.F.,.F.,
(4,1,2,1,2,1,2,1,4),(4,4),(0.,0.125,0.25,0.375,0.5,0.625,0.75,0.875,1.),
(0.,1.),.UNSPECIFIED.);
#810=B_SPLINE_SURFACE_WITH_KNOTS('',3,3,((#1562,#1563,#1564,#1565),(#1566,
#1567,#1568,#1569),(#1570,#1571,#1572,#1573),(#1574,#1575,#1576,#1577),
(#1578,#1579,#1580,#1581),(#1582,#1583,#1584,#1585),(#1586,#1587,#1588,
#1589),(#1590,#1591,#1592,#1593),(#1594,#1595,#1596,#1597),(#1598,#1599,
#1600,#1601),(#1602,#1603,#1604,#1605),(#1606,#1607,#1608,#1609),(#1610,
#1611,#1612,#1613),(#1614,#1615,#1616,#1617)),.UNSPECIFIED.,.T.,.F.,.F.,
(4,1,2,1,2,1,2,1,4),(4,4),(0.,0.125,0.25,0.375,0.5,0.625,0.75,0.875,1.),
(0.,1.),.UNSPECIFIED.);
#811=STYLED_ITEM('',(#1754),#829);
#812=STYLED_ITEM('',(#1754),#830);
#813=STYLED_ITEM('',(#1754),#831);
#814=STYLED_ITEM('',(#1754),#832);
#815=STYLED_ITEM('',(#1754),#835);
#816=STYLED_ITEM('',(#1753),#13);
#817=STYLED_ITEM('',(#1754),#857);
#818=STYLED_ITEM('',(#1756),#858);
#819=STYLED_ITEM('',(#1756),#859);
#820=STYLED_ITEM('',(#1755),#14);
#821=STYLED_ITEM('',(#1754),#861);
#822=STYLED_ITEM('',(#1756),#862);
#823=STYLED_ITEM('',(#1756),#863);
#824=STYLED_ITEM('',(#1755),#15);
#825=STYLED_ITEM('',(#1753),#16);
#826=STYLED_ITEM('',(#1753),#17);
#827=STYLED_ITEM('',(#1753),#18);
#828=STYLED_ITEM('',(#1753),#19);
#829=ADVANCED_FACE('',(#96),#805,.T.);
#830=ADVANCED_FACE('',(#97),#806,.T.);
#831=ADVANCED_FACE('',(#98),#807,.T.);
#832=ADVANCED_FACE('',(#99),#808,.T.);
#833=ADVANCED_FACE('',(#100),#57,.F.);
#834=ADVANCED_FACE('',(#101),#58,.F.);
#835=ADVANCED_FACE('',(#102),#59,.F.);
#836=ADVANCED_FACE('',(#103),#60,.F.);
#837=ADVANCED_FACE('',(#104),#61,.F.);
#838=ADVANCED_FACE('',(#105,#34),#62,.F.);
#839=ADVANCED_FACE('',(#106),#63,.T.);
#840=ADVANCED_FACE('',(#107),#24,.T.);
#841=ADVANCED_FACE('',(#108),#64,.T.);
#842=ADVANCED_FACE('',(#109),#25,.T.);
#843=ADVANCED_FACE('',(#110),#20,.T.);
#844=ADVANCED_FACE('',(#111),#26,.T.);
#845=ADVANCED_FACE('',(#112),#21,.T.);
#846=ADVANCED_FACE('',(#113),#27,.T.);
#847=ADVANCED_FACE('',(#114),#22,.T.);
#848=ADVANCED_FACE('',(#115),#28,.T.);
#849=ADVANCED_FACE('',(#116),#23,.T.);
#850=ADVANCED_FACE('',(#117),#29,.T.);
#851=ADVANCED_FACE('',(#118),#30,.T.);
#852=ADVANCED_FACE('',(#119),#31,.T.);
#853=ADVANCED_FACE('',(#120),#65,.T.);
#854=ADVANCED_FACE('',(#121),#66,.T.);
#855=ADVANCED_FACE('',(#122),#67,.T.);
#856=ADVANCED_FACE('',(#123),#68,.T.);
#857=ADVANCED_FACE('',(#124),#809,.F.);
#858=ADVANCED_FACE('',(#125),#32,.T.);
#859=ADVANCED_FACE('',(#126),#69,.F.);
#860=ADVANCED_FACE('',(#127),#70,.T.);
#861=ADVANCED_FACE('',(#128),#810,.F.);
#862=ADVANCED_FACE('',(#129),#33,.T.);
#863=ADVANCED_FACE('',(#130),#71,.F.);
#864=ADVANCED_FACE('',(#131),#72,.T.);
#865=ADVANCED_FACE('',(#132),#73,.T.);
#866=ADVANCED_FACE('',(#133),#74,.T.);
#867=ADVANCED_FACE('',(#134),#75,.T.);
#868=ADVANCED_FACE('',(#135),#76,.T.);
#869=ADVANCED_FACE('',(#136),#77,.F.);
#870=ADVANCED_FACE('',(#137),#78,.T.);
#871=ADVANCED_FACE('',(#138),#79,.F.);
#872=ADVANCED_FACE('',(#139),#80,.T.);
#873=ADVANCED_FACE('',(#140),#81,.T.);
#874=ADVANCED_FACE('',(#141),#82,.F.);
#875=ADVANCED_FACE('',(#142),#83,.F.);
#876=ADVANCED_FACE('',(#143),#84,.T.);
#877=ADVANCED_FACE('',(#144),#85,.F.);
#878=ADVANCED_FACE('',(#145),#86,.T.);
#879=ADVANCED_FACE('',(#146),#87,.T.);
#880=ADVANCED_FACE('',(#147),#88,.F.);
#881=ADVANCED_FACE('',(#148),#89,.F.);
#882=ADVANCED_FACE('',(#149),#90,.T.);
#883=ADVANCED_FACE('',(#150),#91,.T.);
#884=ADVANCED_FACE('',(#151),#92,.T.);
#885=ADVANCED_FACE('',(#152),#93,.T.);
#886=ADVANCED_FACE('',(#153),#94,.T.);
#887=ADVANCED_FACE('',(#154),#95,.F.);
#888=CLOSED_SHELL('',(#829,#830,#831,#832,#833,#834,#835,#836,#837,#838,
#839,#840,#841,#842,#843,#844,#845,#846,#847,#848,#849,#850,#851,#852,#853,
#854,#855));
#889=CLOSED_SHELL('',(#856,#857,#858,#859));
#890=CLOSED_SHELL('',(#860,#861,#862,#863));
#891=CLOSED_SHELL('',(#864,#865,#866,#867,#868,#869));
#892=CLOSED_SHELL('',(#870,#871,#872,#873,#874,#875));
#893=CLOSED_SHELL('',(#876,#877,#878,#879,#880,#881));
#894=CLOSED_SHELL('',(#882,#883,#884,#885,#886,#887));
#895=DERIVED_UNIT_ELEMENT(#897,1.);
#896=DERIVED_UNIT_ELEMENT(#1738,-3.);
#897=(
MASS_UNIT()
NAMED_UNIT(*)
SI_UNIT(.KILO.,.GRAM.)
);
#898=DERIVED_UNIT((#895,#896));
#899=MEASURE_REPRESENTATION_ITEM('density measure',
POSITIVE_RATIO_MEASURE(7850.),#898);
#900=PROPERTY_DEFINITION_REPRESENTATION(#905,#902);
#901=PROPERTY_DEFINITION_REPRESENTATION(#906,#903);
#902=REPRESENTATION('material name',(#904),#1735);
#903=REPRESENTATION('density',(#899),#1735);
#904=DESCRIPTIVE_REPRESENTATION_ITEM('Steel','Steel');
#905=PROPERTY_DEFINITION('material property','material name',#1745);
#906=PROPERTY_DEFINITION('material property','density of part',#1745);
#907=AXIS2_PLACEMENT_3D('placement',#1221,#983,#984);
#908=AXIS2_PLACEMENT_3D('',#1398,#993,#994);
#909=AXIS2_PLACEMENT_3D('',#1404,#998,#999);
#910=AXIS2_PLACEMENT_3D('',#1408,#1002,#1003);
#911=AXIS2_PLACEMENT_3D('',#1409,#1004,#1005);
#912=AXIS2_PLACEMENT_3D('',#1413,#1008,#1009);
#913=AXIS2_PLACEMENT_3D('',#1415,#1011,#1012);
#914=AXIS2_PLACEMENT_3D('',#1418,#1013,#1014);
#915=AXIS2_PLACEMENT_3D('',#1422,#1016,#1017);
#916=AXIS2_PLACEMENT_3D('',#1426,#1019,#1020);
#917=AXIS2_PLACEMENT_3D('',#1430,#1022,#1023);
#918=AXIS2_PLACEMENT_3D('',#1432,#1025,#1026);
#919=AXIS2_PLACEMENT_3D('',#1438,#1030,#1031);
#920=AXIS2_PLACEMENT_3D('',#1441,#1033,#1034);
#921=AXIS2_PLACEMENT_3D('',#1442,#1035,#1036);
#922=AXIS2_PLACEMENT_3D('',#1446,#1039,#1040);
#923=AXIS2_PLACEMENT_3D('',#1449,#1042,#1043);
#924=AXIS2_PLACEMENT_3D('',#1450,#1044,#1045);
#925=AXIS2_PLACEMENT_3D('',#1453,#1046,#1047);
#926=AXIS2_PLACEMENT_3D('',#1455,#1048,#1049);
#927=AXIS2_PLACEMENT_3D('',#1456,#1050,#1051);
#928=AXIS2_PLACEMENT_3D('',#1457,#1052,#1053);
#929=AXIS2_PLACEMENT_3D('',#1460,#1056,#1057);
#930=AXIS2_PLACEMENT_3D('',#1462,#1058,#1059);
#931=AXIS2_PLACEMENT_3D('',#1463,#1060,#1061);
#932=AXIS2_PLACEMENT_3D('',#1464,#1062,#1063);
#933=AXIS2_PLACEMENT_3D('',#1467,#1066,#1067);
#934=AXIS2_PLACEMENT_3D('',#1470,#1068,#1069);
#935=AXIS2_PLACEMENT_3D('',#1471,#1070,#1071);
#936=AXIS2_PLACEMENT_3D('',#1472,#1072,#1073);
#937=AXIS2_PLACEMENT_3D('',#1473,#1074,#1075);
#938=AXIS2_PLACEMENT_3D('',#1475,#1077,#1078);
#939=AXIS2_PLACEMENT_3D('',#1477,#1079,#1080);
#940=AXIS2_PLACEMENT_3D('',#1478,#1081,#1082);
#941=AXIS2_PLACEMENT_3D('',#1479,#1083,#1084);
#942=AXIS2_PLACEMENT_3D('',#1481,#1086,#1087);
#943=AXIS2_PLACEMENT_3D('',#1483,#1089,#1090);
#944=AXIS2_PLACEMENT_3D('',#1486,#1093,#1094);
#945=AXIS2_PLACEMENT_3D('',#1487,#1095,#1096);
#946=AXIS2_PLACEMENT_3D('',#1488,#1097,#1098);
#947=AXIS2_PLACEMENT_3D('',#1489,#1099,#1100);
#948=AXIS2_PLACEMENT_3D('',#1491,#1101,#1102);
#949=AXIS2_PLACEMENT_3D('',#1553,#1103,#1104);
#950=AXIS2_PLACEMENT_3D('',#1554,#1105,#1106);
#951=AXIS2_PLACEMENT_3D('',#1556,#1107,#1108);
#952=AXIS2_PLACEMENT_3D('',#1558,#1110,#1111);
#953=AXIS2_PLACEMENT_3D('',#1559,#1112,#1113);
#954=AXIS2_PLACEMENT_3D('',#1561,#1114,#1115);
#955=AXIS2_PLACEMENT_3D('',#1623,#1116,#1117);
#956=AXIS2_PLACEMENT_3D('',#1624,#1118,#1119);
#957=AXIS2_PLACEMENT_3D('',#1626,#1120,#1121);
#958=AXIS2_PLACEMENT_3D('',#1628,#1123,#1124);
#959=AXIS2_PLACEMENT_3D('',#1629,#1125,#1126);
#960=AXIS2_PLACEMENT_3D('',#1638,#1131,#1132);
#961=AXIS2_PLACEMENT_3D('',#1644,#1136,#1137);
#962=AXIS2_PLACEMENT_3D('',#1650,#1141,#1142);
#963=AXIS2_PLACEMENT_3D('',#1653,#1145,#1146);
#964=AXIS2_PLACEMENT_3D('',#1654,#1147,#1148);
#965=AXIS2_PLACEMENT_3D('',#1655,#1149,#1150);
#966=AXIS2_PLACEMENT_3D('',#1664,#1155,#1156);
#967=AXIS2_PLACEMENT_3D('',#1670,#1160,#1161);
#968=AXIS2_PLACEMENT_3D('',#1674,#1164,#1165);
#969=AXIS2_PLACEMENT_3D('',#1678,#1168,#1169);
#970=AXIS2_PLACEMENT_3D('',#1680,#1171,#1172);
#971=AXIS2_PLACEMENT_3D('',#1681,#1173,#1174);
#972=AXIS2_PLACEMENT_3D('',#1690,#1179,#1180);
#973=AXIS2_PLACEMENT_3D('',#1696,#1184,#1185);
#974=AXIS2_PLACEMENT_3D('',#1700,#1188,#1189);
#975=AXIS2_PLACEMENT_3D('',#1704,#1192,#1193);
#976=AXIS2_PLACEMENT_3D('',#1706,#1195,#1196);
#977=AXIS2_PLACEMENT_3D('',#1707,#1197,#1198);
#978=AXIS2_PLACEMENT_3D('',#1716,#1203,#1204);
#979=AXIS2_PLACEMENT_3D('',#1722,#1208,#1209);
#980=AXIS2_PLACEMENT_3D('',#1728,#1213,#1214);
#981=AXIS2_PLACEMENT_3D('',#1731,#1217,#1218);
#982=AXIS2_PLACEMENT_3D('',#1732,#1219,#1220);
#983=DIRECTION('axis',(0.,0.,1.));
#984=DIRECTION('refdir',(1.,0.,0.));
#985=DIRECTION('',(9.06942752510691E-15,-1.,0.));
#986=DIRECTION('',(-9.06942752510691E-15,1.,0.));
#987=DIRECTION('',(-1.,5.44944634797696E-15,0.));
#988=DIRECTION('',(1.,-5.44944634797696E-15,0.));
#989=DIRECTION('',(3.12738880176098E-15,-1.,0.));
#990=DIRECTION('',(-3.12738880176098E-15,1.,0.));
#991=DIRECTION('',(1.,1.70803542250023E-15,0.));
#992=DIRECTION('',(-1.,-1.70803542250023E-15,0.));
#993=DIRECTION('center_axis',(-1.70803542250023E-15,1.,0.));
#994=DIRECTION('ref_axis',(-1.,-1.70803542250023E-15,0.));
#995=DIRECTION('',(0.,0.,1.));
#996=DIRECTION('',(-1.,-1.70803542250023E-15,0.));
#997=DIRECTION('',(0.,0.,1.));
#998=DIRECTION('center_axis',(-1.,-9.06942752510691E-15,0.));
#999=DIRECTION('ref_axis',(9.06942752510691E-15,-1.,0.));
#1000=DIRECTION('',(0.,0.,1.));
#1001=DIRECTION('',(9.06942752510691E-15,-1.,0.));
#1002=DIRECTION('center_axis',(0.,0.,1.));
#1003=DIRECTION('ref_axis',(1.,0.,0.));
#1004=DIRECTION('center_axis',(1.,3.12738880176098E-15,0.));
#1005=DIRECTION('ref_axis',(-3.12738880176098E-15,1.,0.));
#1006=DIRECTION('',(-3.12738880176098E-15,1.,0.));
#1007=DIRECTION('',(0.,0.,1.));
#1008=DIRECTION('center_axis',(-5.44944634797696E-15,-1.,0.));
#1009=DIRECTION('ref_axis',(1.,-5.44944634797696E-15,0.));
#1010=DIRECTION('',(1.,-5.44944634797696E-15,0.));
#1011=DIRECTION('center_axis',(0.,0.,1.));
#1012=DIRECTION('ref_axis',(1.,0.,0.));
#1013=DIRECTION('center_axis',(0.,0.,1.));
#1014=DIRECTION('ref_axis',(-0.707106781186554,0.707106781186541,0.));
#1015=DIRECTION('',(-1.,-1.71402852924585E-15,0.));
#1016=DIRECTION('center_axis',(0.,0.,1.));
#1017=DIRECTION('ref_axis',(0.707106781186548,0.707106781186548,0.));
#1018=DIRECTION('',(-3.15796771448931E-15,1.,0.));
#1019=DIRECTION('center_axis',(0.,0.,1.));
#1020=DIRECTION('ref_axis',(0.707106781186548,-0.707106781186548,0.));
#1021=DIRECTION('',(1.,-5.37581675081655E-15,0.));
#1022=DIRECTION('center_axis',(0.,0.,1.));
#1023=DIRECTION('ref_axis',(-0.707106781186548,-0.707106781186548,0.));
#1024=DIRECTION('',(8.78309770592346E-15,-1.,0.));
#1025=DIRECTION('center_axis',(-1.,-8.78309770592346E-15,0.));
#1026=DIRECTION('ref_axis',(8.78309770592346E-15,-1.,0.));
#1027=DIRECTION('',(0.,0.,-1.));
#1028=DIRECTION('',(8.78309770592346E-15,-1.,0.));
#1029=DIRECTION('',(0.,0.,1.));
#1030=DIRECTION('center_axis',(0.,0.,1.));
#1031=DIRECTION('ref_axis',(-0.707106781186548,-0.707106781186548,0.));
#1032=DIRECTION('',(0.,0.,1.));
#1033=DIRECTION('center_axis',(0.,0.,1.));
#1034=DIRECTION('ref_axis',(-8.88178419700128E-15,-1.,0.));
#1035=DIRECTION('center_axis',(-5.37581675081655E-15,-1.,0.));
#1036=DIRECTION('ref_axis',(1.,-5.37581675081655E-15,0.));
#1037=DIRECTION('',(0.,0.,-1.));
#1038=DIRECTION('',(1.,-5.37581675081655E-15,0.));
#1039=DIRECTION('center_axis',(0.,0.,1.));
#1040=DIRECTION('ref_axis',(0.707106781186548,-0.707106781186548,0.));
#1041=DIRECTION('',(0.,0.,1.));
#1042=DIRECTION('center_axis',(0.,0.,1.));
#1043=DIRECTION('ref_axis',(1.,0.,0.));
#1044=DIRECTION('center_axis',(0.408248290463852,-0.816496580927733,0.408248290463859));
#1045=DIRECTION('ref_axis',(0.577350269189633,0.577350269189619,0.577350269189626));
#1046=DIRECTION('center_axis',(0.,1.,1.77635683940026E-14));
#1047=DIRECTION('ref_axis',(1.,0.,0.));
#1048=DIRECTION('center_axis',(0.,0.,1.));
#1049=DIRECTION('ref_axis',(0.,1.,0.));
#1050=DIRECTION('center_axis',(1.,8.88178419700128E-15,0.));
#1051=DIRECTION('ref_axis',(0.,0.,1.));
#1052=DIRECTION('center_axis',(0.,0.,1.));
#1053=DIRECTION('ref_axis',(0.707106781186548,0.707106781186548,0.));
#1054=DIRECTION('',(0.,0.,1.));
#1055=DIRECTION('',(0.,0.,-1.));
#1056=DIRECTION('center_axis',(-0.408248290463863,-0.816496580927726,-0.408248290463863));
#1057=DIRECTION('ref_axis',(0.577350269189619,-0.577350269189633,0.577350269189626));
#1058=DIRECTION('center_axis',(1.,0.,0.));
#1059=DIRECTION('ref_axis',(0.,-1.,0.));
#1060=DIRECTION('center_axis',(0.,-1.,0.));
#1061=DIRECTION('ref_axis',(0.,0.,1.));
#1062=DIRECTION('center_axis',(-3.15796771448931E-15,1.,0.));
#1063=DIRECTION('ref_axis',(0.707106781186554,6.28036983473518E-15,0.707106781186541));
#1064=DIRECTION('',(3.15796771448931E-15,-1.,0.));
#1065=DIRECTION('',(-3.15796771448931E-15,1.,0.));
#1066=DIRECTION('center_axis',(-0.408248290463869,0.408248290463862,-0.816496580927724));
#1067=DIRECTION('ref_axis',(-0.577350269189633,0.577350269189619,0.577350269189626));
#1068=DIRECTION('center_axis',(-1.,0.,0.));
#1069=DIRECTION('ref_axis',(0.,1.,0.));
#1070=DIRECTION('center_axis',(0.,0.,1.));
#1071=DIRECTION('ref_axis',(-1.,-8.88178419700128E-15,0.));
#1072=DIRECTION('center_axis',(-8.88178419700128E-15,1.,0.));
#1073=DIRECTION('ref_axis',(0.,0.,1.));
#1074=DIRECTION('center_axis',(0.,0.,1.));
#1075=DIRECTION('ref_axis',(-0.707106781186554,0.707106781186541,0.));
#1076=DIRECTION('',(0.,0.,-1.));
#1077=DIRECTION('center_axis',(-0.408248290463869,-0.408248290463862,-0.816496580927724));
#1078=DIRECTION('ref_axis',(-0.577350269189633,-0.577350269189619,0.577350269189626));
#1079=DIRECTION('center_axis',(1.77635683940026E-14,-1.,1.77635683940026E-14));
#1080=DIRECTION('ref_axis',(-1.,-1.77635683940026E-14,0.));
#1081=DIRECTION('center_axis',(-1.,8.88178419700128E-15,0.));
#1082=DIRECTION('ref_axis',(0.,0.,1.));
#1083=DIRECTION('center_axis',(1.,-5.37581675081655E-15,0.));
#1084=DIRECTION('ref_axis',(0.,-0.707106781186554,0.707106781186541));
#1085=DIRECTION('',(-1.,5.37581675081655E-15,0.));
#1086=DIRECTION('center_axis',(8.78309770592346E-15,-1.,0.));
#1087=DIRECTION('ref_axis',(-0.707106781186554,-6.28036983473518E-15,0.707106781186541));
#1088=DIRECTION('',(-8.78309770592346E-15,1.,0.));
#1089=DIRECTION('center_axis',(-1.,-1.71402852924585E-15,0.));
#1090=DIRECTION('ref_axis',(0.,0.707106781186554,0.707106781186541));
#1091=DIRECTION('',(1.,1.71402852924585E-15,0.));
#1092=DIRECTION('',(-1.,-1.71402852924585E-15,0.));
#1093=DIRECTION('center_axis',(1.,3.15796771448931E-15,0.));
#1094=DIRECTION('ref_axis',(-3.15796771448931E-15,1.,0.));
#1095=DIRECTION('center_axis',(0.,0.,1.));
#1096=DIRECTION('ref_axis',(1.,0.,0.));
#1097=DIRECTION('center_axis',(-1.71402852924585E-15,1.,0.));
#1098=DIRECTION('ref_axis',(-1.,-1.71402852924585E-15,0.));
#1099=DIRECTION('center_axis',(0.,0.,1.));
#1100=DIRECTION('ref_axis',(1.,0.,0.));
#1101=DIRECTION('center_axis',(0.,0.,1.));
#1102=DIRECTION('ref_axis',(1.,0.,0.));
#1103=DIRECTION('center_axis',(0.,0.,1.));
#1104=DIRECTION('ref_axis',(1.,0.,0.));
#1105=DIRECTION('center_axis',(0.,0.,-1.));
#1106=DIRECTION('ref_axis',(1.,0.,0.));
#1107=DIRECTION('center_axis',(0.,0.,-1.));
#1108=DIRECTION('ref_axis',(1.,0.,0.));
#1109=DIRECTION('',(0.,0.,1.));
#1110=DIRECTION('center_axis',(0.,0.,1.));
#1111=DIRECTION('ref_axis',(1.,0.,0.));
#1112=DIRECTION('center_axis',(0.,0.,1.));
#1113=DIRECTION('ref_axis',(1.,0.,0.));
#1114=DIRECTION('center_axis',(0.,0.,1.));
#1115=DIRECTION('ref_axis',(1.,0.,0.));
#1116=DIRECTION('center_axis',(0.,0.,1.));
#1117=DIRECTION('ref_axis',(1.,0.,0.));
#1118=DIRECTION('center_axis',(0.,0.,-1.));
#1119=DIRECTION('ref_axis',(1.,0.,0.));
#1120=DIRECTION('center_axis',(0.,0.,-1.));
#1121=DIRECTION('ref_axis',(1.,0.,0.));
#1122=DIRECTION('',(0.,0.,1.));
#1123=DIRECTION('center_axis',(0.,0.,1.));
#1124=DIRECTION('ref_axis',(1.,0.,0.));
#1125=DIRECTION('center_axis',(0.707106781186549,-5.2336415289097E-15,-0.707106781186546));
#1126=DIRECTION('ref_axis',(-0.707106781186546,0.,-0.707106781186549));
#1127=DIRECTION('',(0.707106781186546,0.,0.707106781186549));
#1128=DIRECTION('',(7.40148683078315E-15,1.,0.));
#1129=DIRECTION('',(-0.707106781186546,1.98126042130102E-12,-0.707106781186549));
#1130=DIRECTION('',(7.40148683078315E-15,1.,0.));
#1131=DIRECTION('center_axis',(0.,1.,0.));
#1132=DIRECTION('ref_axis',(-1.,0.,0.));
#1133=DIRECTION('',(-1.,0.,0.));
#1134=DIRECTION('',(0.707106781186546,0.,-0.707106781186549));
#1135=DIRECTION('',(-1.,0.,0.));
#1136=DIRECTION('center_axis',(-0.707106781186549,6.28036983473857E-14,
-0.707106781186546));
#1137=DIRECTION('ref_axis',(-0.707106781186546,0.,0.707106781186549));
#1138=DIRECTION('',(-0.707106781186546,1.98126042130102E-12,0.707106781186549));
#1139=DIRECTION('',(-8.88178419700614E-14,-1.,0.));
#1140=DIRECTION('',(-8.88178419700614E-14,-1.,0.));
#1141=DIRECTION('center_axis',(-2.80192535839694E-12,-1.,0.));
#1142=DIRECTION('ref_axis',(1.,-2.80192535839694E-12,0.));
#1143=DIRECTION('',(1.,-2.80192535839694E-12,0.));
#1144=DIRECTION('',(1.,-2.80192535839694E-12,0.));
#1145=DIRECTION('center_axis',(0.,0.,1.));
#1146=DIRECTION('ref_axis',(1.,0.,0.));
#1147=DIRECTION('center_axis',(0.,0.,1.));
#1148=DIRECTION('ref_axis',(1.,0.,0.));
#1149=DIRECTION('center_axis',(0.707106781186549,6.28036983473857E-14,-0.707106781186546));
#1150=DIRECTION('ref_axis',(-0.707106781186546,0.,-0.707106781186549));
#1151=DIRECTION('',(-0.707106781186546,-1.98126042130102E-12,-0.707106781186549));
#1152=DIRECTION('',(-8.88178419700614E-14,1.,0.));
#1153=DIRECTION('',(0.707106781186546,0.,0.707106781186549));
#1154=DIRECTION('',(8.88178419700614E-14,-1.,0.));
#1155=DIRECTION('center_axis',(0.,-1.,0.));
#1156=DIRECTION('ref_axis',(1.,0.,0.));
#1157=DIRECTION('',(1.,0.,0.));
#1158=DIRECTION('',(0.707106781186546,0.,-0.707106781186549));
#1159=DIRECTION('',(1.,0.,0.));
#1160=DIRECTION('center_axis',(0.,0.,-1.));
#1161=DIRECTION('ref_axis',(-1.,0.,0.));
#1162=DIRECTION('',(-1.,-2.80192535839694E-12,0.));
#1163=DIRECTION('',(7.40148683078315E-15,-1.,0.));
#1164=DIRECTION('center_axis',(-0.707106781186549,-5.2336415289097E-15,
-0.707106781186546));
#1165=DIRECTION('ref_axis',(-0.707106781186546,0.,0.707106781186549));
#1166=DIRECTION('',(-0.707106781186546,-1.98126042130102E-12,0.707106781186549));
#1167=DIRECTION('',(-7.40148683078315E-15,1.,0.));
#1168=DIRECTION('center_axis',(-2.80192535839694E-12,1.,0.));
#1169=DIRECTION('ref_axis',(-1.,-2.80192535839694E-12,0.));
#1170=DIRECTION('',(-1.,-2.80192535839694E-12,0.));
#1171=DIRECTION('center_axis',(0.,0.,-1.));
#1172=DIRECTION('ref_axis',(-1.,0.,0.));
#1173=DIRECTION('center_axis',(-0.707106781186549,-6.28036983473857E-14,
-0.707106781186546));
#1174=DIRECTION('ref_axis',(-0.707106781186546,0.,0.707106781186549));
#1175=DIRECTION('',(0.707106781186546,1.98126042130102E-12,-0.707106781186549));
#1176=DIRECTION('',(8.88178419700614E-14,-1.,0.));
#1177=DIRECTION('',(-0.707106781186546,0.,0.707106781186549));
#1178=DIRECTION('',(-8.88178419700614E-14,1.,0.));
#1179=DIRECTION('center_axis',(0.,1.,0.));
#1180=DIRECTION('ref_axis',(-1.,0.,0.));
#1181=DIRECTION('',(-1.,0.,0.));
#1182=DIRECTION('',(-0.707106781186546,0.,-0.707106781186549));
#1183=DIRECTION('',(-1.,0.,0.));
#1184=DIRECTION('center_axis',(0.,0.,-1.));
#1185=DIRECTION('ref_axis',(1.,0.,0.));
#1186=DIRECTION('',(1.,2.80192535839694E-12,0.));
#1187=DIRECTION('',(-7.40148683078315E-15,1.,0.));
#1188=DIRECTION('center_axis',(0.707106781186549,5.2336415289097E-15,-0.707106781186546));
#1189=DIRECTION('ref_axis',(-0.707106781186546,0.,-0.707106781186549));
#1190=DIRECTION('',(0.707106781186546,1.98126042130102E-12,0.707106781186549));
#1191=DIRECTION('',(7.40148683078315E-15,-1.,0.));
#1192=DIRECTION('center_axis',(2.80192535839694E-12,-1.,0.));
#1193=DIRECTION('ref_axis',(1.,2.80192535839694E-12,0.));
#1194=DIRECTION('',(1.,2.80192535839694E-12,0.));
#1195=DIRECTION('center_axis',(0.,0.,-1.));
#1196=DIRECTION('ref_axis',(1.,0.,0.));
#1197=DIRECTION('center_axis',(0.707106781186549,-6.28036983473857E-14,
-0.707106781186546));
#1198=DIRECTION('ref_axis',(-0.707106781186546,0.,-0.707106781186549));
#1199=DIRECTION('',(0.707106781186546,-1.98126042130102E-12,0.707106781186549));
#1200=DIRECTION('',(8.88178419700614E-14,1.,0.));
#1201=DIRECTION('',(-0.707106781186546,0.,-0.707106781186549));
#1202=DIRECTION('',(8.88178419700614E-14,1.,0.));
#1203=DIRECTION('center_axis',(2.80192535839694E-12,1.,0.));
#1204=DIRECTION('ref_axis',(-1.,2.80192535839694E-12,0.));
#1205=DIRECTION('',(-1.,2.80192535839694E-12,0.));
#1206=DIRECTION('',(0.707106781186546,-1.98126042130102E-12,-0.707106781186549));
#1207=DIRECTION('',(-1.,2.80192535839694E-12,0.));
#1208=DIRECTION('center_axis',(-0.707106781186549,5.2336415289097E-15,-0.707106781186546));
#1209=DIRECTION('ref_axis',(-0.707106781186546,0.,0.707106781186549));
#1210=DIRECTION('',(-0.707106781186546,0.,0.707106781186549));
#1211=DIRECTION('',(-7.40148683078315E-15,-1.,0.));
#1212=DIRECTION('',(-7.40148683078315E-15,-1.,0.));
#1213=DIRECTION('center_axis',(0.,-1.,0.));
#1214=DIRECTION('ref_axis',(1.,0.,0.));
#1215=DIRECTION('',(1.,0.,0.));
#1216=DIRECTION('',(1.,0.,0.));
#1217=DIRECTION('center_axis',(0.,0.,1.));
#1218=DIRECTION('ref_axis',(-1.,0.,0.));
#1219=DIRECTION('center_axis',(0.,0.,1.));
#1220=DIRECTION('ref_axis',(-1.,0.,0.));
#1221=CARTESIAN_POINT('',(0.,0.,0.));
#1222=CARTESIAN_POINT('Ctrl Pts',(-27.2999999999994,21.3000066002061,0.6));
#1223=CARTESIAN_POINT('Ctrl Pts',(-27.2999999999993,7.10000220004987,0.6));
#1224=CARTESIAN_POINT('Ctrl Pts',(-27.2999999999992,-7.10000220010634,0.6));
#1225=CARTESIAN_POINT('Ctrl Pts',(-27.299999999999,-21.3000066002625,0.6));
#1226=CARTESIAN_POINT('Ctrl Pts',(-27.2999999999994,21.3000066002061,0.659839860068377));
#1227=CARTESIAN_POINT('Ctrl Pts',(-27.2999999999993,7.10000220004988,0.659839860068377));
#1228=CARTESIAN_POINT('Ctrl Pts',(-27.2999999999992,-7.10000220010635,0.659839860068377));
#1229=CARTESIAN_POINT('Ctrl Pts',(-27.299999999999,-21.3000066002625,0.659839860068377));
#1230=CARTESIAN_POINT('Ctrl Pts',(-27.2955458798144,21.3000066002061,0.778335310544445));
#1231=CARTESIAN_POINT('Ctrl Pts',(-27.2955458798143,7.10000220004986,0.778335310544445));
#1232=CARTESIAN_POINT('Ctrl Pts',(-27.2955458798142,-7.10000220010634,0.778335310544445));
#1233=CARTESIAN_POINT('Ctrl Pts',(-27.295545879814,-21.3000066002625,0.778335310544445));
#1234=CARTESIAN_POINT('Ctrl Pts',(-27.1788600572357,21.3000066002061,0.931452916842225));
#1235=CARTESIAN_POINT('Ctrl Pts',(-27.1788600572356,7.10000220004988,0.931452916842225));
#1236=CARTESIAN_POINT('Ctrl Pts',(-27.1788600572355,-7.10000220010634,0.931452916842225));
#1237=CARTESIAN_POINT('Ctrl Pts',(-27.1788600572354,-21.3000066002625,0.931452916842225));
#1238=CARTESIAN_POINT('Ctrl Pts',(-27.0331449216009,21.3000066002061,0.998678927266676));
#1239=CARTESIAN_POINT('Ctrl Pts',(-27.0331449216008,7.10000220004988,0.998678927266676));
#1240=CARTESIAN_POINT('Ctrl Pts',(-27.0331449216007,-7.10000220010634,0.998678927266676));
#1241=CARTESIAN_POINT('Ctrl Pts',(-27.0331449216005,-21.3000066002625,0.998678927266676));
#1242=CARTESIAN_POINT('Ctrl Pts',(-26.9448798950507,21.3000066002061,0.999999999999999));
#1243=CARTESIAN_POINT('Ctrl Pts',(-26.9448798950506,7.10000220004986,0.999999999999999));
#1244=CARTESIAN_POINT('Ctrl Pts',(-26.9448798950504,-7.10000220010632,0.999999999999999));
#1245=CARTESIAN_POINT('Ctrl Pts',(-26.9448798950503,-21.3000066002625,0.999999999999999));
#1246=CARTESIAN_POINT('Ctrl Pts',(-26.8999999999994,21.3000066002061,0.999999999999999));
#1247=CARTESIAN_POINT('Ctrl Pts',(-26.8999999999993,7.10000220004988,0.999999999999999));
#1248=CARTESIAN_POINT('Ctrl Pts',(-26.8999999999992,-7.10000220010633,0.999999999999999));
#1249=CARTESIAN_POINT('Ctrl Pts',(-26.899999999999,-21.3000066002625,0.999999999999999));
#1250=CARTESIAN_POINT('',(-26.8999999999994,20.9000000000007,1.));
#1251=CARTESIAN_POINT('',(-26.899999999999,-20.8999999999993,1.));
#1252=CARTESIAN_POINT('',(-26.8999999999993,10.6500000000005,1.));
#1253=CARTESIAN_POINT('',(-27.299999999999,-21.2999999999993,0.6));
#1254=CARTESIAN_POINT('Ctrl Pts',(-26.899999999999,-20.8999999999993,0.999999999999999));
#1255=CARTESIAN_POINT('Ctrl Pts',(-26.9009724223923,-20.9009724223989,0.999999999999999));
#1256=CARTESIAN_POINT('Ctrl Pts',(-26.9019432748377,-20.9019432748412,0.999999999892353));
#1257=CARTESIAN_POINT('Ctrl Pts',(-26.9723634592787,-20.9723634591912,0.999990241267959));
#1258=CARTESIAN_POINT('Ctrl Pts',(-27.063462033745,-21.0634620337453,0.999301367152935));
#1259=CARTESIAN_POINT('Ctrl Pts',(-27.1876485310549,-21.1876485310552,0.908118450577575));
#1260=CARTESIAN_POINT('Ctrl Pts',(-27.2180690783682,-21.2180690787484,0.876798120420511));
#1261=CARTESIAN_POINT('Ctrl Pts',(-27.2665205154745,-21.266520515796,0.804060459705088));
#1262=CARTESIAN_POINT('Ctrl Pts',(-27.2782485469478,-21.2782485464709,0.771450525076613));
#1263=CARTESIAN_POINT('Ctrl Pts',(-27.3000000002217,-21.2999999997767,0.696138546076212));
#1264=CARTESIAN_POINT('Ctrl Pts',(-27.299999999999,-21.2999999999993,0.646617997636357));
#1265=CARTESIAN_POINT('Ctrl Pts',(-27.299999999999,-21.2999999999993,0.6));
#1266=CARTESIAN_POINT('',(-27.2999999999994,21.3000000000007,0.6));
#1267=CARTESIAN_POINT('',(-27.2999999999993,10.6500000000005,0.6));
#1268=CARTESIAN_POINT('Ctrl Pts',(-26.8999999999994,20.9000000000007,0.999999999999999));
#1269=CARTESIAN_POINT('Ctrl Pts',(-26.9009724581482,20.9009724581349,0.999999999999999));
#1270=CARTESIAN_POINT('Ctrl Pts',(-26.9019433462111,20.9019433462051,0.999999999892336));
#1271=CARTESIAN_POINT('Ctrl Pts',(-26.9723634439539,20.972363444159,0.999990240564295));
#1272=CARTESIAN_POINT('Ctrl Pts',(-27.0634614025331,21.0634614025343,0.999301330128127));
#1273=CARTESIAN_POINT('Ctrl Pts',(-27.1876479188782,21.1876479188794,0.90811908457792));
#1274=CARTESIAN_POINT('Ctrl Pts',(-27.2180687670511,21.2180687666722,0.876798534791117));
#1275=CARTESIAN_POINT('Ctrl Pts',(-27.2665204982778,21.2665204979576,0.804060541279373));
#1276=CARTESIAN_POINT('Ctrl Pts',(-27.2782485804098,21.2782485808884,0.771450459035061));
#1277=CARTESIAN_POINT('Ctrl Pts',(-27.2999999997766,21.3000000002234,0.696138423618483));
#1278=CARTESIAN_POINT('Ctrl Pts',(-27.2999999999994,21.3000000000007,0.646617942029998));
#1279=CARTESIAN_POINT('Ctrl Pts',(-27.2999999999994,21.3000000000007,0.6));
#1280=CARTESIAN_POINT('Ctrl Pts',(-27.3000066002622,-21.2999999999993,0.6));
#1281=CARTESIAN_POINT('Ctrl Pts',(-9.10000220010603,-21.2999999999994,0.6));
#1282=CARTESIAN_POINT('Ctrl Pts',(9.10000220005019,-21.2999999999995,0.6));
#1283=CARTESIAN_POINT('Ctrl Pts',(27.3000066002064,-21.2999999999996,0.6));
#1284=CARTESIAN_POINT('Ctrl Pts',(-27.3000066002622,-21.2999999999993,0.659839860068378));
#1285=CARTESIAN_POINT('Ctrl Pts',(-9.10000220010603,-21.2999999999994,0.659839860068378));
#1286=CARTESIAN_POINT('Ctrl Pts',(9.1000022000502,-21.2999999999995,0.659839860068378));
#1287=CARTESIAN_POINT('Ctrl Pts',(27.3000066002064,-21.2999999999996,0.659839860068378));
#1288=CARTESIAN_POINT('Ctrl Pts',(-27.3000066002622,-21.2955458798143,0.778335310544447));
#1289=CARTESIAN_POINT('Ctrl Pts',(-9.10000220010602,-21.2955458798144,0.778335310544447));
#1290=CARTESIAN_POINT('Ctrl Pts',(9.10000220005019,-21.2955458798145,0.778335310544447));
#1291=CARTESIAN_POINT('Ctrl Pts',(27.3000066002064,-21.2955458798146,0.778335310544447));
#1292=CARTESIAN_POINT('Ctrl Pts',(-27.3000066002623,-21.1788600572356,0.931452916842229));
#1293=CARTESIAN_POINT('Ctrl Pts',(-9.10000220010603,-21.1788600572357,0.931452916842229));
#1294=CARTESIAN_POINT('Ctrl Pts',(9.10000220005019,-21.1788600572359,0.931452916842229));
#1295=CARTESIAN_POINT('Ctrl Pts',(27.3000066002064,-21.1788600572359,0.931452916842229));
#1296=CARTESIAN_POINT('Ctrl Pts',(-27.3000066002622,-21.0331449216009,0.998678927266681));
#1297=CARTESIAN_POINT('Ctrl Pts',(-9.10000220010604,-21.033144921601,0.998678927266681));
#1298=CARTESIAN_POINT('Ctrl Pts',(9.1000022000502,-21.0331449216011,0.998678927266681));
#1299=CARTESIAN_POINT('Ctrl Pts',(27.3000066002064,-21.0331449216012,0.998678927266681));
#1300=CARTESIAN_POINT('Ctrl Pts',(-27.3000066002622,-20.9448798950506,1.));
#1301=CARTESIAN_POINT('Ctrl Pts',(-9.100002200106,-20.9448798950507,1.));
#1302=CARTESIAN_POINT('Ctrl Pts',(9.10000220005017,-20.9448798950508,1.));
#1303=CARTESIAN_POINT('Ctrl Pts',(27.3000066002064,-20.9448798950509,1.));
#1304=CARTESIAN_POINT('Ctrl Pts',(-27.3000066002622,-20.8999999999993,1.));
#1305=CARTESIAN_POINT('Ctrl Pts',(-9.10000220010603,-20.8999999999994,1.));
#1306=CARTESIAN_POINT('Ctrl Pts',(9.10000220005019,-20.8999999999995,1.));
#1307=CARTESIAN_POINT('Ctrl Pts',(27.3000066002064,-20.8999999999996,1.));
#1308=CARTESIAN_POINT('',(27.300000000001,-21.2999999999996,0.6));
#1309=CARTESIAN_POINT('',(-13.6499999999992,-21.2999999999994,0.6));
#1310=CARTESIAN_POINT('',(26.900000000001,-20.8999999999996,1.));
#1311=CARTESIAN_POINT('',(-13.6499999999992,-20.8999999999994,1.));
#1312=CARTESIAN_POINT('Ctrl Pts',(26.900000000001,-20.8999999999996,1.));
#1313=CARTESIAN_POINT('Ctrl Pts',(26.9009724581497,-20.9009724581339,1.));
#1314=CARTESIAN_POINT('Ctrl Pts',(26.9019433462126,-20.9019433462041,0.999999999892341));
#1315=CARTESIAN_POINT('Ctrl Pts',(26.9723634439563,-20.9723634441571,0.999990240564299));
#1316=CARTESIAN_POINT('Ctrl Pts',(27.0634614025347,-21.0634614025333,0.999301330128116));
#1317=CARTESIAN_POINT('Ctrl Pts',(27.1876479188794,-21.187647918878,0.908119084578163));
#1318=CARTESIAN_POINT('Ctrl Pts',(27.2180687670525,-21.218068766671,0.87679853479144));
#1319=CARTESIAN_POINT('Ctrl Pts',(27.2665204982801,-21.2665204979573,0.804060541278256));
#1320=CARTESIAN_POINT('Ctrl Pts',(27.2782485804116,-21.2782485808877,0.771450459033969));
#1321=CARTESIAN_POINT('Ctrl Pts',(27.2999999997782,-21.3000000002224,0.696138423618454));
#1322=CARTESIAN_POINT('Ctrl Pts',(27.300000000001,-21.2999999999996,0.646617942029914));
#1323=CARTESIAN_POINT('Ctrl Pts',(27.300000000001,-21.2999999999996,0.6));
#1324=CARTESIAN_POINT('Ctrl Pts',(27.300000000001,-21.3000066002051,0.6));
#1325=CARTESIAN_POINT('Ctrl Pts',(27.3000000000009,-7.10000220004871,0.6));
#1326=CARTESIAN_POINT('Ctrl Pts',(27.3000000000009,7.10000220010762,0.6));
#1327=CARTESIAN_POINT('Ctrl Pts',(27.3000000000008,21.300006600264,0.6));
#1328=CARTESIAN_POINT('Ctrl Pts',(27.300000000001,-21.3000066002051,0.659839860068377));
#1329=CARTESIAN_POINT('Ctrl Pts',(27.3000000000009,-7.10000220004872,0.659839860068377));
#1330=CARTESIAN_POINT('Ctrl Pts',(27.3000000000009,7.10000220010762,0.659839860068378));
#1331=CARTESIAN_POINT('Ctrl Pts',(27.3000000000008,21.300006600264,0.659839860068378));
#1332=CARTESIAN_POINT('Ctrl Pts',(27.295545879816,-21.3000066002051,0.778335310544446));
#1333=CARTESIAN_POINT('Ctrl Pts',(27.295545879816,-7.10000220004872,0.778335310544446));
#1334=CARTESIAN_POINT('Ctrl Pts',(27.2955458798159,7.10000220010762,0.778335310544448));
#1335=CARTESIAN_POINT('Ctrl Pts',(27.2955458798159,21.300006600264,0.778335310544448));
#1336=CARTESIAN_POINT('Ctrl Pts',(27.1788600572373,-21.3000066002051,0.931452916842225));
#1337=CARTESIAN_POINT('Ctrl Pts',(27.1788600572372,-7.10000220004871,0.931452916842225));
#1338=CARTESIAN_POINT('Ctrl Pts',(27.1788600572372,7.10000220010761,0.931452916842229));
#1339=CARTESIAN_POINT('Ctrl Pts',(27.1788600572372,21.300006600264,0.931452916842229));
#1340=CARTESIAN_POINT('Ctrl Pts',(27.0331449216025,-21.3000066002051,0.998678927266676));
#1341=CARTESIAN_POINT('Ctrl Pts',(27.0331449216025,-7.10000220004873,0.998678927266676));
#1342=CARTESIAN_POINT('Ctrl Pts',(27.0331449216024,7.10000220010763,0.998678927266681));
#1343=CARTESIAN_POINT('Ctrl Pts',(27.0331449216024,21.300006600264,0.998678927266681));
#1344=CARTESIAN_POINT('Ctrl Pts',(26.9448798950523,-21.3000066002051,0.999999999999999));
#1345=CARTESIAN_POINT('Ctrl Pts',(26.9448798950522,-7.1000022000487,0.999999999999999));
#1346=CARTESIAN_POINT('Ctrl Pts',(26.9448798950522,7.10000220010761,1.));
#1347=CARTESIAN_POINT('Ctrl Pts',(26.9448798950521,21.300006600264,1.));
#1348=CARTESIAN_POINT('Ctrl Pts',(26.900000000001,-21.3000066002051,0.999999999999999));
#1349=CARTESIAN_POINT('Ctrl Pts',(26.9000000000009,-7.10000220004871,0.999999999999999));
#1350=CARTESIAN_POINT('Ctrl Pts',(26.9000000000009,7.10000220010762,1.));
#1351=CARTESIAN_POINT('Ctrl Pts',(26.9000000000008,21.300006600264,1.));
#1352=CARTESIAN_POINT('',(27.3000000000008,21.3000000000008,0.6));
#1353=CARTESIAN_POINT('',(27.3000000000009,-10.6499999999995,0.6));
#1354=CARTESIAN_POINT('',(26.9000000000008,20.9000000000008,1.));
#1355=CARTESIAN_POINT('',(26.9000000000009,-10.6499999999995,1.));
#1356=CARTESIAN_POINT('Ctrl Pts',(26.9000000000008,20.9000000000008,0.999999999999999));
#1357=CARTESIAN_POINT('Ctrl Pts',(26.9009724223956,20.9009724223916,0.999999999999999));
#1358=CARTESIAN_POINT('Ctrl Pts',(26.9019432748411,20.901943274839,0.999999999892352));
#1359=CARTESIAN_POINT('Ctrl Pts',(26.9723634592065,20.9723634592609,0.999990241267969));
#1360=CARTESIAN_POINT('Ctrl Pts',(27.0634620337454,21.0634620337453,0.999301367153979));
#1361=CARTESIAN_POINT('Ctrl Pts',(27.1876485310568,21.1876485310568,0.908118450577459));
#1362=CARTESIAN_POINT('Ctrl Pts',(27.2180690783702,21.2180690787499,0.876798120420356));
#1363=CARTESIAN_POINT('Ctrl Pts',(27.2665205154764,21.2665205157975,0.804060459704944));
#1364=CARTESIAN_POINT('Ctrl Pts',(27.2782485469497,21.2782485464724,0.771450525076476));
#1365=CARTESIAN_POINT('Ctrl Pts',(27.3000000002235,21.2999999997781,0.696138546076187));
#1366=CARTESIAN_POINT('Ctrl Pts',(27.3000000000008,21.3000000000008,0.646617997636284));
#1367=CARTESIAN_POINT('Ctrl Pts',(27.3000000000008,21.3000000000008,0.6));
#1368=CARTESIAN_POINT('Ctrl Pts',(27.3000066002641,21.3000000000008,0.6));
#1369=CARTESIAN_POINT('Ctrl Pts',(9.10000220010776,21.3000000000007,0.6));
#1370=CARTESIAN_POINT('Ctrl Pts',(-9.10000220004854,21.3000000000007,0.6));
#1371=CARTESIAN_POINT('Ctrl Pts',(-27.3000066002048,21.3000000000007,0.6));
#1372=CARTESIAN_POINT('Ctrl Pts',(27.3000066002641,21.3000000000008,0.659839860068377));
#1373=CARTESIAN_POINT('Ctrl Pts',(9.10000220010776,21.3000000000007,0.659839860068377));
#1374=CARTESIAN_POINT('Ctrl Pts',(-9.10000220004854,21.3000000000007,0.659839860068377));
#1375=CARTESIAN_POINT('Ctrl Pts',(-27.3000066002048,21.3000000000007,0.659839860068377));
#1376=CARTESIAN_POINT('Ctrl Pts',(27.3000066002641,21.2955458798158,0.778335310544445));
#1377=CARTESIAN_POINT('Ctrl Pts',(9.10000220010775,21.2955458798157,0.778335310544445));
#1378=CARTESIAN_POINT('Ctrl Pts',(-9.10000220004853,21.2955458798157,0.778335310544445));
#1379=CARTESIAN_POINT('Ctrl Pts',(-27.3000066002048,21.2955458798157,0.778335310544445));
#1380=CARTESIAN_POINT('Ctrl Pts',(27.3000066002641,21.1788600572371,0.931452916842226));
#1381=CARTESIAN_POINT('Ctrl Pts',(9.10000220010776,21.178860057237,0.931452916842226));
#1382=CARTESIAN_POINT('Ctrl Pts',(-9.10000220004854,21.178860057237,0.931452916842226));
#1383=CARTESIAN_POINT('Ctrl Pts',(-27.3000066002048,21.178860057237,0.931452916842226));
#1384=CARTESIAN_POINT('Ctrl Pts',(27.3000066002641,21.0331449216023,0.998678927266676));
#1385=CARTESIAN_POINT('Ctrl Pts',(9.10000220010777,21.0331449216023,0.998678927266676));
#1386=CARTESIAN_POINT('Ctrl Pts',(-9.10000220004855,21.0331449216022,0.998678927266676));
#1387=CARTESIAN_POINT('Ctrl Pts',(-27.3000066002048,21.0331449216022,0.998678927266676));
#1388=CARTESIAN_POINT('Ctrl Pts',(27.3000066002641,20.944879895052,0.999999999999999));
#1389=CARTESIAN_POINT('Ctrl Pts',(9.10000220010773,20.944879895052,0.999999999999999));
#1390=CARTESIAN_POINT('Ctrl Pts',(-9.10000220004852,20.944879895052,0.999999999999999));
#1391=CARTESIAN_POINT('Ctrl Pts',(-27.3000066002048,20.9448798950519,0.999999999999999));
#1392=CARTESIAN_POINT('Ctrl Pts',(27.3000066002641,20.9000000000008,0.999999999999999));
#1393=CARTESIAN_POINT('Ctrl Pts',(9.10000220010776,20.9000000000007,0.999999999999999));
#1394=CARTESIAN_POINT('Ctrl Pts',(-9.10000220004854,20.9000000000007,0.999999999999999));
#1395=CARTESIAN_POINT('Ctrl Pts',(-27.3000066002048,20.9000000000007,0.999999999999999));
#1396=CARTESIAN_POINT('',(13.6500000000008,21.3000000000007,0.6));
#1397=CARTESIAN_POINT('',(13.6500000000008,20.9000000000007,1.));
#1398=CARTESIAN_POINT('Origin',(27.3000000000008,21.3000000000008,0.));
#1399=CARTESIAN_POINT('',(-27.2999999999994,21.3000000000007,0.5));
#1400=CARTESIAN_POINT('',(-27.2999999999994,21.3000000000007,0.));
#1401=CARTESIAN_POINT('',(27.3000000000008,21.3000000000008,0.5));
#1402=CARTESIAN_POINT('',(13.6500000000008,21.3000000000007,0.5));
#1403=CARTESIAN_POINT('',(27.3000000000008,21.3000000000008,0.));
#1404=CARTESIAN_POINT('Origin',(-27.2999999999994,21.3000000000007,0.));
#1405=CARTESIAN_POINT('',(-27.299999999999,-21.2999999999993,0.5));
#1406=CARTESIAN_POINT('',(-27.299999999999,-21.2999999999993,0.));
#1407=CARTESIAN_POINT('',(-27.2999999999993,10.6500000000005,0.5));
#1408=CARTESIAN_POINT('Origin',(7.8159700933611E-13,5.6399329650958E-13,
1.));
#1409=CARTESIAN_POINT('Origin',(27.300000000001,-21.2999999999996,0.));
#1410=CARTESIAN_POINT('',(27.300000000001,-21.2999999999996,0.5));
#1411=CARTESIAN_POINT('',(27.3000000000009,-10.6499999999995,0.5));
#1412=CARTESIAN_POINT('',(27.300000000001,-21.2999999999996,0.));
#1413=CARTESIAN_POINT('Origin',(-27.299999999999,-21.2999999999993,0.));
#1414=CARTESIAN_POINT('',(-13.6499999999992,-21.2999999999994,0.5));
#1415=CARTESIAN_POINT('Origin',(7.7715611723761E-13,5.6399329650958E-13,
0.5));
#1416=CARTESIAN_POINT('',(-27.9999999999994,22.5000000000007,0.5));
#1417=CARTESIAN_POINT('',(-28.4999999999994,22.0000000000007,0.5));
#1418=CARTESIAN_POINT('Origin',(-27.9999999999994,22.0000000000007,0.5));
#1419=CARTESIAN_POINT('',(28.0000000000008,22.5000000000008,0.5));
#1420=CARTESIAN_POINT('',(14.2500000000008,22.5000000000007,0.5));
#1421=CARTESIAN_POINT('',(28.5000000000008,22.0000000000008,0.5));
#1422=CARTESIAN_POINT('Origin',(28.0000000000008,22.0000000000008,0.5));
#1423=CARTESIAN_POINT('',(28.500000000001,-21.9999999999996,0.5));
#1424=CARTESIAN_POINT('',(28.5000000000009,-11.2499999999995,0.5));
#1425=CARTESIAN_POINT('',(28.000000000001,-22.4999999999996,0.5));
#1426=CARTESIAN_POINT('Origin',(28.000000000001,-21.9999999999996,0.5));
#1427=CARTESIAN_POINT('',(-27.999999999999,-22.4999999999993,0.5));
#1428=CARTESIAN_POINT('',(-14.2499999999992,-22.4999999999994,0.5));
#1429=CARTESIAN_POINT('',(-28.499999999999,-21.9999999999993,0.5));
#1430=CARTESIAN_POINT('Origin',(-27.999999999999,-21.9999999999993,0.5));
#1431=CARTESIAN_POINT('',(-28.4999999999993,11.2500000000005,0.5));
#1432=CARTESIAN_POINT('Origin',(-28.4999999999994,22.5000000000007,0.));
#1433=CARTESIAN_POINT('',(-28.499999999999,-21.9999999999993,64.5));
#1434=CARTESIAN_POINT('',(-28.499999999999,-21.9999999999993,0.));
#1435=CARTESIAN_POINT('',(-28.4999999999994,22.0000000000007,64.5));
#1436=CARTESIAN_POINT('',(-28.4999999999993,11.2500000000005,64.5));
#1437=CARTESIAN_POINT('',(-28.4999999999994,22.0000000000007,0.));
#1438=CARTESIAN_POINT('Origin',(-27.999999999999,-21.9999999999993,0.));
#1439=CARTESIAN_POINT('',(-27.999999999999,-22.4999999999993,64.5));
#1440=CARTESIAN_POINT('',(-27.999999999999,-22.4999999999993,0.));
#1441=CARTESIAN_POINT('Origin',(-27.999999999999,-21.9999999999993,64.5));
#1442=CARTESIAN_POINT('Origin',(-28.499999999999,-22.4999999999993,0.));
#1443=CARTESIAN_POINT('',(28.000000000001,-22.4999999999996,64.5));
#1444=CARTESIAN_POINT('',(28.000000000001,-22.4999999999996,0.));
#1445=CARTESIAN_POINT('',(-14.2499999999992,-22.4999999999994,64.5));
#1446=CARTESIAN_POINT('Origin',(28.000000000001,-21.9999999999996,0.));
#1447=CARTESIAN_POINT('',(28.500000000001,-21.9999999999996,64.5));
#1448=CARTESIAN_POINT('',(28.500000000001,-21.9999999999996,0.));
#1449=CARTESIAN_POINT('Origin',(28.000000000001,-21.9999999999996,64.5));
#1450=CARTESIAN_POINT('Origin',(28.0000000000008,22.0000000000008,64.5));
#1451=CARTESIAN_POINT('',(28.5000000000008,22.0000000000008,64.5));
#1452=CARTESIAN_POINT('',(28.0000000000008,22.0000000000008,65.));
#1453=CARTESIAN_POINT('Origin',(28.0000000000008,22.0000000000008,64.5));
#1454=CARTESIAN_POINT('',(28.0000000000008,22.5000000000008,64.5));
#1455=CARTESIAN_POINT('Origin',(28.0000000000008,22.0000000000008,64.5));
#1456=CARTESIAN_POINT('Origin',(28.0000000000008,22.0000000000008,64.5));
#1457=CARTESIAN_POINT('Origin',(28.0000000000008,22.0000000000008,0.));
#1458=CARTESIAN_POINT('',(28.0000000000008,22.5000000000008,0.));
#1459=CARTESIAN_POINT('',(28.5000000000008,22.0000000000008,0.));
#1460=CARTESIAN_POINT('Origin',(28.000000000001,-21.9999999999996,64.5));
#1461=CARTESIAN_POINT('',(28.000000000001,-21.9999999999996,65.));
#1462=CARTESIAN_POINT('Origin',(28.000000000001,-21.9999999999996,64.5));
#1463=CARTESIAN_POINT('Origin',(28.000000000001,-21.9999999999996,64.5));
#1464=CARTESIAN_POINT('Origin',(28.0000000000009,-11.2499999999995,64.5));
#1465=CARTESIAN_POINT('',(28.0000000000009,-11.2499999999995,65.));
#1466=CARTESIAN_POINT('',(28.5000000000009,-11.2499999999995,64.5));
#1467=CARTESIAN_POINT('Origin',(-27.9999999999994,22.0000000000007,64.5));
#1468=CARTESIAN_POINT('',(-27.9999999999994,22.5000000000007,64.5));
#1469=CARTESIAN_POINT('',(-27.9999999999994,22.0000000000007,65.));
#1470=CARTESIAN_POINT('Origin',(-27.9999999999994,22.0000000000007,64.5));
#1471=CARTESIAN_POINT('Origin',(-27.9999999999994,22.0000000000007,64.5));
#1472=CARTESIAN_POINT('Origin',(-27.9999999999994,22.0000000000007,64.5));
#1473=CARTESIAN_POINT('Origin',(-27.9999999999994,22.0000000000007,0.));
#1474=CARTESIAN_POINT('',(-27.9999999999994,22.5000000000007,0.));
#1475=CARTESIAN_POINT('Origin',(-27.999999999999,-21.9999999999993,64.5));
#1476=CARTESIAN_POINT('',(-27.999999999999,-21.9999999999993,65.));
#1477=CARTESIAN_POINT('Origin',(-27.999999999999,-21.9999999999993,64.5));
#1478=CARTESIAN_POINT('Origin',(-27.999999999999,-21.9999999999993,64.5));
#1479=CARTESIAN_POINT('Origin',(-14.2499999999992,-21.9999999999994,64.5));
#1480=CARTESIAN_POINT('',(-14.2499999999992,-21.9999999999994,65.));
#1481=CARTESIAN_POINT('Origin',(-27.9999999999993,11.2500000000005,64.5));
#1482=CARTESIAN_POINT('',(-27.9999999999993,11.2500000000005,65.));
#1483=CARTESIAN_POINT('Origin',(14.2500000000008,22.0000000000007,64.5));
#1484=CARTESIAN_POINT('',(14.2500000000008,22.0000000000007,65.));
#1485=CARTESIAN_POINT('',(14.2500000000008,22.5000000000007,64.5));
#1486=CARTESIAN_POINT('Origin',(28.500000000001,-22.4999999999996,0.));
#1487=CARTESIAN_POINT('Origin',(7.7715611723761E-13,5.6399329650958E-13,
65.));
#1488=CARTESIAN_POINT('Origin',(28.5000000000008,22.5000000000008,0.));
#1489=CARTESIAN_POINT('Origin',(26.25,2.01278022789927E-11,1.));
#1490=CARTESIAN_POINT('',(25.25,2.01276798143128E-11,1.));
#1491=CARTESIAN_POINT('Origin',(26.25,2.01278022789927E-11,1.));
#1492=CARTESIAN_POINT('Ctrl Pts',(25.25,2.01276798143128E-11,1.));
#1493=CARTESIAN_POINT('Ctrl Pts',(25.5166666666667,6.71008838654389E-12,
0.866666666666667));
#1494=CARTESIAN_POINT('Ctrl Pts',(25.65,1.39064440334683E-15,0.788561808316413));
#1495=CARTESIAN_POINT('Ctrl Pts',(25.65,1.39064440334683E-15,0.6));
#1496=CARTESIAN_POINT('Ctrl Pts',(25.25,-0.261799387779022,1.));
#1497=CARTESIAN_POINT('Ctrl Pts',(25.5166666666667,-0.204670580530331,0.866666666666667));
#1498=CARTESIAN_POINT('Ctrl Pts',(25.65,-0.157079632679488,0.788561808315172));
#1499=CARTESIAN_POINT('Ctrl Pts',(25.65,-0.157079632679488,0.6));
#1500=CARTESIAN_POINT('Ctrl Pts',(25.4676875332443,-0.783698440727539,1.));
#1501=CARTESIAN_POINT('Ctrl Pts',(25.6581496738398,-0.593236300145515,0.866666666666667));
#1502=CARTESIAN_POINT('Ctrl Pts',(25.7806125199466,-0.470219064448599,0.788561808312798));
#1503=CARTESIAN_POINT('Ctrl Pts',(25.7806125199466,-0.470219064448599,0.6));
#1504=CARTESIAN_POINT('Ctrl Pts',(25.9887512991441,-1.00072849880041,1.));
#1505=CARTESIAN_POINT('Ctrl Pts',(26.0458801064062,-0.734061832147163,0.866666666666667));
#1506=CARTESIAN_POINT('Ctrl Pts',(26.0932507794865,-0.600437099292323,0.788561808311669));
#1507=CARTESIAN_POINT('Ctrl Pts',(26.0932507794865,-0.600437099292323,0.6));
#1508=CARTESIAN_POINT('Ctrl Pts',(26.5122764530465,-1.00096948037344,1.));
#1509=CARTESIAN_POINT('Ctrl Pts',(26.4551476457844,-0.734302813720193,0.866666666666667));
#1510=CARTESIAN_POINT('Ctrl Pts',(26.4073658718279,-0.60058168823614,0.788561808311669));
#1511=CARTESIAN_POINT('Ctrl Pts',(26.4073658718279,-0.60058168823614,0.6));
#1512=CARTESIAN_POINT('Ctrl Pts',(27.0337774517728,-0.783314306068927,1.));
#1513=CARTESIAN_POINT('Ctrl Pts',(26.8433153111773,-0.592852165486902,0.866666666666667));
#1514=CARTESIAN_POINT('Ctrl Pts',(26.7202664710637,-0.469988583653431,0.788561808312799));
#1515=CARTESIAN_POINT('Ctrl Pts',(26.7202664710637,-0.469988583653431,0.6));
#1516=CARTESIAN_POINT('Ctrl Pts',(27.2514426430913,-0.261756891498598,1.));
#1517=CARTESIAN_POINT('Ctrl Pts',(26.9847759764246,-0.204628084249907,0.866666666666667));
#1518=CARTESIAN_POINT('Ctrl Pts',(26.8508655858548,-0.157054134911234,0.788561808315171));
#1519=CARTESIAN_POINT('Ctrl Pts',(26.8508655858548,-0.157054134911234,0.6));
#1520=CARTESIAN_POINT('Ctrl Pts',(27.2514426430913,0.261756891538854,1.));
#1521=CARTESIAN_POINT('Ctrl Pts',(26.9847759764246,0.204628084263328,0.866666666666666));
#1522=CARTESIAN_POINT('Ctrl Pts',(26.8508655858548,0.157054134911237,0.788561808317655));
#1523=CARTESIAN_POINT('Ctrl Pts',(26.8508655858548,0.157054134911237,0.6));
#1524=CARTESIAN_POINT('Ctrl Pts',(27.0337774517728,0.783314306109183,1.));
#1525=CARTESIAN_POINT('Ctrl Pts',(26.8433153111773,0.592852165500323,0.866666666666667));
#1526=CARTESIAN_POINT('Ctrl Pts',(26.7202664710637,0.469988583653434,0.788561808320027));
#1527=CARTESIAN_POINT('Ctrl Pts',(26.7202664710637,0.469988583653434,0.6));
#1528=CARTESIAN_POINT('Ctrl Pts',(26.5122764530465,1.0009694804137,1.));
#1529=CARTESIAN_POINT('Ctrl Pts',(26.4551476457844,0.734302813733614,0.866666666666667));
#1530=CARTESIAN_POINT('Ctrl Pts',(26.4073658718279,0.600581688236144,0.788561808321157));
#1531=CARTESIAN_POINT('Ctrl Pts',(26.4073658718279,0.600581688236144,0.6));
#1532=CARTESIAN_POINT('Ctrl Pts',(25.9887512991441,1.00072849884067,1.));
#1533=CARTESIAN_POINT('Ctrl Pts',(26.0458801064062,0.734061832160584,0.866666666666667));
#1534=CARTESIAN_POINT('Ctrl Pts',(26.0932507794865,0.600437099292326,0.788561808321157));
#1535=CARTESIAN_POINT('Ctrl Pts',(26.0932507794865,0.600437099292326,0.6));
#1536=CARTESIAN_POINT('Ctrl Pts',(25.4676875332443,0.783698440767795,1.));
#1537=CARTESIAN_POINT('Ctrl Pts',(25.6581496738398,0.593236300158935,0.866666666666667));
#1538=CARTESIAN_POINT('Ctrl Pts',(25.7806125199466,0.470219064448602,0.788561808320027));
#1539=CARTESIAN_POINT('Ctrl Pts',(25.7806125199466,0.470219064448602,0.6));
#1540=CARTESIAN_POINT('Ctrl Pts',(25.25,0.261799387819278,1.));
#1541=CARTESIAN_POINT('Ctrl Pts',(25.5166666666667,0.204670580543751,0.866666666666667));
#1542=CARTESIAN_POINT('Ctrl Pts',(25.65,0.157079632679491,0.788561808317655));
#1543=CARTESIAN_POINT('Ctrl Pts',(25.65,0.157079632679491,0.6));
#1544=CARTESIAN_POINT('Ctrl Pts',(25.25,2.01279247436727E-11,1.));
#1545=CARTESIAN_POINT('Ctrl Pts',(25.5166666666667,6.71033331590372E-12,
0.866666666666667));
#1546=CARTESIAN_POINT('Ctrl Pts',(25.65,1.53760201924451E-15,0.788561808316413));
#1547=CARTESIAN_POINT('Ctrl Pts',(25.65,1.53760201924451E-15,0.6));
#1548=CARTESIAN_POINT('',(25.65,1.39064440334679E-15,0.6));
#1549=CARTESIAN_POINT('Ctrl Pts',(25.25,2.01279247436727E-11,1.));
#1550=CARTESIAN_POINT('Ctrl Pts',(25.5166666666667,6.71033331590372E-12,
0.866666666666667));
#1551=CARTESIAN_POINT('Ctrl Pts',(25.65,1.53760201924451E-15,0.788561808316413));
#1552=CARTESIAN_POINT('Ctrl Pts',(25.65,1.53760201924451E-15,0.6));
#1553=CARTESIAN_POINT('Origin',(26.25,1.46412321129563E-15,0.6));
#1554=CARTESIAN_POINT('Origin',(26.25,1.46412321129563E-15,0.));
#1555=CARTESIAN_POINT('',(25.65,1.39064440334679E-15,-6.2));
#1556=CARTESIAN_POINT('Origin',(26.25,1.46412321129563E-15,-6.2));
#1557=CARTESIAN_POINT('',(25.65,1.53760201924447E-15,0.));
#1558=CARTESIAN_POINT('Origin',(26.25,1.45716771982052E-15,-6.2));
#1559=CARTESIAN_POINT('Origin',(-26.25,8.83064146220363E-12,1.));
#1560=CARTESIAN_POINT('',(-27.25,8.83051899752371E-12,1.));
#1561=CARTESIAN_POINT('Origin',(-26.25,8.83064146220363E-12,1.));
#1562=CARTESIAN_POINT('Ctrl Pts',(-27.25,8.83051899752371E-12,1.));
#1563=CARTESIAN_POINT('Ctrl Pts',(-26.9833333333333,2.94244078033048E-12,
0.866666666666667));
#1564=CARTESIAN_POINT('Ctrl Pts',(-26.85,-1.5003565222117E-15,0.788561808316413));
#1565=CARTESIAN_POINT('Ctrl Pts',(-26.85,-1.5003565222117E-15,0.6));
#1566=CARTESIAN_POINT('Ctrl Pts',(-27.25,-0.261799387790319,1.));
#1567=CARTESIAN_POINT('Ctrl Pts',(-26.9833333333333,-0.204670580534098,
0.866666666666667));
#1568=CARTESIAN_POINT('Ctrl Pts',(-26.85,-0.157079632679491,0.788561808315868));
#1569=CARTESIAN_POINT('Ctrl Pts',(-26.85,-0.157079632679491,0.6));
#1570=CARTESIAN_POINT('Ctrl Pts',(-27.0323124667557,-0.783698440738836,
0.999999999999999));
#1571=CARTESIAN_POINT('Ctrl Pts',(-26.8418503261602,-0.593236300149282,
0.866666666666666));
#1572=CARTESIAN_POINT('Ctrl Pts',(-26.7193874800534,-0.470219064448602,
0.788561808314827));
#1573=CARTESIAN_POINT('Ctrl Pts',(-26.7193874800534,-0.470219064448602,
0.6));
#1574=CARTESIAN_POINT('Ctrl Pts',(-26.5112487008559,-1.00072849881171,1.));
#1575=CARTESIAN_POINT('Ctrl Pts',(-26.4541198935938,-0.734061832150931,
0.866666666666666));
#1576=CARTESIAN_POINT('Ctrl Pts',(-26.4067492205135,-0.600437099292325,
0.788561808314331));
#1577=CARTESIAN_POINT('Ctrl Pts',(-26.4067492205135,-0.600437099292325,
0.6));
#1578=CARTESIAN_POINT('Ctrl Pts',(-25.9877235469535,-1.00096948038474,0.999999999999999));
#1579=CARTESIAN_POINT('Ctrl Pts',(-26.0448523542156,-0.734302813723961,
0.866666666666666));
#1580=CARTESIAN_POINT('Ctrl Pts',(-26.0926341281721,-0.600581688236143,
0.78856180831433));
#1581=CARTESIAN_POINT('Ctrl Pts',(-26.0926341281721,-0.600581688236143,
0.6));
#1582=CARTESIAN_POINT('Ctrl Pts',(-25.4662225482272,-0.783314306080224,
1.));
#1583=CARTESIAN_POINT('Ctrl Pts',(-25.6566846888226,-0.59285216549067,0.866666666666666));
#1584=CARTESIAN_POINT('Ctrl Pts',(-25.7797335289363,-0.469988583653434,
0.788561808314827));
#1585=CARTESIAN_POINT('Ctrl Pts',(-25.7797335289363,-0.469988583653434,
0.6));
#1586=CARTESIAN_POINT('Ctrl Pts',(-25.2485573569087,-0.261756891509896,
0.999999999999999));
#1587=CARTESIAN_POINT('Ctrl Pts',(-25.5152240235754,-0.204628084253675,
0.866666666666666));
#1588=CARTESIAN_POINT('Ctrl Pts',(-25.6491344141452,-0.157054134911237,
0.788561808315867));
#1589=CARTESIAN_POINT('Ctrl Pts',(-25.6491344141452,-0.157054134911237,
0.599999999999999));
#1590=CARTESIAN_POINT('Ctrl Pts',(-25.2485573569087,0.261756891527556,0.999999999999999));
#1591=CARTESIAN_POINT('Ctrl Pts',(-25.5152240235754,0.20462808425956,0.866666666666666));
#1592=CARTESIAN_POINT('Ctrl Pts',(-25.6491344141452,0.157054134911234,0.788561808316957));
#1593=CARTESIAN_POINT('Ctrl Pts',(-25.6491344141452,0.157054134911234,0.599999999999999));
#1594=CARTESIAN_POINT('Ctrl Pts',(-25.4662225482272,0.783314306097885,0.999999999999999));
#1595=CARTESIAN_POINT('Ctrl Pts',(-25.6566846888226,0.592852165496554,0.866666666666666));
#1596=CARTESIAN_POINT('Ctrl Pts',(-25.7797335289363,0.469988583653431,0.788561808317998));
#1597=CARTESIAN_POINT('Ctrl Pts',(-25.7797335289363,0.469988583653431,0.6));
#1598=CARTESIAN_POINT('Ctrl Pts',(-25.9877235469535,1.0009694804024,0.999999999999999));
#1599=CARTESIAN_POINT('Ctrl Pts',(-26.0448523542156,0.734302813729846,0.866666666666666));
#1600=CARTESIAN_POINT('Ctrl Pts',(-26.0926341281721,0.600581688236141,0.788561808318494));
#1601=CARTESIAN_POINT('Ctrl Pts',(-26.0926341281721,0.600581688236141,0.6));
#1602=CARTESIAN_POINT('Ctrl Pts',(-26.5112487008559,1.00072849882937,1.));
#1603=CARTESIAN_POINT('Ctrl Pts',(-26.4541198935938,0.734061832156815,0.866666666666666));
#1604=CARTESIAN_POINT('Ctrl Pts',(-26.4067492205135,0.600437099292323,0.788561808318494));
#1605=CARTESIAN_POINT('Ctrl Pts',(-26.4067492205135,0.600437099292323,0.6));
#1606=CARTESIAN_POINT('Ctrl Pts',(-27.0323124667557,0.783698440756497,1.));
#1607=CARTESIAN_POINT('Ctrl Pts',(-26.8418503261602,0.593236300155167,0.866666666666666));
#1608=CARTESIAN_POINT('Ctrl Pts',(-26.7193874800534,0.470219064448599,0.788561808317998));
#1609=CARTESIAN_POINT('Ctrl Pts',(-26.7193874800534,0.470219064448599,0.6));
#1610=CARTESIAN_POINT('Ctrl Pts',(-27.25,0.26179938780798,1.));
#1611=CARTESIAN_POINT('Ctrl Pts',(-26.9833333333333,0.204670580539983,0.866666666666667));
#1612=CARTESIAN_POINT('Ctrl Pts',(-26.85,0.157079632679488,0.788561808316958));
#1613=CARTESIAN_POINT('Ctrl Pts',(-26.85,0.157079632679488,0.6));
#1614=CARTESIAN_POINT('Ctrl Pts',(-27.25,8.83076392688355E-12,1.));
#1615=CARTESIAN_POINT('Ctrl Pts',(-26.9833333333333,2.94268570969031E-12,
0.866666666666667));
#1616=CARTESIAN_POINT('Ctrl Pts',(-26.85,-1.35339890631402E-15,0.788561808316413));
#1617=CARTESIAN_POINT('Ctrl Pts',(-26.85,-1.35339890631402E-15,0.6));
#1618=CARTESIAN_POINT('',(-26.85,-1.50035652221173E-15,0.6));
#1619=CARTESIAN_POINT('Ctrl Pts',(-27.25,8.83076392688355E-12,1.));
#1620=CARTESIAN_POINT('Ctrl Pts',(-26.9833333333333,2.94268570969031E-12,
0.866666666666667));
#1621=CARTESIAN_POINT('Ctrl Pts',(-26.85,-1.35339890631402E-15,0.788561808316413));
#1622=CARTESIAN_POINT('Ctrl Pts',(-26.85,-1.35339890631402E-15,0.6));
#1623=CARTESIAN_POINT('Origin',(-26.25,-1.42687771426289E-15,0.6));
#1624=CARTESIAN_POINT('Origin',(-26.25,-1.42687771426289E-15,0.));
#1625=CARTESIAN_POINT('',(-26.85,-1.50035652221173E-15,-6.2));
#1626=CARTESIAN_POINT('Origin',(-26.25,-1.42687771426289E-15,-6.2));
#1627=CARTESIAN_POINT('',(-26.85,-1.35339890631405E-15,0.));
#1628=CARTESIAN_POINT('Origin',(-26.25,-1.45716771982052E-15,-6.2));
#1629=CARTESIAN_POINT('Origin',(-23.9000000000001,-22.2000000000062,0.25));
#1630=CARTESIAN_POINT('',(-24.1500000000001,-21.3,0.));
#1631=CARTESIAN_POINT('',(-23.6500000000001,-21.3,0.5));
#1632=CARTESIAN_POINT('',(-23.9000000000001,-21.3,0.249999999999997));
#1633=CARTESIAN_POINT('',(-23.6500000000001,-22.5000000000083,0.5));
#1634=CARTESIAN_POINT('',(-23.6500000000001,-22.5000000000083,0.5));
#1635=CARTESIAN_POINT('',(-24.1500000000001,-22.5000000000069,0.));
#1636=CARTESIAN_POINT('',(-24.7000000000005,-22.5000000000054,-0.55000000000044));
#1637=CARTESIAN_POINT('',(-24.1500000000001,-22.2000000000062,0.));
#1638=CARTESIAN_POINT('Origin',(-23.6500000000001,-21.3,0.));
#1639=CARTESIAN_POINT('',(-26.3500000000009,-21.3,0.));
#1640=CARTESIAN_POINT('',(-23.6500000000001,-21.3,0.));
#1641=CARTESIAN_POINT('',(-26.8500000000009,-21.3,0.5));
#1642=CARTESIAN_POINT('',(-25.8000000000007,-21.3,-0.550000000000199));
#1643=CARTESIAN_POINT('',(-23.6500000000001,-21.3,0.5));
#1644=CARTESIAN_POINT('Origin',(-26.6000000000009,-21.600000000002,0.25));
#1645=CARTESIAN_POINT('',(-26.350000000001,-22.5000000000007,0.));
#1646=CARTESIAN_POINT('',(-26.850000000001,-22.4999999999993,0.5));
#1647=CARTESIAN_POINT('',(-26.6000000000016,-22.5,0.25000000000061));
#1648=CARTESIAN_POINT('',(-26.8500000000009,-21.3,0.5));
#1649=CARTESIAN_POINT('',(-26.3500000000009,-21.600000000002,0.));
#1650=CARTESIAN_POINT('Origin',(-26.850000000001,-22.4999999999993,0.));
#1651=CARTESIAN_POINT('',(-26.850000000001,-22.4999999999993,0.5));
#1652=CARTESIAN_POINT('',(-26.850000000001,-22.4999999999993,0.));
#1653=CARTESIAN_POINT('Origin',(-25.2500000000005,-21.9000000000042,0.5));
#1654=CARTESIAN_POINT('Origin',(-25.2500000000005,-21.9000000000042,0.));
#1655=CARTESIAN_POINT('Origin',(26.6000000000009,-21.600000000002,0.25));
#1656=CARTESIAN_POINT('',(26.850000000001,-22.4999999999993,0.5));
#1657=CARTESIAN_POINT('',(26.350000000001,-22.5000000000007,0.));
#1658=CARTESIAN_POINT('',(26.6000000000016,-22.5,0.25000000000061));
#1659=CARTESIAN_POINT('',(26.3500000000009,-21.3,0.));
#1660=CARTESIAN_POINT('',(26.3500000000009,-21.600000000002,0.));
#1661=CARTESIAN_POINT('',(26.8500000000009,-21.3,0.5));
#1662=CARTESIAN_POINT('',(25.8000000000007,-21.3,-0.550000000000199));
#1663=CARTESIAN_POINT('',(26.8500000000009,-21.3,0.5));
#1664=CARTESIAN_POINT('Origin',(23.6500000000001,-21.3,0.));
#1665=CARTESIAN_POINT('',(24.1500000000001,-21.3,0.));
#1666=CARTESIAN_POINT('',(23.6500000000001,-21.3,0.));
#1667=CARTESIAN_POINT('',(23.6500000000001,-21.3,0.5));
#1668=CARTESIAN_POINT('',(23.9000000000001,-21.3,0.249999999999997));
#1669=CARTESIAN_POINT('',(23.6500000000001,-21.3,0.5));
#1670=CARTESIAN_POINT('Origin',(25.2500000000005,-21.9000000000042,0.));
#1671=CARTESIAN_POINT('',(24.1500000000001,-22.5000000000069,0.));
#1672=CARTESIAN_POINT('',(26.850000000001,-22.4999999999993,0.));
#1673=CARTESIAN_POINT('',(24.1500000000001,-22.2000000000062,0.));
#1674=CARTESIAN_POINT('Origin',(23.9000000000001,-22.2000000000062,0.25));
#1675=CARTESIAN_POINT('',(23.6500000000001,-22.5000000000083,0.5));
#1676=CARTESIAN_POINT('',(24.7000000000005,-22.5000000000054,-0.55000000000044));
#1677=CARTESIAN_POINT('',(23.6500000000001,-22.5000000000083,0.5));
#1678=CARTESIAN_POINT('Origin',(26.850000000001,-22.4999999999993,0.));
#1679=CARTESIAN_POINT('',(26.850000000001,-22.4999999999993,0.5));
#1680=CARTESIAN_POINT('Origin',(25.2500000000005,-21.9000000000042,0.5));
#1681=CARTESIAN_POINT('Origin',(-26.6000000000009,21.600000000002,0.25));
#1682=CARTESIAN_POINT('',(-26.850000000001,22.4999999999993,0.5));
#1683=CARTESIAN_POINT('',(-26.350000000001,22.5000000000007,0.));
#1684=CARTESIAN_POINT('',(-26.6000000000016,22.5,0.25000000000061));
#1685=CARTESIAN_POINT('',(-26.3500000000009,21.3,0.));
#1686=CARTESIAN_POINT('',(-26.3500000000009,21.600000000002,0.));
#1687=CARTESIAN_POINT('',(-26.8500000000009,21.3,0.5));
#1688=CARTESIAN_POINT('',(-25.8000000000007,21.3,-0.550000000000199));
#1689=CARTESIAN_POINT('',(-26.8500000000009,21.3,0.5));
#1690=CARTESIAN_POINT('Origin',(-23.6500000000001,21.3,0.));
#1691=CARTESIAN_POINT('',(-24.1500000000001,21.3,0.));
#1692=CARTESIAN_POINT('',(-23.6500000000001,21.3,0.));
#1693=CARTESIAN_POINT('',(-23.6500000000001,21.3,0.5));
#1694=CARTESIAN_POINT('',(-23.9000000000001,21.3,0.249999999999997));
#1695=CARTESIAN_POINT('',(-23.6500000000001,21.3,0.5));
#1696=CARTESIAN_POINT('Origin',(-25.2500000000005,21.9000000000042,0.));
#1697=CARTESIAN_POINT('',(-24.1500000000001,22.5000000000069,0.));
#1698=CARTESIAN_POINT('',(-26.850000000001,22.4999999999993,0.));
#1699=CARTESIAN_POINT('',(-24.1500000000001,22.2000000000062,0.));
#1700=CARTESIAN_POINT('Origin',(-23.9000000000001,22.2000000000062,0.25));
#1701=CARTESIAN_POINT('',(-23.6500000000001,22.5000000000083,0.5));
#1702=CARTESIAN_POINT('',(-24.7000000000005,22.5000000000054,-0.55000000000044));
#1703=CARTESIAN_POINT('',(-23.6500000000001,22.5000000000083,0.5));
#1704=CARTESIAN_POINT('Origin',(-26.850000000001,22.4999999999993,0.));
#1705=CARTESIAN_POINT('',(-26.850000000001,22.4999999999993,0.5));
#1706=CARTESIAN_POINT('Origin',(-25.2500000000005,21.9000000000042,0.5));
#1707=CARTESIAN_POINT('Origin',(26.6000000000009,21.600000000002,0.25));
#1708=CARTESIAN_POINT('',(26.350000000001,22.5000000000007,0.));
#1709=CARTESIAN_POINT('',(26.850000000001,22.4999999999993,0.5));
#1710=CARTESIAN_POINT('',(26.6000000000016,22.5,0.25000000000061));
#1711=CARTESIAN_POINT('',(26.8500000000009,21.3,0.5));
#1712=CARTESIAN_POINT('',(26.8500000000009,21.3,0.5));
#1713=CARTESIAN_POINT('',(26.3500000000009,21.3,0.));
#1714=CARTESIAN_POINT('',(25.8000000000007,21.3,-0.550000000000199));
#1715=CARTESIAN_POINT('',(26.3500000000009,21.600000000002,0.));
#1716=CARTESIAN_POINT('Origin',(26.850000000001,22.4999999999993,0.));
#1717=CARTESIAN_POINT('',(24.1500000000001,22.5000000000069,0.));
#1718=CARTESIAN_POINT('',(26.850000000001,22.4999999999993,0.));
#1719=CARTESIAN_POINT('',(23.6500000000001,22.5000000000083,0.5));
#1720=CARTESIAN_POINT('',(24.7000000000005,22.5000000000054,-0.55000000000044));
#1721=CARTESIAN_POINT('',(26.850000000001,22.4999999999993,0.5));
#1722=CARTESIAN_POINT('Origin',(23.9000000000001,22.2000000000062,0.25));
#1723=CARTESIAN_POINT('',(24.1500000000001,21.3,0.));
#1724=CARTESIAN_POINT('',(23.6500000000001,21.3,0.5));
#1725=CARTESIAN_POINT('',(23.9000000000001,21.3,0.249999999999997));
#1726=CARTESIAN_POINT('',(23.6500000000001,22.5000000000083,0.5));
#1727=CARTESIAN_POINT('',(24.1500000000001,22.2000000000062,0.));
#1728=CARTESIAN_POINT('Origin',(23.6500000000001,21.3,0.));
#1729=CARTESIAN_POINT('',(23.6500000000001,21.3,0.5));
#1730=CARTESIAN_POINT('',(23.6500000000001,21.3,0.));
#1731=CARTESIAN_POINT('Origin',(25.2500000000005,21.9000000000042,0.5));
#1732=CARTESIAN_POINT('Origin',(25.2500000000005,21.9000000000042,0.));
#1733=UNCERTAINTY_MEASURE_WITH_UNIT(LENGTH_MEASURE(0.01),#1737,
'DISTANCE_ACCURACY_VALUE',
'Maximum model space distance between geometric entities at asserted c
onnectivities');
#1734=UNCERTAINTY_MEASURE_WITH_UNIT(LENGTH_MEASURE(0.01),#1737,
'DISTANCE_ACCURACY_VALUE',
'Maximum model space distance between geometric entities at asserted c
onnectivities');
#1735=(
GEOMETRIC_REPRESENTATION_CONTEXT(3)
GLOBAL_UNCERTAINTY_ASSIGNED_CONTEXT((#1733))
GLOBAL_UNIT_ASSIGNED_CONTEXT((#1737,#1739,#1740))
REPRESENTATION_CONTEXT('','3D')
);
#1736=(
GEOMETRIC_REPRESENTATION_CONTEXT(3)
GLOBAL_UNCERTAINTY_ASSIGNED_CONTEXT((#1734))
GLOBAL_UNIT_ASSIGNED_CONTEXT((#1737,#1739,#1740))
REPRESENTATION_CONTEXT('','3D')
);
#1737=(
LENGTH_UNIT()
NAMED_UNIT(*)
SI_UNIT(.MILLI.,.METRE.)
);
#1738=(
LENGTH_UNIT()
NAMED_UNIT(*)
SI_UNIT($,.METRE.)
);
#1739=(
NAMED_UNIT(*)
PLANE_ANGLE_UNIT()
SI_UNIT($,.RADIAN.)
);
#1740=(
NAMED_UNIT(*)
SI_UNIT($,.STERADIAN.)
SOLID_ANGLE_UNIT()
);
#1741=SHAPE_DEFINITION_REPRESENTATION(#1742,#1743);
#1742=PRODUCT_DEFINITION_SHAPE('',$,#1745);
#1743=SHAPE_REPRESENTATION('',(#907),#1735);
#1744=PRODUCT_DEFINITION_CONTEXT('part definition',#1749,'design');
#1745=PRODUCT_DEFINITION('WIMA Film Cap maker','WIMA Film Cap maker v8',
#1746,#1744);
#1746=PRODUCT_DEFINITION_FORMATION('',$,#1751);
#1747=PRODUCT_RELATED_PRODUCT_CATEGORY('WIMA Film Cap maker v8',
'WIMA Film Cap maker v8',(#1751));
#1748=APPLICATION_PROTOCOL_DEFINITION('international standard',
'automotive_design',2009,#1749);
#1749=APPLICATION_CONTEXT(
'Core Data for Automotive Mechanical Design Process');
#1750=PRODUCT_CONTEXT('part definition',#1749,'mechanical');
#1751=PRODUCT('WIMA Film Cap maker','WIMA Film Cap maker v8',$,(#1750));
#1752=PRESENTATION_STYLE_ASSIGNMENT((#1757));
#1753=PRESENTATION_STYLE_ASSIGNMENT((#1758));
#1754=PRESENTATION_STYLE_ASSIGNMENT((#1759));
#1755=PRESENTATION_STYLE_ASSIGNMENT((#1760));
#1756=PRESENTATION_STYLE_ASSIGNMENT((#1761));
#1757=SURFACE_STYLE_USAGE(.BOTH.,#1762);
#1758=SURFACE_STYLE_USAGE(.BOTH.,#1763);
#1759=SURFACE_STYLE_USAGE(.BOTH.,#1764);
#1760=SURFACE_STYLE_USAGE(.BOTH.,#1765);
#1761=SURFACE_STYLE_USAGE(.BOTH.,#1766);
#1762=SURFACE_SIDE_STYLE('',(#1767));
#1763=SURFACE_SIDE_STYLE('',(#1768));
#1764=SURFACE_SIDE_STYLE('',(#1769));
#1765=SURFACE_SIDE_STYLE('',(#1770));
#1766=SURFACE_SIDE_STYLE('',(#1771));
#1767=SURFACE_STYLE_FILL_AREA(#1772);
#1768=SURFACE_STYLE_FILL_AREA(#1773);
#1769=SURFACE_STYLE_FILL_AREA(#1774);
#1770=SURFACE_STYLE_FILL_AREA(#1775);
#1771=SURFACE_STYLE_FILL_AREA(#1776);
#1772=FILL_AREA_STYLE('Steel - Satin',(#1777));
#1773=FILL_AREA_STYLE('WIMA_RED',(#1778));
#1774=FILL_AREA_STYLE('WIMA_YELLOW',(#1779));
#1775=FILL_AREA_STYLE('Pin color grey',(#1780));
#1776=FILL_AREA_STYLE('Pin color grey',(#1781));
#1777=FILL_AREA_STYLE_COLOUR('Steel - Satin',#1782);
#1778=FILL_AREA_STYLE_COLOUR('WIMA_RED',#1783);
#1779=FILL_AREA_STYLE_COLOUR('WIMA_YELLOW',#1784);
#1780=FILL_AREA_STYLE_COLOUR('Pin color grey',#1785);
#1781=FILL_AREA_STYLE_COLOUR('Pin color grey',#1786);
#1782=COLOUR_RGB('Steel - Satin',0.627450980392157,0.627450980392157,0.627450980392157);
#1783=COLOUR_RGB('WIMA_RED',0.862745098039216,0.235294117647059,0.235294117647059);
#1784=COLOUR_RGB('WIMA_YELLOW',0.901960784313726,0.823529411764706,0.254901960784314);
#1785=COLOUR_RGB('Pin color grey',0.701960784313725,0.701960784313725,0.701960784313725);
#1786=COLOUR_RGB('Pin color grey',0.701960784313725,0.701960784313725,0.701960784313725);
ENDSEC;
END-ISO-10303-21;
