ISO-10303-21;
HEADER;
FILE_DESCRIPTION (( 'STEP AP214' ),
    '1' );
FILE_NAME ('Fuse 508 v2.STEP',
    '2025-02-12T17:14:51',
    ( '' ),
    ( '' ),
    'SwSTEP 2.0',
    'SolidWorks 2023',
    '' );
FILE_SCHEMA (( 'AUTOMOTIVE_DESIGN' ));
ENDSEC;

DATA;
#1 = VERTEX_POINT ( 'NONE', #850 ) ;
#2 = CARTESIAN_POINT ( 'NONE',  ( 3.700000000000000178, -2.000000000000000000, 8.300000000000000711 ) ) ;
#3 = ORIENTED_EDGE ( 'NONE', *, *, #125, .T. ) ;
#4 = UNCERTAINTY_MEASURE_WITH_UNIT (LENGTH_MEASURE( 1.000000000000000082E-05 ), #1223, 'distance_accuracy_value', 'NONE');
#5 = LINE ( 'NONE', #394, #1203 ) ;
#6 = PRODUCT_DEFINITION ( 'UNKNOWN', '', #302, #200 ) ;
#7 = ORIENTED_EDGE ( 'NONE', *, *, #450, .T. ) ;
#8 = CARTESIAN_POINT ( 'NONE',  ( -1.750000000000000000, -1.750000000000000000, 0.000000000000000000 ) ) ;
#9 = ADVANCED_FACE ( 'NONE', ( #950 ), #170, .T. ) ;
#10 = PLANE ( 'NONE',  #575 ) ;
#11 = ORIENTED_EDGE ( 'NONE', *, *, #226, .F. ) ;
#12 = VECTOR ( 'NONE', #978, 1000.000000000000000 ) ;
#13 = FACE_OUTER_BOUND ( 'NONE', #487, .T. ) ;
#14 = CARTESIAN_POINT ( 'NONE',  ( -3.399999999999999911, -1.199999999999999956, 1.500000000000000000 ) ) ;
#15 = ADVANCED_FACE ( 'NONE', ( #162 ), #73, .F. ) ;
#16 = APPLICATION_CONTEXT ( 'automotive_design' ) ;
#17 = VECTOR ( 'NONE', #834, 1000.000000000000000 ) ;
#18 = AXIS2_PLACEMENT_3D ( 'NONE', #889, #603, #21 ) ;
#19 = VERTEX_POINT ( 'NONE', #1124 ) ;
#20 = CARTESIAN_POINT ( 'NONE',  ( 3.700000000000000178, -2.000000000000000000, 8.300000000000000711 ) ) ;
#21 = DIRECTION ( 'NONE',  ( 0.000000000000000000, 1.000000000000000000, 0.000000000000000000 ) ) ;
#22 = PRODUCT_DEFINITION ( 'UNKNOWN', '', #171, #100 ) ;
#23 = CARTESIAN_POINT ( 'NONE',  ( -3.399999999999999911, 1.199999999999999956, 1.500000000000000000 ) ) ;
#24 = ORIENTED_EDGE ( 'NONE', *, *, #652, .F. ) ;
#25 = LINE ( 'NONE', #1174, #1171 ) ;
#26 = LINE ( 'NONE', #99, #95 ) ;
#27 = LINE ( 'NONE', #805, #835 ) ;
#28 = EDGE_CURVE ( 'NONE', #614, #801, #444, .T. ) ;
#29 = CARTESIAN_POINT ( 'NONE',  ( 0.000000000000000000, 0.000000000000000000, 0.000000000000000000 ) ) ;
#30 = ORIENTED_EDGE ( 'NONE', *, *, #929, .F. ) ;
#31 = FACE_OUTER_BOUND ( 'NONE', #278, .T. ) ;
#32 = FACE_OUTER_BOUND ( 'NONE', #1224, .T. ) ;
#33 = ORIENTED_EDGE ( 'NONE', *, *, #503, .T. ) ;
#34 = ADVANCED_FACE ( 'NONE', ( #1052 ), #752, .T. ) ;
#35 = DIRECTION ( 'NONE',  ( 0.000000000000000000, 1.000000000000000000, 0.000000000000000000 ) ) ;
#36 = AXIS2_PLACEMENT_3D ( 'NONE', #455, #820, #1236 ) ;
#37 = VERTEX_POINT ( 'NONE', #766 ) ;
#38 = PLANE ( 'NONE',  #624 ) ;
#39 = DIRECTION ( 'NONE',  ( 1.000000000000000000, 0.000000000000000000, 0.000000000000000000 ) ) ;
#40 = APPLICATION_CONTEXT ( 'automotive_design' ) ;
#41 = CARTESIAN_POINT ( 'NONE',  ( 0.000000000000000000, 0.000000000000000000, 8.300000000000000711 ) ) ;
#42 = ORIENTED_EDGE ( 'NONE', *, *, #272, .F. ) ;
#43 = CARTESIAN_POINT ( 'NONE',  ( -3.700000000000000178, 1.600000000000000089, 1.500000000000000000 ) ) ;
#44 = CARTESIAN_POINT ( 'NONE',  ( -2.532563283960918010, 0.000000000000000000, 1.500000000000000000 ) ) ;
#45 = EDGE_CURVE ( 'NONE', #896, #438, #64, .T. ) ;
#46 = ORIENTED_EDGE ( 'NONE', *, *, #311, .F. ) ;
#47 = ORIENTED_EDGE ( 'NONE', *, *, #868, .T. ) ;
#48 = PLANE ( 'NONE',  #772 ) ;
#49 = ORIENTED_EDGE ( 'NONE', *, *, #1082, .T. ) ;
#50 = DIRECTION ( 'NONE',  ( 0.000000000000000000, 1.000000000000000000, 0.000000000000000000 ) ) ;
#51 = EDGE_LOOP ( 'NONE', ( #908, #119, #1120, #1135 ) ) ;
#52 = VECTOR ( 'NONE', #1006, 1000.000000000000000 ) ;
#53 = CARTESIAN_POINT ( 'NONE',  ( -2.532563283960918010, 0.000000000000000000, 1.500000000000000000 ) ) ;
#54 = EDGE_CURVE ( 'NONE', #1215, #1249, #93, .T. ) ;
#55 = CONTEXT_DEPENDENT_SHAPE_REPRESENTATION ( #485, #886 ) ;
#56 = FACE_OUTER_BOUND ( 'NONE', #81, .T. ) ;
#57 = LINE ( 'NONE', #906, #1130 ) ;
#58 = DIRECTION ( 'NONE',  ( -0.000000000000000000, -0.000000000000000000, -1.000000000000000000 ) ) ;
#59 = AXIS2_PLACEMENT_3D ( 'NONE', #293, #321, #1070 ) ;
#60 = AXIS2_PLACEMENT_3D ( 'NONE', #833, #719, #236 ) ;
#61 = CARTESIAN_POINT ( 'NONE',  ( 2.532563283960918010, 0.000000000000000000, 1.500000000000000000 ) ) ;
#62 = ADVANCED_FACE ( 'NONE', ( #474 ), #759, .F. ) ;
#63 = SHAPE_DEFINITION_REPRESENTATION ( #677, #822 ) ;
#64 = LINE ( 'NONE', #654, #110 ) ;
#65 = VERTEX_POINT ( 'NONE', #276 ) ;
#66 = DIRECTION ( 'NONE',  ( 0.000000000000000000, 0.000000000000000000, -1.000000000000000000 ) ) ;
#67 = DIRECTION ( 'NONE',  ( 0.000000000000000000, 0.000000000000000000, 1.000000000000000000 ) ) ;
#68 = ADVANCED_FACE ( 'NONE', ( #839 ), #1233, .F. ) ;
#69 = VERTEX_POINT ( 'NONE', #923 ) ;
#70 = LINE ( 'NONE', #373, #404 ) ;
#71 = AXIS2_PLACEMENT_3D ( 'NONE', #198, #792, #964 ) ;
#72 = LINE ( 'NONE', #959, #158 ) ;
#73 = PLANE ( 'NONE',  #1009 ) ;
#74 = PRESENTATION_STYLE_ASSIGNMENT (( #1046 ) ) ;
#75 = ORIENTED_EDGE ( 'NONE', *, *, #274, .T. ) ;
#76 = CARTESIAN_POINT ( 'NONE',  ( 2.532563283960918010, 0.000000000000000000, 0.000000000000000000 ) ) ;
#77 = DIRECTION ( 'NONE',  ( 0.000000000000000000, 1.000000000000000000, 0.000000000000000000 ) ) ;
#78 = VECTOR ( 'NONE', #781, 1000.000000000000000 ) ;
#79 = ITEM_DEFINED_TRANSFORMATION ( 'NONE', 'NONE', #601,  #1131 ) ;
#80 = DIRECTION ( 'NONE',  ( 0.000000000000000000, 0.000000000000000000, 1.000000000000000000 ) ) ;
#81 = EDGE_LOOP ( 'NONE', ( #499, #1101 ) ) ;
#82 = EDGE_CURVE ( 'NONE', #433, #352, #1252, .T. ) ;
#83 = DIRECTION ( 'NONE',  ( 0.000000000000000000, 0.000000000000000000, -1.000000000000000000 ) ) ;
#84 = ORIENTED_EDGE ( 'NONE', *, *, #643, .F. ) ;
#85 = DIRECTION ( 'NONE',  ( 0.000000000000000000, 0.000000000000000000, -1.000000000000000000 ) ) ;
#86 = CARTESIAN_POINT ( 'NONE',  ( -3.449999999999999734, -1.199999999999999956, 1.500000000000000000 ) ) ;
#87 = PRESENTATION_LAYER_ASSIGNMENT (  '', '', ( #804 ) ) ;
#88 = DIRECTION ( 'NONE',  ( 0.000000000000000000, 0.000000000000000000, 1.000000000000000000 ) ) ;
#89 = ORIENTED_EDGE ( 'NONE', *, *, #209, .F. ) ;
#90 = CARTESIAN_POINT ( 'NONE',  ( 1.750000000000000000, -1.750000000000000000, 0.5000000000000000000 ) ) ;
#91 = AXIS2_PLACEMENT_3D ( 'NONE', #355, #1119, #838 ) ;
#92 = DIRECTION ( 'NONE',  ( -1.000000000000000000, 0.000000000000000000, 0.000000000000000000 ) ) ;
#93 = CIRCLE ( 'NONE', #402, 0.3601812121596650318 ) ;
#94 = PRODUCT_DEFINITION_SHAPE ( 'NONE', 'NONE',  #534 ) ;
#95 = VECTOR ( 'NONE', #508, 1000.000000000000000 ) ;
#96 = EDGE_CURVE ( 'NONE', #395, #215, #457, .T. ) ;
#97 = ORIENTED_EDGE ( 'NONE', *, *, #495, .T. ) ;
#98 = FACE_OUTER_BOUND ( 'NONE', #724, .T. ) ;
#99 = CARTESIAN_POINT ( 'NONE',  ( 3.700000000000000178, -1.199999999999999956, 2.500000000000000000 ) ) ;
#100 = PRODUCT_DEFINITION_CONTEXT ( 'detailed design', #16, 'design' ) ;
#101 = FACE_OUTER_BOUND ( 'NONE', #310, .T. ) ;
#102 = ORIENTED_EDGE ( 'NONE', *, *, #1163, .T. ) ;
#103 = ADVANCED_FACE ( 'NONE', ( #370 ), #1240, .F. ) ;
#104 = DIRECTION ( 'NONE',  ( 0.000000000000000000, 0.000000000000000000, 1.000000000000000000 ) ) ;
#105 = CARTESIAN_POINT ( 'NONE',  ( 3.700000000000000178, 1.199999999999999956, 1.500000000000000000 ) ) ;
#106 = STYLED_ITEM ( 'NONE', ( #557 ), #1220 ) ;
#107 = ORIENTED_EDGE ( 'NONE', *, *, #189, .T. ) ;
#108 = LINE ( 'NONE', #1108, #52 ) ;
#109 = DIRECTION ( 'NONE',  ( 0.000000000000000000, -1.000000000000000000, 0.000000000000000000 ) ) ;
#110 = VECTOR ( 'NONE', #451, 1000.000000000000000 ) ;
#111 = CARTESIAN_POINT ( 'NONE',  ( -2.532563283960918010, 0.000000000000000000, 0.000000000000000000 ) ) ;
#112 = AXIS2_PLACEMENT_3D ( 'NONE', #53, #617, #915 ) ;
#113 = ORIENTED_EDGE ( 'NONE', *, *, #683, .T. ) ;
#114 = DIRECTION ( 'NONE',  ( 0.000000000000000000, 0.000000000000000000, 1.000000000000000000 ) ) ;
#115 = CARTESIAN_POINT ( 'NONE',  ( -3.649999999999999911, 1.199999999999999956, 1.500000000000000000 ) ) ;
#116 = ADVANCED_FACE ( 'NONE', ( #56 ), #164, .T. ) ;
#117 = VERTEX_POINT ( 'NONE', #944 ) ;
#118 = DIRECTION ( 'NONE',  ( 1.000000000000000000, 0.000000000000000000, 0.000000000000000000 ) ) ;
#119 = ORIENTED_EDGE ( 'NONE', *, *, #403, .T. ) ;
#120 = PRESENTATION_STYLE_ASSIGNMENT (( #831 ) ) ;
#121 = ORIENTED_EDGE ( 'NONE', *, *, #495, .F. ) ;
#122 = LINE ( 'NONE', #1068, #471 ) ;
#123 = ORIENTED_EDGE ( 'NONE', *, *, #628, .F. ) ;
#124 = PLANE ( 'NONE',  #1139 ) ;
#125 = EDGE_CURVE ( 'NONE', #269, #19, #985, .T. ) ;
#126 = AXIS2_PLACEMENT_3D ( 'NONE', #975, #502, #882 ) ;
#127 = CARTESIAN_POINT ( 'NONE',  ( 3.399999999999999911, -1.199999999999999956, 2.500000000000000000 ) ) ;
#128 = ORIENTED_EDGE ( 'NONE', *, *, #1178, .T. ) ;
#129 = CARTESIAN_POINT ( 'NONE',  ( -3.700000000000000178, -2.000000000000000000, 8.300000000000000711 ) ) ;
#130 =( GEOMETRIC_REPRESENTATION_CONTEXT ( 3 ) GLOBAL_UNCERTAINTY_ASSIGNED_CONTEXT ( ( #994 ) ) GLOBAL_UNIT_ASSIGNED_CONTEXT ( ( #363, #1134, #1154 ) ) REPRESENTATION_CONTEXT ( 'NONE', 'WORKASPACE' ) );
#131 = DIRECTION ( 'NONE',  ( -0.000000000000000000, -0.000000000000000000, -1.000000000000000000 ) ) ;
#132 = UNCERTAINTY_MEASURE_WITH_UNIT (LENGTH_MEASURE( 1.000000000000000082E-05 ), #477, 'distance_accuracy_value', 'NONE');
#133 = PLANE ( 'NONE',  #793 ) ;
#134 = ORIENTED_EDGE ( 'NONE', *, *, #800, .F. ) ;
#135 = DIRECTION ( 'NONE',  ( 0.000000000000000000, 0.000000000000000000, 1.000000000000000000 ) ) ;
#136 = ORIENTED_EDGE ( 'NONE', *, *, #1169, .T. ) ;
#137 = CARTESIAN_POINT ( 'NONE',  ( 3.649999999999999911, 1.199999999999999956, 1.500000000000000000 ) ) ;
#138 = CLOSED_SHELL ( 'NONE', ( #472, #708, #351, #304 ) ) ;
#139 = EDGE_CURVE ( 'NONE', #37, #1033, #261, .T. ) ;
#140 = VECTOR ( 'NONE', #611, 1000.000000000000000 ) ;
#141 = DIRECTION ( 'NONE',  ( 0.000000000000000000, 1.000000000000000000, 0.000000000000000000 ) ) ;
#142 = ORIENTED_EDGE ( 'NONE', *, *, #1097, .F. ) ;
#143 = ORIENTED_EDGE ( 'NONE', *, *, #1105, .T. ) ;
#144 = FILL_AREA_STYLE_COLOUR ( '', #205 ) ;
#145 = ADVANCED_FACE ( 'NONE', ( #379 ), #183, .F. ) ;
#146 = DIRECTION ( 'NONE',  ( -1.000000000000000000, 0.000000000000000000, 0.000000000000000000 ) ) ;
#147 = DIRECTION ( 'NONE',  ( -1.000000000000000000, 0.000000000000000000, 0.000000000000000000 ) ) ;
#148 = ORIENTED_EDGE ( 'NONE', *, *, #840, .T. ) ;
#149 = AXIS2_PLACEMENT_3D ( 'NONE', #535, #520, #619 ) ;
#150 = FACE_OUTER_BOUND ( 'NONE', #513, .T. ) ;
#151 = MECHANICAL_DESIGN_GEOMETRIC_PRESENTATION_REPRESENTATION (  '', ( #361 ), #829 ) ;
#152 = FACE_OUTER_BOUND ( 'NONE', #647, .T. ) ;
#153 = DIRECTION ( 'NONE',  ( 0.000000000000000000, 0.000000000000000000, 1.000000000000000000 ) ) ;
#154 = SURFACE_SIDE_STYLE ('',( #861 ) ) ;
#155 = VERTEX_POINT ( 'NONE', #612 ) ;
#156 = DIRECTION ( 'NONE',  ( 0.000000000000000000, -1.000000000000000000, 0.000000000000000000 ) ) ;
#157 = MECHANICAL_DESIGN_GEOMETRIC_PRESENTATION_REPRESENTATION (  '', ( #712 ), #322 ) ;
#158 = VECTOR ( 'NONE', #463, 1000.000000000000000 ) ;
#159 = PLANE ( 'NONE',  #344 ) ;
#160 = ADVANCED_FACE ( 'NONE', ( #32 ), #124, .T. ) ;
#161 =( NAMED_UNIT ( * ) PLANE_ANGLE_UNIT ( ) SI_UNIT ( $, .RADIAN. ) );
#162 = FACE_OUTER_BOUND ( 'NONE', #791, .T. ) ;
#163 = DIRECTION ( 'NONE',  ( 0.000000000000000000, 0.000000000000000000, 1.000000000000000000 ) ) ;
#164 = PLANE ( 'NONE',  #623 ) ;
#165 = VERTEX_POINT ( 'NONE', #583 ) ;
#166 = DIRECTION ( 'NONE',  ( 0.000000000000000000, 0.000000000000000000, -1.000000000000000000 ) ) ;
#167 = VECTOR ( 'NONE', #1017, 1000.000000000000000 ) ;
#168 = CARTESIAN_POINT ( 'NONE',  ( 2.532563283960918010, 0.000000000000000000, 1.500000000000000000 ) ) ;
#169 = APPLICATION_PROTOCOL_DEFINITION ( 'draft international standard', 'automotive_design', 1998, #280 ) ;
#170 = PLANE ( 'NONE',  #265 ) ;
#171 = PRODUCT_DEFINITION_FORMATION_WITH_SPECIFIED_SOURCE ( 'ANY', '', #491, .NOT_KNOWN. ) ;
#172 = ORIENTED_EDGE ( 'NONE', *, *, #547, .F. ) ;
#173 = EDGE_CURVE ( 'NONE', #787, #352, #5, .T. ) ;
#174 = LINE ( 'NONE', #574, #680 ) ;
#175 = PRESENTATION_STYLE_ASSIGNMENT (( #1245 ) ) ;
#176 = VECTOR ( 'NONE', #329, 1000.000000000000000 ) ;
#177 = AXIS2_PLACEMENT_3D ( 'NONE', #168, #1151, #279 ) ;
#178 = DIRECTION ( 'NONE',  ( 1.000000000000000000, 0.000000000000000000, 0.000000000000000000 ) ) ;
#179 = ORIENTED_EDGE ( 'NONE', *, *, #247, .T. ) ;
#180 = CARTESIAN_POINT ( 'NONE',  ( -3.700000000000000178, -1.199999999999999956, 2.500000000000000000 ) ) ;
#181 = ADVANCED_FACE ( 'NONE', ( #901 ), #1064, .T. ) ;
#182 = DIRECTION ( 'NONE',  ( -0.000000000000000000, 1.000000000000000000, 0.000000000000000000 ) ) ;
#183 = PLANE ( 'NONE',  #59 ) ;
#184 = VERTEX_POINT ( 'NONE', #774 ) ;
#185 = DIRECTION ( 'NONE',  ( -0.000000000000000000, -0.000000000000000000, -1.000000000000000000 ) ) ;
#186 = CARTESIAN_POINT ( 'NONE',  ( -3.399999999999999911, 1.199999999999999956, 1.500000000000000000 ) ) ;
#187 = PRODUCT_DEFINITION_CONTEXT ( 'detailed design', #280, 'design' ) ;
#188 = AXIS2_PLACEMENT_3D ( 'NONE', #76, #1255, #1056 ) ;
#189 = EDGE_CURVE ( 'NONE', #998, #1179, #1172, .T. ) ;
#190 = ORIENTED_EDGE ( 'NONE', *, *, #45, .T. ) ;
#191 = VERTEX_POINT ( 'NONE', #960 ) ;
#192 = LINE ( 'NONE', #90, #376 ) ;
#193 = CARTESIAN_POINT ( 'NONE',  ( -3.399999999999999911, -1.199999999999999956, 1.500000000000000000 ) ) ;
#194 = AXIS2_PLACEMENT_3D ( 'NONE', #757, #941, #581 ) ;
#195 = EDGE_CURVE ( 'NONE', #431, #748, #478, .T. ) ;
#196 = CARTESIAN_POINT ( 'NONE',  ( 1.750000000000000000, -1.750000000000000000, 0.000000000000000000 ) ) ;
#197 = ORIENTED_EDGE ( 'NONE', *, *, #937, .F. ) ;
#198 = CARTESIAN_POINT ( 'NONE',  ( -1.750000000000000000, 1.750000000000000000, 0.000000000000000000 ) ) ;
#199 = CARTESIAN_POINT ( 'NONE',  ( 3.700000000000000178, -1.199999999999999956, 2.500000000000000000 ) ) ;
#200 = PRODUCT_DEFINITION_CONTEXT ( 'detailed design', #567, 'design' ) ;
#201 = ORIENTED_EDGE ( 'NONE', *, *, #775, .T. ) ;
#202 = CARTESIAN_POINT ( 'NONE',  ( 3.700000000000000178, -1.600000000000000089, 2.500000000000000000 ) ) ;
#203 = LINE ( 'NONE', #600, #550 ) ;
#204 = ORIENTED_EDGE ( 'NONE', *, *, #809, .F. ) ;
#205 = COLOUR_RGB ( '',0.7921568627450980005, 0.8196078431372548767, 0.9333333333333333481 ) ;
#206 =( LENGTH_UNIT ( ) NAMED_UNIT ( * ) SI_UNIT ( .MILLI., .METRE. ) );
#207 = ORIENTED_EDGE ( 'NONE', *, *, #997, .T. ) ;
#208 = CARTESIAN_POINT ( 'NONE',  ( 3.449999999999999734, 1.199999999999999956, 1.500000000000000000 ) ) ;
#209 = EDGE_CURVE ( 'NONE', #65, #69, #867, .T. ) ;
#210 = LINE ( 'NONE', #314, #738 ) ;
#211 = VECTOR ( 'NONE', #245, 1000.000000000000000 ) ;
#212 = LINE ( 'NONE', #230, #523 ) ;
#213 = VECTOR ( 'NONE', #1008, 1000.000000000000000 ) ;
#214 = DIRECTION ( 'NONE',  ( 0.000000000000000000, 0.000000000000000000, 1.000000000000000000 ) ) ;
#215 = VERTEX_POINT ( 'NONE', #588 ) ;
#216 = CARTESIAN_POINT ( 'NONE',  ( 3.649999999999999911, -1.199999999999999956, 2.500000000000000000 ) ) ;
#217 = EDGE_CURVE ( 'NONE', #1185, #1167, #874, .T. ) ;
#218 = UNCERTAINTY_MEASURE_WITH_UNIT (LENGTH_MEASURE( 1.000000000000000082E-05 ), #480, 'distance_accuracy_value', 'NONE');
#219 = CARTESIAN_POINT ( 'NONE',  ( -3.399999999999999911, -1.199999999999999956, 2.500000000000000000 ) ) ;
#220 = ORIENTED_EDGE ( 'NONE', *, *, #1092, .T. ) ;
#221 = DIRECTION ( 'NONE',  ( 0.000000000000000000, 0.000000000000000000, 1.000000000000000000 ) ) ;
#222 = ORIENTED_EDGE ( 'NONE', *, *, #173, .T. ) ;
#223 = DIRECTION ( 'NONE',  ( 0.000000000000000000, 0.000000000000000000, 1.000000000000000000 ) ) ;
#224 = ORIENTED_EDGE ( 'NONE', *, *, #229, .T. ) ;
#225 = CYLINDRICAL_SURFACE ( 'NONE', #112, 0.3601812121596650318 ) ;
#226 = EDGE_CURVE ( 'NONE', #1215, #992, #995, .T. ) ;
#227 = CARTESIAN_POINT ( 'NONE',  ( -3.700000000000000178, -1.199999999999999956, 1.500000000000000000 ) ) ;
#228 = ORIENTED_EDGE ( 'NONE', *, *, #217, .F. ) ;
#229 = EDGE_CURVE ( 'NONE', #1241, #496, #593, .T. ) ;
#230 = CARTESIAN_POINT ( 'NONE',  ( 3.649999999999999911, -1.199999999999999956, 1.500000000000000000 ) ) ;
#231 = ORIENTED_EDGE ( 'NONE', *, *, #1105, .F. ) ;
#232 = DIRECTION ( 'NONE',  ( 1.000000000000000000, 0.000000000000000000, 0.000000000000000000 ) ) ;
#233 = PRESENTATION_LAYER_ASSIGNMENT (  '', '', ( #754 ) ) ;
#234 = ORIENTED_EDGE ( 'NONE', *, *, #1076, .T. ) ;
#235 = APPLICATION_CONTEXT ( 'automotive_design' ) ;
#236 = DIRECTION ( 'NONE',  ( 1.000000000000000000, 0.000000000000000000, -0.000000000000000000 ) ) ;
#237 = DIRECTION ( 'NONE',  ( 1.000000000000000000, 0.000000000000000000, -0.000000000000000000 ) ) ;
#238 = ORIENTED_EDGE ( 'NONE', *, *, #790, .F. ) ;
#239 = ADVANCED_FACE ( 'NONE', ( #101 ), #1058, .T. ) ;
#240 = CARTESIAN_POINT ( 'NONE',  ( 0.000000000000000000, 0.000000000000000000, 0.000000000000000000 ) ) ;
#241 = ORIENTED_EDGE ( 'NONE', *, *, #1186, .T. ) ;
#242 = AXIS2_PLACEMENT_3D ( 'NONE', #672, #500, #880 ) ;
#243 =( GEOMETRIC_REPRESENTATION_CONTEXT ( 3 ) GLOBAL_UNCERTAINTY_ASSIGNED_CONTEXT ( ( #429 ) ) GLOBAL_UNIT_ASSIGNED_CONTEXT ( ( #651, #559, #462 ) ) REPRESENTATION_CONTEXT ( 'NONE', 'WORKASPACE' ) );
#244 = CARTESIAN_POINT ( 'NONE',  ( 1.750000000000000000, -1.750000000000000000, 0.5000000000000000000 ) ) ;
#245 = DIRECTION ( 'NONE',  ( 1.000000000000000000, 0.000000000000000000, 0.000000000000000000 ) ) ;
#246 = ORIENTED_EDGE ( 'NONE', *, *, #195, .T. ) ;
#247 = EDGE_CURVE ( 'NONE', #19, #263, #27, .T. ) ;
#248 = SURFACE_SIDE_STYLE ('',( #445 ) ) ;
#249 = ORIENTED_EDGE ( 'NONE', *, *, #1047, .F. ) ;
#250 = CARTESIAN_POINT ( 'NONE',  ( 1.750000000000000000, 1.750000000000000000, 0.5000000000000000000 ) ) ;
#251 = SHAPE_REPRESENTATION_RELATIONSHIP ( 'NONE' , 'NONE' ,  #822, #1012 ) ;
#252 = DIRECTION ( 'NONE',  ( 1.000000000000000000, 0.000000000000000000, -0.000000000000000000 ) ) ;
#253 =( NAMED_UNIT ( * ) SI_UNIT ( $, .STERADIAN. ) SOLID_ANGLE_UNIT ( ) );
#254 = ORIENTED_EDGE ( 'NONE', *, *, #267, .F. ) ;
#255 = AXIS2_PLACEMENT_3D ( 'NONE', #958, #668, #270 ) ;
#256 = CARTESIAN_POINT ( 'NONE',  ( -3.449999999999999734, 1.199999999999999956, 2.500000000000000000 ) ) ;
#257 = VECTOR ( 'NONE', #648, 1000.000000000000000 ) ;
#258 = EDGE_CURVE ( 'NONE', #501, #165, #521, .T. ) ;
#259 = CARTESIAN_POINT ( 'NONE',  ( 1.750000000000000000, 1.750000000000000000, 0.000000000000000000 ) ) ;
#260 = CARTESIAN_POINT ( 'NONE',  ( 0.000000000000000000, 0.000000000000000000, 0.000000000000000000 ) ) ;
#261 = LINE ( 'NONE', #466, #287 ) ;
#262 = APPLICATION_CONTEXT ( 'automotive_design' ) ;
#263 = VERTEX_POINT ( 'NONE', #814 ) ;
#264 = FACE_OUTER_BOUND ( 'NONE', #808, .T. ) ;
#265 = AXIS2_PLACEMENT_3D ( 'NONE', #745, #639, #548 ) ;
#266 = LINE ( 'NONE', #1034, #910 ) ;
#267 = EDGE_CURVE ( 'NONE', #614, #1, #1206, .T. ) ;
#268 = DIRECTION ( 'NONE',  ( 1.000000000000000000, 0.000000000000000000, 0.000000000000000000 ) ) ;
#269 = VERTEX_POINT ( 'NONE', #577 ) ;
#270 = DIRECTION ( 'NONE',  ( 1.000000000000000000, 0.000000000000000000, 0.000000000000000000 ) ) ;
#271 = DIRECTION ( 'NONE',  ( -1.000000000000000000, 0.000000000000000000, 0.000000000000000000 ) ) ;
#272 = EDGE_CURVE ( 'NONE', #988, #496, #860, .T. ) ;
#273 = UNCERTAINTY_MEASURE_WITH_UNIT (LENGTH_MEASURE( 1.000000000000000082E-05 ), #206, 'distance_accuracy_value', 'NONE');
#274 = EDGE_CURVE ( 'NONE', #215, #431, #743, .T. ) ;
#275 = DIRECTION ( 'NONE',  ( 1.000000000000000000, 0.000000000000000000, 0.000000000000000000 ) ) ;
#276 = CARTESIAN_POINT ( 'NONE',  ( -3.649999999999999911, -1.199999999999999956, 1.500000000000000000 ) ) ;
#277 = ADVANCED_BREP_SHAPE_REPRESENTATION ( '', ( #1220, #372, #799, #1195, #1131 ), #416 ) ;
#278 = EDGE_LOOP ( 'NONE', ( #573, #918, #1002, #371 ) ) ;
#279 = DIRECTION ( 'NONE',  ( -1.000000000000000000, 0.000000000000000000, 0.000000000000000000 ) ) ;
#280 = APPLICATION_CONTEXT ( 'automotive_design' ) ;
#281 = CARTESIAN_POINT ( 'NONE',  ( 0.000000000000000000, 0.000000000000000000, 0.5000000000000000000 ) ) ;
#282 = DIRECTION ( 'NONE',  ( 1.000000000000000000, 0.000000000000000000, 0.000000000000000000 ) ) ;
#283 = EDGE_CURVE ( 'NONE', #69, #411, #644, .T. ) ;
#284 = VERTEX_POINT ( 'NONE', #1118 ) ;
#285 = CARTESIAN_POINT ( 'NONE',  ( 3.700000000000000178, 1.199999999999999956, 1.500000000000000000 ) ) ;
#286 = DIRECTION ( 'NONE',  ( 0.000000000000000000, 0.000000000000000000, 1.000000000000000000 ) ) ;
#287 = VECTOR ( 'NONE', #1160, 1000.000000000000000 ) ;
#288 = VECTOR ( 'NONE', #920, 1000.000000000000000 ) ;
#289 = DIRECTION ( 'NONE',  ( 0.000000000000000000, 0.000000000000000000, 1.000000000000000000 ) ) ;
#290 = ORIENTED_EDGE ( 'NONE', *, *, #272, .T. ) ;
#291 = DIRECTION ( 'NONE',  ( 0.000000000000000000, -1.000000000000000000, 0.000000000000000000 ) ) ;
#292 = ADVANCED_FACE ( 'NONE', ( #728, #1027 ), #133, .T. ) ;
#293 = CARTESIAN_POINT ( 'NONE',  ( -3.649999999999999911, 0.000000000000000000, 2.000000000000000000 ) ) ;
#294 = ORIENTED_EDGE ( 'NONE', *, *, #420, .F. ) ;
#295 = CARTESIAN_POINT ( 'NONE',  ( 3.700000000000000178, -1.199999999999999956, 1.500000000000000000 ) ) ;
#296 = CARTESIAN_POINT ( 'NONE',  ( -1.750000000000000000, -1.750000000000000000, 0.000000000000000000 ) ) ;
#297 = AXIS2_PLACEMENT_3D ( 'NONE', #308, #390, #1091 ) ;
#298 = MECHANICAL_DESIGN_GEOMETRIC_PRESENTATION_REPRESENTATION (  '', ( #106 ), #884 ) ;
#299 = CARTESIAN_POINT ( 'NONE',  ( -3.700000000000000178, -2.000000000000000000, 0.5000000000000000000 ) ) ;
#300 = ORIENTED_EDGE ( 'NONE', *, *, #1003, .F. ) ;
#301 = DIRECTION ( 'NONE',  ( 1.000000000000000000, 0.000000000000000000, 0.000000000000000000 ) ) ;
#302 = PRODUCT_DEFINITION_FORMATION_WITH_SPECIFIED_SOURCE ( 'ANY', '', #584, .NOT_KNOWN. ) ;
#303 = DIRECTION ( 'NONE',  ( 0.000000000000000000, 1.000000000000000000, 0.000000000000000000 ) ) ;
#304 = ADVANCED_FACE ( 'NONE', ( #927 ), #340, .F. ) ;
#305 = VECTOR ( 'NONE', #77, 1000.000000000000000 ) ;
#306 = CIRCLE ( 'NONE', #951, 0.3601812121596650318 ) ;
#307 = ORIENTED_EDGE ( 'NONE', *, *, #509, .F. ) ;
#308 = CARTESIAN_POINT ( 'NONE',  ( 3.649999999999999911, -1.199999999999999956, 1.500000000000000000 ) ) ;
#309 = DIRECTION ( 'NONE',  ( 0.000000000000000000, -1.000000000000000000, 0.000000000000000000 ) ) ;
#310 = EDGE_LOOP ( 'NONE', ( #326, #113, #190, #201 ) ) ;
#311 = EDGE_CURVE ( 'NONE', #1094, #519, #916, .T. ) ;
#312 = VERTEX_POINT ( 'NONE', #354 ) ;
#313 = CARTESIAN_POINT ( 'NONE',  ( 3.700000000000000178, 1.199999999999999956, 1.500000000000000000 ) ) ;
#314 = CARTESIAN_POINT ( 'NONE',  ( -3.649999999999999911, 1.199999999999999956, 2.500000000000000000 ) ) ;
#315 = EDGE_LOOP ( 'NONE', ( #307, #179, #626, #425 ) ) ;
#316 = AXIS2_PLACEMENT_3D ( 'NONE', #717, #282, #1125 ) ;
#317 = CARTESIAN_POINT ( 'NONE',  ( 3.449999999999999734, -1.199999999999999956, 2.500000000000000000 ) ) ;
#318 = ORIENTED_EDGE ( 'NONE', *, *, #907, .T. ) ;
#319 = CARTESIAN_POINT ( 'NONE',  ( 3.700000000000000178, 1.199999999999999956, 2.500000000000000000 ) ) ;
#320 = CARTESIAN_POINT ( 'NONE',  ( 3.649999999999999911, -1.199999999999999956, 2.500000000000000000 ) ) ;
#321 = DIRECTION ( 'NONE',  ( 1.000000000000000000, 0.000000000000000000, 0.000000000000000000 ) ) ;
#322 =( GEOMETRIC_REPRESENTATION_CONTEXT ( 3 ) GLOBAL_UNCERTAINTY_ASSIGNED_CONTEXT ( ( #132 ) ) GLOBAL_UNIT_ASSIGNED_CONTEXT ( ( #477, #1165, #1158 ) ) REPRESENTATION_CONTEXT ( 'NONE', 'WORKASPACE' ) );
#323 = VECTOR ( 'NONE', #710, 1000.000000000000000 ) ;
#324 = ORIENTED_EDGE ( 'NONE', *, *, #1126, .T. ) ;
#325 = CARTESIAN_POINT ( 'NONE',  ( -3.700000000000000178, -1.199999999999999956, 1.500000000000000000 ) ) ;
#326 = ORIENTED_EDGE ( 'NONE', *, *, #1229, .T. ) ;
#327 = DIRECTION ( 'NONE',  ( 0.000000000000000000, -1.000000000000000000, 0.000000000000000000 ) ) ;
#328 = ADVANCED_FACE ( 'NONE', ( #1104 ), #159, .T. ) ;
#329 = DIRECTION ( 'NONE',  ( 0.000000000000000000, 0.000000000000000000, 1.000000000000000000 ) ) ;
#330 = EDGE_LOOP ( 'NONE', ( #460, #828, #1005, #905 ) ) ;
#331 = DIRECTION ( 'NONE',  ( -0.000000000000000000, -0.000000000000000000, -1.000000000000000000 ) ) ;
#332 = ORIENTED_EDGE ( 'NONE', *, *, #389, .T. ) ;
#333 = FACE_OUTER_BOUND ( 'NONE', #440, .T. ) ;
#334 = DIRECTION ( 'NONE',  ( 0.000000000000000000, 0.000000000000000000, 1.000000000000000000 ) ) ;
#335 = ADVANCED_FACE ( 'NONE', ( #553 ), #347, .T. ) ;
#336 = ORIENTED_EDGE ( 'NONE', *, *, #28, .F. ) ;
#337 = AXIS2_PLACEMENT_3D ( 'NONE', #824, #543, #1209 ) ;
#338 = EDGE_LOOP ( 'NONE', ( #693, #290, #620, #706 ) ) ;
#339 = CARTESIAN_POINT ( 'NONE',  ( 3.399999999999999911, -1.199999999999999956, 1.500000000000000000 ) ) ;
#340 = PLANE ( 'NONE',  #446 ) ;
#341 = PRODUCT_CONTEXT ( 'NONE', #235, 'mechanical' ) ;
#342 = ORIENTED_EDGE ( 'NONE', *, *, #1019, .T. ) ;
#343 = DIRECTION ( 'NONE',  ( 0.000000000000000000, -1.000000000000000000, 0.000000000000000000 ) ) ;
#344 = AXIS2_PLACEMENT_3D ( 'NONE', #435, #147, #843 ) ;
#345 = VECTOR ( 'NONE', #327, 1000.000000000000000 ) ;
#346 = CYLINDRICAL_SURFACE ( 'NONE', #930, 0.3601812121596650318 ) ;
#347 = PLANE ( 'NONE',  #1051 ) ;
#348 = CONTEXT_DEPENDENT_SHAPE_REPRESENTATION ( #1175, #658 ) ;
#349 = DIRECTION ( 'NONE',  ( -0.000000000000000000, 1.000000000000000000, 0.000000000000000000 ) ) ;
#350 = PLANE ( 'NONE',  #337 ) ;
#351 = ADVANCED_FACE ( 'NONE', ( #152 ), #546, .T. ) ;
#352 = VERTEX_POINT ( 'NONE', #750 ) ;
#353 = CARTESIAN_POINT ( 'NONE',  ( 3.399999999999999911, 1.199999999999999956, 2.500000000000000000 ) ) ;
#354 = CARTESIAN_POINT ( 'NONE',  ( -3.649999999999999911, 1.199999999999999956, 2.500000000000000000 ) ) ;
#355 = CARTESIAN_POINT ( 'NONE',  ( 0.000000000000000000, 0.000000000000000000, 0.000000000000000000 ) ) ;
#356 = CARTESIAN_POINT ( 'NONE',  ( 3.449999999999999734, 0.000000000000000000, 2.000000000000000000 ) ) ;
#357 =( NAMED_UNIT ( * ) PLANE_ANGLE_UNIT ( ) SI_UNIT ( $, .RADIAN. ) );
#358 = ORIENTED_EDGE ( 'NONE', *, *, #96, .F. ) ;
#359 = AXIS2_PLACEMENT_3D ( 'NONE', #1136, #1262, #756 ) ;
#360 = LINE ( 'NONE', #313, #961 ) ;
#361 = STYLED_ITEM ( 'NONE', ( #74 ), #1226 ) ;
#362 = CARTESIAN_POINT ( 'NONE',  ( 0.000000000000000000, 0.000000000000000000, 0.000000000000000000 ) ) ;
#363 =( LENGTH_UNIT ( ) NAMED_UNIT ( * ) SI_UNIT ( .MILLI., .METRE. ) );
#364 = ORIENTED_EDGE ( 'NONE', *, *, #139, .T. ) ;
#365 = FACE_OUTER_BOUND ( 'NONE', #1081, .T. ) ;
#366 = AXIS2_PLACEMENT_3D ( 'NONE', #568, #1061, #954 ) ;
#367 = CARTESIAN_POINT ( 'NONE',  ( -1.750000000000000000, -1.750000000000000000, 0.000000000000000000 ) ) ;
#368 = ADVANCED_FACE ( 'NONE', ( #1129 ), #936, .F. ) ;
#369 =( NAMED_UNIT ( * ) SI_UNIT ( $, .STERADIAN. ) SOLID_ANGLE_UNIT ( ) );
#370 = FACE_OUTER_BOUND ( 'NONE', #869, .T. ) ;
#371 = ORIENTED_EDGE ( 'NONE', *, *, #1243, .T. ) ;
#372 = MANIFOLD_SOLID_BREP ( 'Fuse 508 v1.step<1>[4]', #1093 ) ;
#373 = CARTESIAN_POINT ( 'NONE',  ( 3.700000000000000178, 2.000000000000000000, 0.5000000000000000000 ) ) ;
#374 = DIRECTION ( 'NONE',  ( 1.000000000000000000, 0.000000000000000000, 0.000000000000000000 ) ) ;
#375 = DIRECTION ( 'NONE',  ( 0.000000000000000000, 0.000000000000000000, -1.000000000000000000 ) ) ;
#376 = VECTOR ( 'NONE', #877, 1000.000000000000000 ) ;
#377 = FILL_AREA_STYLE_COLOUR ( '', #1265 ) ;
#378 = ADVANCED_FACE ( 'NONE', ( #858 ), #1144, .F. ) ;
#379 = FACE_OUTER_BOUND ( 'NONE', #811, .T. ) ;
#380 = AXIS2_PLACEMENT_3D ( 'NONE', #260, #758, #275 ) ;
#381 =( LENGTH_UNIT ( ) NAMED_UNIT ( * ) SI_UNIT ( .MILLI., .METRE. ) );
#382 = EDGE_LOOP ( 'NONE', ( #516, #49, #661, #84 ) ) ;
#383 = DIRECTION ( 'NONE',  ( 0.000000000000000000, 0.000000000000000000, 1.000000000000000000 ) ) ;
#384 = LINE ( 'NONE', #949, #1072 ) ;
#385 = VECTOR ( 'NONE', #178, 1000.000000000000000 ) ;
#386 = PRESENTATION_LAYER_ASSIGNMENT (  '', '', ( #1054 ) ) ;
#387 = CARTESIAN_POINT ( 'NONE',  ( -2.892744496120582820, 0.000000000000000000, 1.500000000000000000 ) ) ;
#388 = ORIENTED_EDGE ( 'NONE', *, *, #217, .T. ) ;
#389 = EDGE_CURVE ( 'NONE', #686, #263, #761, .T. ) ;
#390 = DIRECTION ( 'NONE',  ( 0.000000000000000000, -1.000000000000000000, 0.000000000000000000 ) ) ;
#391 = DIRECTION ( 'NONE',  ( 0.000000000000000000, 0.000000000000000000, 1.000000000000000000 ) ) ;
#392 = ORIENTED_EDGE ( 'NONE', *, *, #389, .F. ) ;
#393 = ORIENTED_EDGE ( 'NONE', *, *, #209, .T. ) ;
#394 = CARTESIAN_POINT ( 'NONE',  ( -3.449999999999999734, 1.199999999999999956, 1.500000000000000000 ) ) ;
#395 = VERTEX_POINT ( 'NONE', #764 ) ;
#396 = LINE ( 'NONE', #599, #12 ) ;
#397 = FACE_BOUND ( 'NONE', #1173, .T. ) ;
#398 = VECTOR ( 'NONE', #788, 1000.000000000000000 ) ;
#399 = ORIENTED_EDGE ( 'NONE', *, *, #987, .T. ) ;
#400 = EDGE_LOOP ( 'NONE', ( #851, #172, #703, #1077 ) ) ;
#401 = DIRECTION ( 'NONE',  ( -1.000000000000000000, 0.000000000000000000, 0.000000000000000000 ) ) ;
#402 = AXIS2_PLACEMENT_3D ( 'NONE', #561, #80, #1248 ) ;
#403 = EDGE_CURVE ( 'NONE', #65, #501, #266, .T. ) ;
#404 = VECTOR ( 'NONE', #1242, 1000.000000000000000 ) ;
#405 = ORIENTED_EDGE ( 'NONE', *, *, #1138, .F. ) ;
#406 = CARTESIAN_POINT ( 'NONE',  ( -3.700000000000000178, -2.000000000000000000, 8.300000000000000711 ) ) ;
#407 =( REPRESENTATION_RELATIONSHIP ('NONE','NONE', #563, #1114 ) REPRESENTATION_RELATIONSHIP_WITH_TRANSFORMATION ( #744 )SHAPE_REPRESENTATION_RELATIONSHIP( ) );
#408 = CARTESIAN_POINT ( 'NONE',  ( 3.700000000000000178, -2.000000000000000000, 0.5000000000000000000 ) ) ;
#409 = ADVANCED_FACE ( 'NONE', ( #473 ), #675, .F. ) ;
#410 =( LENGTH_UNIT ( ) NAMED_UNIT ( * ) SI_UNIT ( .MILLI., .METRE. ) );
#411 = VERTEX_POINT ( 'NONE', #186 ) ;
#412 = LINE ( 'NONE', #202, #564 ) ;
#413 = LINE ( 'NONE', #296, #464 ) ;
#414 = CARTESIAN_POINT ( 'NONE',  ( 0.000000000000000000, 0.000000000000000000, 0.5000000000000000000 ) ) ;
#415 = VECTOR ( 'NONE', #970, 1000.000000000000000 ) ;
#416 =( GEOMETRIC_REPRESENTATION_CONTEXT ( 3 ) GLOBAL_UNCERTAINTY_ASSIGNED_CONTEXT ( ( #1103 ) ) GLOBAL_UNIT_ASSIGNED_CONTEXT ( ( #410, #607, #989 ) ) REPRESENTATION_CONTEXT ( 'NONE', 'WORKASPACE' ) );
#417 = CARTESIAN_POINT ( 'NONE',  ( 0.000000000000000000, 0.000000000000000000, 0.000000000000000000 ) ) ;
#418 = ORIENTED_EDGE ( 'NONE', *, *, #1138, .T. ) ;
#419 = CARTESIAN_POINT ( 'NONE',  ( -2.532563283960918010, 0.000000000000000000, 0.000000000000000000 ) ) ;
#420 = EDGE_CURVE ( 'NONE', #117, #969, #384, .T. ) ;
#421 = DIRECTION ( 'NONE',  ( -1.000000000000000000, 0.000000000000000000, 0.000000000000000000 ) ) ;
#422 = DIRECTION ( 'NONE',  ( 0.000000000000000000, 0.000000000000000000, 1.000000000000000000 ) ) ;
#423 = VECTOR ( 'NONE', #289, 1000.000000000000000 ) ;
#424 = LINE ( 'NONE', #23, #1022 ) ;
#425 = ORIENTED_EDGE ( 'NONE', *, *, #1178, .F. ) ;
#426 =( LENGTH_UNIT ( ) NAMED_UNIT ( * ) SI_UNIT ( .MILLI., .METRE. ) );
#427 = EDGE_CURVE ( 'NONE', #1066, #538, #865, .T. ) ;
#428 = LINE ( 'NONE', #1211, #288 ) ;
#429 = UNCERTAINTY_MEASURE_WITH_UNIT (LENGTH_MEASURE( 1.000000000000000082E-05 ), #651, 'distance_accuracy_value', 'NONE');
#430 = ORIENTED_EDGE ( 'NONE', *, *, #1062, .F. ) ;
#431 = VERTEX_POINT ( 'NONE', #587 ) ;
#432 = CARTESIAN_POINT ( 'NONE',  ( 3.649999999999999911, 1.199999999999999956, 2.500000000000000000 ) ) ;
#433 = VERTEX_POINT ( 'NONE', #965 ) ;
#434 = FILL_AREA_STYLE ('',( #642 ) ) ;
#435 = CARTESIAN_POINT ( 'NONE',  ( -3.449999999999999734, 0.000000000000000000, 2.000000000000000000 ) ) ;
#436 = ORIENTED_EDGE ( 'NONE', *, *, #1047, .T. ) ;
#437 = CIRCLE ( 'NONE', #702, 0.3601812121596650318 ) ;
#438 = VERTEX_POINT ( 'NONE', #671 ) ;
#439 = CARTESIAN_POINT ( 'NONE',  ( -3.700000000000000178, 1.199999999999999956, 2.500000000000000000 ) ) ;
#440 = EDGE_LOOP ( 'NONE', ( #1099, #830, #128, #332 ) ) ;
#441 = DIRECTION ( 'NONE',  ( 0.000000000000000000, 0.000000000000000000, 1.000000000000000000 ) ) ;
#442 = DIRECTION ( 'NONE',  ( -1.000000000000000000, 0.000000000000000000, 0.000000000000000000 ) ) ;
#443 = EDGE_CURVE ( 'NONE', #998, #614, #853, .T. ) ;
#444 = LINE ( 'NONE', #556, #605 ) ;
#445 = SURFACE_STYLE_FILL_AREA ( #734 ) ;
#446 = AXIS2_PLACEMENT_3D ( 'NONE', #1228, #334, #237 ) ;
#447 = AXIS2_PLACEMENT_3D ( 'NONE', #591, #391, #794 ) ;
#448 = CARTESIAN_POINT ( 'NONE',  ( -3.399999999999999911, 1.199999999999999956, 2.500000000000000000 ) ) ;
#449 = DIRECTION ( 'NONE',  ( 0.000000000000000000, 0.000000000000000000, 1.000000000000000000 ) ) ;
#450 = EDGE_CURVE ( 'NONE', #1254, #1241, #72, .T. ) ;
#451 = DIRECTION ( 'NONE',  ( 0.000000000000000000, 0.000000000000000000, -1.000000000000000000 ) ) ;
#452 = SURFACE_SIDE_STYLE ('',( #1053 ) ) ;
#453 = ORIENTED_EDGE ( 'NONE', *, *, #518, .T. ) ;
#454 = CARTESIAN_POINT ( 'NONE',  ( -2.172382071801252756, 4.410947685843478272E-17, 1.500000000000000000 ) ) ;
#455 = CARTESIAN_POINT ( 'NONE',  ( 3.700000000000000178, 1.199999999999999956, 2.500000000000000000 ) ) ;
#456 = DIRECTION ( 'NONE',  ( -1.000000000000000000, 0.000000000000000000, 0.000000000000000000 ) ) ;
#457 = LINE ( 'NONE', #542, #1116 ) ;
#458 = SURFACE_SIDE_STYLE ('',( #578 ) ) ;
#459 = VECTOR ( 'NONE', #401, 1000.000000000000000 ) ;
#460 = ORIENTED_EDGE ( 'NONE', *, *, #634, .T. ) ;
#461 = ADVANCED_FACE ( 'NONE', ( #780 ), #1057, .T. ) ;
#462 =( NAMED_UNIT ( * ) SI_UNIT ( $, .STERADIAN. ) SOLID_ANGLE_UNIT ( ) );
#463 = DIRECTION ( 'NONE',  ( 0.000000000000000000, 0.000000000000000000, 1.000000000000000000 ) ) ;
#464 = VECTOR ( 'NONE', #1085, 1000.000000000000000 ) ;
#465 = CARTESIAN_POINT ( 'NONE',  ( 0.000000000000000000, 0.000000000000000000, 0.000000000000000000 ) ) ;
#466 = CARTESIAN_POINT ( 'NONE',  ( 3.700000000000000178, -0.4000000000000000222, 1.500000000000000000 ) ) ;
#467 =( NAMED_UNIT ( * ) PLANE_ANGLE_UNIT ( ) SI_UNIT ( $, .RADIAN. ) );
#468 = AXIS2_PLACEMENT_3D ( 'NONE', #786, #955, #83 ) ;
#469 = ORIENTED_EDGE ( 'NONE', *, *, #914, .T. ) ;
#470 = DIRECTION ( 'NONE',  ( 0.000000000000000000, 1.000000000000000000, 0.000000000000000000 ) ) ;
#471 = VECTOR ( 'NONE', #156, 1000.000000000000000 ) ;
#472 = ADVANCED_FACE ( 'NONE', ( #1041 ), #1251, .T. ) ;
#473 = FACE_OUTER_BOUND ( 'NONE', #330, .T. ) ;
#474 = FACE_OUTER_BOUND ( 'NONE', #925, .T. ) ;
#475 = ORIENTED_EDGE ( 'NONE', *, *, #1062, .T. ) ;
#476 = CARTESIAN_POINT ( 'NONE',  ( 3.700000000000000178, 2.000000000000000000, 0.5000000000000000000 ) ) ;
#477 =( LENGTH_UNIT ( ) NAMED_UNIT ( * ) SI_UNIT ( .MILLI., .METRE. ) );
#478 = LINE ( 'NONE', #196, #423 ) ;
#479 = PRODUCT_DEFINITION_SHAPE ( 'NONE', 'NONE',  #1267 ) ;
#480 =( LENGTH_UNIT ( ) NAMED_UNIT ( * ) SI_UNIT ( .MILLI., .METRE. ) );
#481 = EDGE_LOOP ( 'NONE', ( #393, #1149, #551, #1217 ) ) ;
#482 = LINE ( 'NONE', #454, #505 ) ;
#483 = VECTOR ( 'NONE', #343, 1000.000000000000000 ) ;
#484 = DIRECTION ( 'NONE',  ( 0.000000000000000000, -1.000000000000000000, 0.000000000000000000 ) ) ;
#485 =( REPRESENTATION_RELATIONSHIP ('NONE','NONE', #1114, #1257 ) REPRESENTATION_RELATIONSHIP_WITH_TRANSFORMATION ( #1036 )SHAPE_REPRESENTATION_RELATIONSHIP( ) );
#486 = DIRECTION ( 'NONE',  ( 0.000000000000000000, 0.000000000000000000, -1.000000000000000000 ) ) ;
#487 = EDGE_LOOP ( 'NONE', ( #782, #705, #565, #729 ) ) ;
#488 = LINE ( 'NONE', #894, #1152 ) ;
#489 = CARTESIAN_POINT ( 'NONE',  ( -3.399999999999999911, 0.000000000000000000, 2.000000000000000000 ) ) ;
#490 = AXIS2_PLACEMENT_3D ( 'NONE', #362, #1037, #659 ) ;
#491 = PRODUCT ( 'Fuse 508 v1.step', 'Fuse 508 v1.step', '', ( #1239 ) ) ;
#492 = AXIS2_PLACEMENT_3D ( 'NONE', #837, #131, #545 ) ;
#493 = EDGE_LOOP ( 'NONE', ( #795, #1187, #234, #1039 ) ) ;
#494 = DIRECTION ( 'NONE',  ( 0.000000000000000000, 1.000000000000000000, 0.000000000000000000 ) ) ;
#495 = EDGE_CURVE ( 'NONE', #352, #519, #576, .T. ) ;
#496 = VERTEX_POINT ( 'NONE', #878 ) ;
#497 = PLANE ( 'NONE',  #71 ) ;
#498 = DIRECTION ( 'NONE',  ( -1.000000000000000000, 0.000000000000000000, 0.000000000000000000 ) ) ;
#499 = ORIENTED_EDGE ( 'NONE', *, *, #54, .T. ) ;
#500 = DIRECTION ( 'NONE',  ( -1.000000000000000000, 0.000000000000000000, 0.000000000000000000 ) ) ;
#501 = VERTEX_POINT ( 'NONE', #14 ) ;
#502 = DIRECTION ( 'NONE',  ( 0.000000000000000000, 0.000000000000000000, 1.000000000000000000 ) ) ;
#503 = EDGE_CURVE ( 'NONE', #312, #903, #689, .T. ) ;
#504 = CARTESIAN_POINT ( 'NONE',  ( -3.649999999999999911, -1.199999999999999956, 2.500000000000000000 ) ) ;
#505 = VECTOR ( 'NONE', #185, 1000.000000000000000 ) ;
#506 = ORIENTED_EDGE ( 'NONE', *, *, #427, .T. ) ;
#507 = LINE ( 'NONE', #2, #844 ) ;
#508 = DIRECTION ( 'NONE',  ( -1.000000000000000000, 0.000000000000000000, 0.000000000000000000 ) ) ;
#509 = EDGE_CURVE ( 'NONE', #19, #269, #1227, .T. ) ;
#510 = AXIS2_PLACEMENT_3D ( 'NONE', #61, #449, #1232 ) ;
#511 = VECTOR ( 'NONE', #484, 1000.000000000000000 ) ;
#512 = DIRECTION ( 'NONE',  ( 0.000000000000000000, 0.000000000000000000, 1.000000000000000000 ) ) ;
#513 = EDGE_LOOP ( 'NONE', ( #134, #148, #220, #11 ) ) ;
#514 = DIRECTION ( 'NONE',  ( 1.000000000000000000, 0.000000000000000000, 0.000000000000000000 ) ) ;
#515 = LINE ( 'NONE', #408, #670 ) ;
#516 = ORIENTED_EDGE ( 'NONE', *, *, #1169, .F. ) ;
#517 = ADVANCED_FACE ( 'NONE', ( #972 ), #10, .F. ) ;
#518 = EDGE_CURVE ( 'NONE', #37, #155, #976, .T. ) ;
#519 = VERTEX_POINT ( 'NONE', #1184 ) ;
#520 = DIRECTION ( 'NONE',  ( -0.000000000000000000, 1.000000000000000000, 0.000000000000000000 ) ) ;
#521 = LINE ( 'NONE', #219, #1246 ) ;
#522 = ORIENTED_EDGE ( 'NONE', *, *, #1082, .F. ) ;
#523 = VECTOR ( 'NONE', #1214, 1000.000000000000000 ) ;
#524 = ADVANCED_FACE ( 'NONE', ( #1080 ), #1189, .F. ) ;
#525 = EDGE_LOOP ( 'NONE', ( #47, #1127, #1111, #618 ) ) ;
#526 = CARTESIAN_POINT ( 'NONE',  ( -3.700000000000000178, -1.199999999999999956, 1.000000000000000000 ) ) ;
#527 = FACE_OUTER_BOUND ( 'NONE', #946, .T. ) ;
#528 = CARTESIAN_POINT ( 'NONE',  ( -3.700000000000000178, 2.000000000000000000, 0.5000000000000000000 ) ) ;
#529 = ORIENTED_EDGE ( 'NONE', *, *, #96, .T. ) ;
#530 = PRESENTATION_LAYER_ASSIGNMENT (  '', '', ( #712 ) ) ;
#531 = CLOSED_SHELL ( 'NONE', ( #378, #145, #1145, #62, #409, #967 ) ) ;
#532 = DIRECTION ( 'NONE',  ( 0.000000000000000000, 0.000000000000000000, 1.000000000000000000 ) ) ;
#533 = ORIENTED_EDGE ( 'NONE', *, *, #667, .T. ) ;
#534 = PRODUCT_DEFINITION ( 'UNKNOWN', '', #966, #187 ) ;
#535 = CARTESIAN_POINT ( 'NONE',  ( -3.649999999999999911, -1.199999999999999956, 1.500000000000000000 ) ) ;
#536 = LINE ( 'NONE', #353, #714 ) ;
#537 = ORIENTED_EDGE ( 'NONE', *, *, #731, .T. ) ;
#538 = VERTEX_POINT ( 'NONE', #895 ) ;
#539 = CARTESIAN_POINT ( 'NONE',  ( 2.171235777252848109, 0.000000000000000000, 0.000000000000000000 ) ) ;
#540 = EDGE_CURVE ( 'NONE', #903, #65, #785, .T. ) ;
#541 = SHAPE_DEFINITION_REPRESENTATION ( #94, #1257 ) ;
#542 = CARTESIAN_POINT ( 'NONE',  ( -1.750000000000000000, 1.750000000000000000, 0.000000000000000000 ) ) ;
#543 = DIRECTION ( 'NONE',  ( -0.000000000000000000, 1.000000000000000000, 0.000000000000000000 ) ) ;
#544 = PRESENTATION_LAYER_ASSIGNMENT (  '', '', ( #106 ) ) ;
#545 = DIRECTION ( 'NONE',  ( -1.000000000000000000, 0.000000000000000000, 0.000000000000000000 ) ) ;
#546 = PLANE ( 'NONE',  #510 ) ;
#547 = EDGE_CURVE ( 'NONE', #411, #501, #885, .T. ) ;
#548 = DIRECTION ( 'NONE',  ( 0.000000000000000000, 0.000000000000000000, -1.000000000000000000 ) ) ;
#549 = VECTOR ( 'NONE', #637, 1000.000000000000000 ) ;
#550 = VECTOR ( 'NONE', #303, 1000.000000000000000 ) ;
#551 = ORIENTED_EDGE ( 'NONE', *, *, #547, .T. ) ;
#552 = DIRECTION ( 'NONE',  ( 0.000000000000000000, -1.000000000000000000, 0.000000000000000000 ) ) ;
#553 = FACE_OUTER_BOUND ( 'NONE', #604, .T. ) ;
#554 = EDGE_CURVE ( 'NONE', #1087, #787, #203, .T. ) ;
#555 = DIRECTION ( 'NONE',  ( 1.000000000000000000, 0.000000000000000000, 0.000000000000000000 ) ) ;
#556 = CARTESIAN_POINT ( 'NONE',  ( -3.700000000000000178, 2.000000000000000000, 0.5000000000000000000 ) ) ;
#557 = PRESENTATION_STYLE_ASSIGNMENT (( #1032 ) ) ;
#558 = EDGE_LOOP ( 'NONE', ( #622, #1155, #222, #97 ) ) ;
#559 =( NAMED_UNIT ( * ) PLANE_ANGLE_UNIT ( ) SI_UNIT ( $, .RADIAN. ) );
#560 = APPLICATION_PROTOCOL_DEFINITION ( 'draft international standard', 'automotive_design', 1998, #567 ) ;
#561 = CARTESIAN_POINT ( 'NONE',  ( -2.532563283960918010, 0.000000000000000000, 1.500000000000000000 ) ) ;
#562 = EDGE_CURVE ( 'NONE', #191, #1241, #26, .T. ) ;
#563 = SHAPE_REPRESENTATION ( 'Fuse 508 v2', ( #380, #91, #601 ), #1177 ) ;
#564 = VECTOR ( 'NONE', #694, 1000.000000000000000 ) ;
#565 = ORIENTED_EDGE ( 'NONE', *, *, #1229, .F. ) ;
#566 = DIRECTION ( 'NONE',  ( 0.000000000000000000, 0.000000000000000000, -1.000000000000000000 ) ) ;
#567 = APPLICATION_CONTEXT ( 'automotive_design' ) ;
#568 = CARTESIAN_POINT ( 'NONE',  ( -3.649999999999999911, 1.199999999999999956, 2.500000000000000000 ) ) ;
#569 = PRODUCT_DEFINITION_CONTEXT ( 'detailed design', #262, 'design' ) ;
#570 = CARTESIAN_POINT ( 'NONE',  ( 3.649999999999999911, 1.199999999999999956, 2.500000000000000000 ) ) ;
#571 = LINE ( 'NONE', #753, #257 ) ;
#572 = VECTOR ( 'NONE', #1153, 1000.000000000000000 ) ;
#573 = ORIENTED_EDGE ( 'NONE', *, *, #840, .F. ) ;
#574 = CARTESIAN_POINT ( 'NONE',  ( 3.649999999999999911, 1.199999999999999956, 1.500000000000000000 ) ) ;
#575 = AXIS2_PLACEMENT_3D ( 'NONE', #701, #695, #596 ) ;
#576 = LINE ( 'NONE', #86, #511 ) ;
#577 = CARTESIAN_POINT ( 'NONE',  ( 2.171235777252848109, 0.000000000000000000, 1.500000000000000000 ) ) ;
#578 = SURFACE_STYLE_FILL_AREA ( #1038 ) ;
#579 = ORIENTED_EDGE ( 'NONE', *, *, #562, .F. ) ;
#580 = FACE_OUTER_BOUND ( 'NONE', #525, .T. ) ;
#581 = DIRECTION ( 'NONE',  ( 1.000000000000000000, 0.000000000000000000, 0.000000000000000000 ) ) ;
#582 = ADVANCED_FACE ( 'NONE', ( #397, #789 ), #1176, .T. ) ;
#583 = CARTESIAN_POINT ( 'NONE',  ( -3.399999999999999911, -1.199999999999999956, 2.500000000000000000 ) ) ;
#584 = PRODUCT ( 'Fuse 508 v2', 'Fuse 508 v2', '', ( #931 ) ) ;
#585 = CARTESIAN_POINT ( 'NONE',  ( 3.700000000000000178, -2.000000000000000000, 0.5000000000000000000 ) ) ;
#586 = MECHANICAL_DESIGN_GEOMETRIC_PRESENTATION_REPRESENTATION (  '', ( #804 ), #704 ) ;
#587 = CARTESIAN_POINT ( 'NONE',  ( 1.750000000000000000, -1.750000000000000000, 0.000000000000000000 ) ) ;
#588 = CARTESIAN_POINT ( 'NONE',  ( 1.750000000000000000, 1.750000000000000000, 0.000000000000000000 ) ) ;
#589 = ORIENTED_EDGE ( 'NONE', *, *, #652, .T. ) ;
#590 = DIRECTION ( 'NONE',  ( 0.000000000000000000, -1.000000000000000000, 0.000000000000000000 ) ) ;
#591 = CARTESIAN_POINT ( 'NONE',  ( 2.532563283960918010, 0.000000000000000000, 1.500000000000000000 ) ) ;
#592 = PRODUCT_DEFINITION ( 'UNKNOWN', '', #1263, #569 ) ;
#593 = LINE ( 'NONE', #973, #888 ) ;
#594 = ORIENTED_EDGE ( 'NONE', *, *, #229, .F. ) ;
#595 = PLANE ( 'NONE',  #126 ) ;
#596 = DIRECTION ( 'NONE',  ( 0.000000000000000000, 0.000000000000000000, -1.000000000000000000 ) ) ;
#597 = EDGE_LOOP ( 'NONE', ( #254, #821, #1090, #204 ) ) ;
#598 = EDGE_CURVE ( 'NONE', #917, #977, #515, .T. ) ;
#599 = CARTESIAN_POINT ( 'NONE',  ( 3.700000000000000178, -2.000000000000000000, 0.5000000000000000000 ) ) ;
#600 = CARTESIAN_POINT ( 'NONE',  ( -3.449999999999999734, 1.199999999999999956, 2.500000000000000000 ) ) ;
#601 = AXIS2_PLACEMENT_3D ( 'NONE', #1023, #66, #456 ) ;
#602 = DIRECTION ( 'NONE',  ( 0.000000000000000000, 0.000000000000000000, -1.000000000000000000 ) ) ;
#603 = DIRECTION ( 'NONE',  ( 1.000000000000000000, 0.000000000000000000, 0.000000000000000000 ) ) ;
#604 = EDGE_LOOP ( 'NONE', ( #102, #899, #121, #696 ) ) ;
#605 = VECTOR ( 'NONE', #67, 1000.000000000000000 ) ;
#606 = VECTOR ( 'NONE', #146, 1000.000000000000000 ) ;
#607 =( NAMED_UNIT ( * ) PLANE_ANGLE_UNIT ( ) SI_UNIT ( $, .RADIAN. ) );
#608 = ORIENTED_EDGE ( 'NONE', *, *, #598, .T. ) ;
#609 = DIRECTION ( 'NONE',  ( -1.000000000000000000, 0.000000000000000000, 0.000000000000000000 ) ) ;
#610 = ORIENTED_EDGE ( 'NONE', *, *, #1019, .F. ) ;
#611 = DIRECTION ( 'NONE',  ( 0.000000000000000000, 0.000000000000000000, -1.000000000000000000 ) ) ;
#612 = CARTESIAN_POINT ( 'NONE',  ( 3.449999999999999734, 1.199999999999999956, 1.500000000000000000 ) ) ;
#613 = EDGE_CURVE ( 'NONE', #312, #184, #210, .T. ) ;
#614 = VERTEX_POINT ( 'NONE', #798 ) ;
#615 = FACE_OUTER_BOUND ( 'NONE', #51, .T. ) ;
#616 = EDGE_LOOP ( 'NONE', ( #358, #143, #294, #767 ) ) ;
#617 = DIRECTION ( 'NONE',  ( -0.000000000000000000, -0.000000000000000000, -1.000000000000000000 ) ) ;
#618 = ORIENTED_EDGE ( 'NONE', *, *, #739, .F. ) ;
#619 = DIRECTION ( 'NONE',  ( 1.000000000000000000, 0.000000000000000000, 0.000000000000000000 ) ) ;
#620 = ORIENTED_EDGE ( 'NONE', *, *, #1003, .T. ) ;
#621 = LINE ( 'NONE', #250, #213 ) ;
#622 = ORIENTED_EDGE ( 'NONE', *, *, #937, .T. ) ;
#623 = AXIS2_PLACEMENT_3D ( 'NONE', #836, #1230, #252 ) ;
#624 = AXIS2_PLACEMENT_3D ( 'NONE', #1123, #441, #818 ) ;
#625 = DIRECTION ( 'NONE',  ( 0.000000000000000000, 0.000000000000000000, 1.000000000000000000 ) ) ;
#626 = ORIENTED_EDGE ( 'NONE', *, *, #817, .T. ) ;
#627 = CARTESIAN_POINT ( 'NONE',  ( 3.700000000000000178, 2.000000000000000000, 8.300000000000000711 ) ) ;
#628 = EDGE_CURVE ( 'NONE', #1066, #395, #413, .T. ) ;
#629 = SURFACE_STYLE_USAGE ( .BOTH. , #736 ) ;
#630 = DIRECTION ( 'NONE',  ( 0.000000000000000000, 0.000000000000000000, 1.000000000000000000 ) ) ;
#631 = DIRECTION ( 'NONE',  ( 0.000000000000000000, 0.000000000000000000, 1.000000000000000000 ) ) ;
#632 = ORIENTED_EDGE ( 'NONE', *, *, #1186, .F. ) ;
#633 = DIRECTION ( 'NONE',  ( 0.000000000000000000, -1.000000000000000000, 0.000000000000000000 ) ) ;
#634 = EDGE_CURVE ( 'NONE', #69, #312, #986, .T. ) ;
#635 = ORIENTED_EDGE ( 'NONE', *, *, #613, .F. ) ;
#636 = CARTESIAN_POINT ( 'NONE',  ( 3.649999999999999911, 1.199999999999999956, 1.500000000000000000 ) ) ;
#637 = DIRECTION ( 'NONE',  ( 0.000000000000000000, -1.000000000000000000, 0.000000000000000000 ) ) ;
#638 = VECTOR ( 'NONE', #633, 1000.000000000000000 ) ;
#639 = DIRECTION ( 'NONE',  ( 0.000000000000000000, -1.000000000000000000, 0.000000000000000000 ) ) ;
#640 = CIRCLE ( 'NONE', #863, 0.3601812121596650318 ) ;
#641 = ORIENTED_EDGE ( 'NONE', *, *, #554, .F. ) ;
#642 = FILL_AREA_STYLE_COLOUR ( '', #650 ) ;
#643 = EDGE_CURVE ( 'NONE', #655, #284, #682, .T. ) ;
#644 = LINE ( 'NONE', #1001, #17 ) ;
#645 = EDGE_CURVE ( 'NONE', #655, #879, #1095, .T. ) ;
#646 = APPLICATION_PROTOCOL_DEFINITION ( 'draft international standard', 'automotive_design', 1998, #40 ) ;
#647 = EDGE_LOOP ( 'NONE', ( #3, #1182 ) ) ;
#648 = DIRECTION ( 'NONE',  ( 0.000000000000000000, -1.000000000000000000, 0.000000000000000000 ) ) ;
#649 = AXIS2_PLACEMENT_3D ( 'NONE', #570, #349, #268 ) ;
#650 = COLOUR_RGB ( '',0.7921568627450980005, 0.8196078431372548767, 0.9333333333333333481 ) ;
#651 =( LENGTH_UNIT ( ) NAMED_UNIT ( * ) SI_UNIT ( .MILLI., .METRE. ) );
#652 = EDGE_CURVE ( 'NONE', #969, #538, #122, .T. ) ;
#653 = CONTEXT_DEPENDENT_SHAPE_REPRESENTATION ( #407, #479 ) ;
#654 = CARTESIAN_POINT ( 'NONE',  ( 3.399999999999999911, 1.199999999999999956, 1.500000000000000000 ) ) ;
#655 = VERTEX_POINT ( 'NONE', #1219 ) ;
#656 = CARTESIAN_POINT ( 'NONE',  ( -3.700000000000000178, 1.199999999999999956, 1.500000000000000000 ) ) ;
#657 = CARTESIAN_POINT ( 'NONE',  ( 3.700000000000000178, 2.000000000000000000, 0.5000000000000000000 ) ) ;
#658 = PRODUCT_DEFINITION_SHAPE ( 'NONE', 'NONE',  #1268 ) ;
#659 = DIRECTION ( 'NONE',  ( 1.000000000000000000, 0.000000000000000000, 0.000000000000000000 ) ) ;
#660 = FILL_AREA_STYLE_COLOUR ( '', #963 ) ;
#661 = ORIENTED_EDGE ( 'NONE', *, *, #683, .F. ) ;
#662 = PLANE ( 'NONE',  #922 ) ;
#663 = FILL_AREA_STYLE ('',( #377 ) ) ;
#664 = DIRECTION ( 'NONE',  ( -1.000000000000000000, 0.000000000000000000, 0.000000000000000000 ) ) ;
#665 = CLOSED_SHELL ( 'NONE', ( #692, #720, #116, #784 ) ) ;
#666 = ORIENTED_EDGE ( 'NONE', *, *, #868, .F. ) ;
#667 = EDGE_CURVE ( 'NONE', #165, #184, #742, .T. ) ;
#668 = DIRECTION ( 'NONE',  ( -0.000000000000000000, 1.000000000000000000, 0.000000000000000000 ) ) ;
#669 = PRODUCT_DEFINITION_SHAPE ( 'NONE', 'NONE',  #22 ) ;
#670 = VECTOR ( 'NONE', #1170, 1000.000000000000000 ) ;
#671 = CARTESIAN_POINT ( 'NONE',  ( 3.399999999999999911, 1.199999999999999956, 1.500000000000000000 ) ) ;
#672 = CARTESIAN_POINT ( 'NONE',  ( 3.399999999999999911, 0.000000000000000000, 2.000000000000000000 ) ) ;
#673 = CARTESIAN_POINT ( 'NONE',  ( 3.649999999999999911, -1.199999999999999956, 1.500000000000000000 ) ) ;
#674 = ADVANCED_FACE ( 'NONE', ( #1026 ), #38, .T. ) ;
#675 = PLANE ( 'NONE',  #366 ) ;
#676 = UNCERTAINTY_MEASURE_WITH_UNIT (LENGTH_MEASURE( 1.000000000000000082E-05 ), #904, 'distance_accuracy_value', 'NONE');
#677 = PRODUCT_DEFINITION_SHAPE ( 'NONE', 'NONE',  #592 ) ;
#678 = EDGE_LOOP ( 'NONE', ( #740, #1213, #142, #1193 ) ) ;
#679 = CARTESIAN_POINT ( 'NONE',  ( 3.649999999999999911, 1.199999999999999956, 2.500000000000000000 ) ) ;
#680 = VECTOR ( 'NONE', #778, 1000.000000000000000 ) ;
#681 = AXIS2_PLACEMENT_3D ( 'NONE', #417, #221, #715 ) ;
#682 = LINE ( 'NONE', #320, #323 ) ;
#683 = EDGE_CURVE ( 'NONE', #284, #896, #536, .T. ) ;
#684 = ADVANCED_FACE ( 'NONE', ( #527 ), #1110, .T. ) ;
#685 = DIRECTION ( 'NONE',  ( 0.000000000000000000, 1.000000000000000000, 0.000000000000000000 ) ) ;
#686 = VERTEX_POINT ( 'NONE', #539 ) ;
#687 = PLANE ( 'NONE',  #297 ) ;
#688 = VECTOR ( 'NONE', #163, 1000.000000000000000 ) ;
#689 = LINE ( 'NONE', #1075, #1117 ) ;
#690 = VECTOR ( 'NONE', #1196, 1000.000000000000000 ) ;
#691 = ORIENTED_EDGE ( 'NONE', *, *, #420, .T. ) ;
#692 = ADVANCED_FACE ( 'NONE', ( #150 ), #225, .T. ) ;
#693 = ORIENTED_EDGE ( 'NONE', *, *, #907, .F. ) ;
#694 = DIRECTION ( 'NONE',  ( 0.000000000000000000, 1.000000000000000000, 0.000000000000000000 ) ) ;
#695 = DIRECTION ( 'NONE',  ( 0.000000000000000000, -1.000000000000000000, 0.000000000000000000 ) ) ;
#696 = ORIENTED_EDGE ( 'NONE', *, *, #82, .F. ) ;
#697 = PRODUCT_RELATED_PRODUCT_CATEGORY ( 'part', '', ( #971 ) ) ;
#698 = DIRECTION ( 'NONE',  ( 0.000000000000000000, 0.000000000000000000, -1.000000000000000000 ) ) ;
#699 = ORIENTED_EDGE ( 'NONE', *, *, #540, .F. ) ;
#700 = CARTESIAN_POINT ( 'NONE',  ( -3.700000000000000178, -2.000000000000000000, 0.5000000000000000000 ) ) ;
#701 = CARTESIAN_POINT ( 'NONE',  ( 3.700000000000000178, -1.199999999999999956, 1.500000000000000000 ) ) ;
#702 = AXIS2_PLACEMENT_3D ( 'NONE', #419, #214, #232 ) ;
#703 = ORIENTED_EDGE ( 'NONE', *, *, #1266, .F. ) ;
#704 =( GEOMETRIC_REPRESENTATION_CONTEXT ( 3 ) GLOBAL_UNCERTAINTY_ASSIGNED_CONTEXT ( ( #1197 ) ) GLOBAL_UNIT_ASSIGNED_CONTEXT ( ( #426, #1201, #1225 ) ) REPRESENTATION_CONTEXT ( 'NONE', 'WORKASPACE' ) );
#705 = ORIENTED_EDGE ( 'NONE', *, *, #643, .T. ) ;
#706 = ORIENTED_EDGE ( 'NONE', *, *, #518, .F. ) ;
#707 = DIRECTION ( 'NONE',  ( 0.000000000000000000, 0.000000000000000000, -1.000000000000000000 ) ) ;
#708 = ADVANCED_FACE ( 'NONE', ( #333 ), #1018, .T. ) ;
#709 = ORIENTED_EDGE ( 'NONE', *, *, #45, .F. ) ;
#710 = DIRECTION ( 'NONE',  ( -1.000000000000000000, 0.000000000000000000, 0.000000000000000000 ) ) ;
#711 = UNCERTAINTY_MEASURE_WITH_UNIT (LENGTH_MEASURE( 1.000000000000000082E-05 ), #381, 'distance_accuracy_value', 'NONE');
#712 = STYLED_ITEM ( 'NONE', ( #175 ), #372 ) ;
#713 = CARTESIAN_POINT ( 'NONE',  ( -3.700000000000000178, 0.4000000000000000222, 2.500000000000000000 ) ) ;
#714 = VECTOR ( 'NONE', #1102, 1000.000000000000000 ) ;
#715 = DIRECTION ( 'NONE',  ( 1.000000000000000000, 0.000000000000000000, 0.000000000000000000 ) ) ;
#716 = ORIENTED_EDGE ( 'NONE', *, *, #645, .T. ) ;
#717 = CARTESIAN_POINT ( 'NONE',  ( 1.750000000000000000, -1.750000000000000000, 0.000000000000000000 ) ) ;
#718 = ORIENTED_EDGE ( 'NONE', *, *, #914, .F. ) ;
#719 = DIRECTION ( 'NONE',  ( 0.000000000000000000, 0.000000000000000000, 1.000000000000000000 ) ) ;
#720 = ADVANCED_FACE ( 'NONE', ( #31 ), #346, .T. ) ;
#721 = CARTESIAN_POINT ( 'NONE',  ( -3.700000000000000178, 2.000000000000000000, 0.5000000000000000000 ) ) ;
#722 = EDGE_LOOP ( 'NONE', ( #30, #469, #7, #579 ) ) ;
#723 =( NAMED_UNIT ( * ) SI_UNIT ( $, .STERADIAN. ) SOLID_ANGLE_UNIT ( ) );
#724 = EDGE_LOOP ( 'NONE', ( #123, #506, #24, #231 ) ) ;
#725 = CARTESIAN_POINT ( 'NONE',  ( -3.449999999999999734, -1.199999999999999956, 2.500000000000000000 ) ) ;
#726 = PLANE ( 'NONE',  #60 ) ;
#727 = PRODUCT_RELATED_PRODUCT_CATEGORY ( 'part', '', ( #1063 ) ) ;
#728 = FACE_BOUND ( 'NONE', #1190, .T. ) ;
#729 = ORIENTED_EDGE ( 'NONE', *, *, #1260, .F. ) ;
#730 = VECTOR ( 'NONE', #50, 1000.000000000000000 ) ;
#731 = EDGE_CURVE ( 'NONE', #215, #117, #428, .T. ) ;
#732 = DIRECTION ( 'NONE',  ( 1.000000000000000000, 0.000000000000000000, 0.000000000000000000 ) ) ;
#733 = ORIENTED_EDGE ( 'NONE', *, *, #980, .T. ) ;
#734 = FILL_AREA_STYLE ('',( #144 ) ) ;
#735 = ORIENTED_EDGE ( 'NONE', *, *, #891, .T. ) ;
#736 = SURFACE_SIDE_STYLE ('',( #826 ) ) ;
#737 = VECTOR ( 'NONE', #494, 1000.000000000000000 ) ;
#738 = VECTOR ( 'NONE', #993, 1000.000000000000000 ) ;
#739 = EDGE_CURVE ( 'NONE', #1167, #787, #909, .T. ) ;
#740 = ORIENTED_EDGE ( 'NONE', *, *, #897, .F. ) ;
#741 = PLANE ( 'NONE',  #149 ) ;
#742 = LINE ( 'NONE', #448, #890 ) ;
#743 = LINE ( 'NONE', #259, #549 ) ;
#744 = ITEM_DEFINED_TRANSFORMATION ( 'NONE', 'NONE', #91,  #1238 ) ;
#745 = CARTESIAN_POINT ( 'NONE',  ( -3.700000000000000178, -2.000000000000000000, 0.5000000000000000000 ) ) ;
#746 = PRODUCT_RELATED_PRODUCT_CATEGORY ( 'part', '', ( #584 ) ) ;
#747 = LINE ( 'NONE', #627, #730 ) ;
#748 = VERTEX_POINT ( 'NONE', #244 ) ;
#749 = LINE ( 'NONE', #339, #345 ) ;
#750 = CARTESIAN_POINT ( 'NONE',  ( -3.449999999999999734, 1.199999999999999956, 1.500000000000000000 ) ) ;
#751 =( NAMED_UNIT ( * ) SI_UNIT ( $, .STERADIAN. ) SOLID_ANGLE_UNIT ( ) );
#752 = PLANE ( 'NONE',  #649 ) ;
#753 = CARTESIAN_POINT ( 'NONE',  ( 3.449999999999999734, -1.199999999999999956, 1.500000000000000000 ) ) ;
#754 = STYLED_ITEM ( 'NONE', ( #933 ), #1202 ) ;
#755 = ORIENTED_EDGE ( 'NONE', *, *, #1028, .F. ) ;
#756 = DIRECTION ( 'NONE',  ( 0.000000000000000000, 0.000000000000000000, -1.000000000000000000 ) ) ;
#757 = CARTESIAN_POINT ( 'NONE',  ( 2.532563283960918010, 0.000000000000000000, 0.000000000000000000 ) ) ;
#758 = DIRECTION ( 'NONE',  ( 0.000000000000000000, 0.000000000000000000, 1.000000000000000000 ) ) ;
#759 = PLANE ( 'NONE',  #928 ) ;
#760 = CARTESIAN_POINT ( 'NONE',  ( -2.892744496120582820, 0.000000000000000000, 1.500000000000000000 ) ) ;
#761 = CIRCLE ( 'NONE', #194, 0.3613275067080698455 ) ;
#762 = ORIENTED_EDGE ( 'NONE', *, *, #790, .T. ) ;
#763 = PLANE ( 'NONE',  #1258 ) ;
#764 = CARTESIAN_POINT ( 'NONE',  ( -1.750000000000000000, 1.750000000000000000, 0.000000000000000000 ) ) ;
#765 = APPLICATION_PROTOCOL_DEFINITION ( 'draft international standard', 'automotive_design', 1998, #1079 ) ;
#766 = CARTESIAN_POINT ( 'NONE',  ( 3.700000000000000178, 1.199999999999999956, 1.500000000000000000 ) ) ;
#767 = ORIENTED_EDGE ( 'NONE', *, *, #731, .F. ) ;
#768 = DIRECTION ( 'NONE',  ( 0.000000000000000000, -1.000000000000000000, 0.000000000000000000 ) ) ;
#769 = EDGE_CURVE ( 'NONE', #856, #801, #812, .T. ) ;
#770 = CARTESIAN_POINT ( 'NONE',  ( -3.700000000000000178, 1.199999999999999956, 1.500000000000000000 ) ) ;
#771 = VECTOR ( 'NONE', #609, 1000.000000000000000 ) ;
#772 = AXIS2_PLACEMENT_3D ( 'NONE', #41, #625, #898 ) ;
#773 = CARTESIAN_POINT ( 'NONE',  ( -3.700000000000000178, 2.000000000000000000, 8.300000000000000711 ) ) ;
#774 = CARTESIAN_POINT ( 'NONE',  ( -3.399999999999999911, 1.199999999999999956, 2.500000000000000000 ) ) ;
#775 = EDGE_CURVE ( 'NONE', #438, #1059, #749, .T. ) ;
#776 = VECTOR ( 'NONE', #685, 1000.000000000000000 ) ;
#777 = ORIENTED_EDGE ( 'NONE', *, *, #769, .T. ) ;
#778 = DIRECTION ( 'NONE',  ( 0.000000000000000000, 0.000000000000000000, 1.000000000000000000 ) ) ;
#779 = AXIS2_PLACEMENT_3D ( 'NONE', #636, #1000, #552 ) ;
#780 = FACE_OUTER_BOUND ( 'NONE', #597, .T. ) ;
#781 = DIRECTION ( 'NONE',  ( -0.000000000000000000, -0.000000000000000000, -1.000000000000000000 ) ) ;
#782 = ORIENTED_EDGE ( 'NONE', *, *, #645, .F. ) ;
#783 = LINE ( 'NONE', #406, #942 ) ;
#784 = ADVANCED_FACE ( 'NONE', ( #1128 ), #726, .F. ) ;
#785 = LINE ( 'NONE', #504, #815 ) ;
#786 = CARTESIAN_POINT ( 'NONE',  ( -1.750000000000000000, -1.750000000000000000, 0.000000000000000000 ) ) ;
#787 = VERTEX_POINT ( 'NONE', #256 ) ;
#788 = DIRECTION ( 'NONE',  ( 1.000000000000000000, 0.000000000000000000, 0.000000000000000000 ) ) ;
#789 = FACE_OUTER_BOUND ( 'NONE', #678, .T. ) ;
#790 = EDGE_CURVE ( 'NONE', #748, #117, #621, .T. ) ;
#791 = EDGE_LOOP ( 'NONE', ( #919, #796, #300, #594 ) ) ;
#792 = DIRECTION ( 'NONE',  ( -1.000000000000000000, 0.000000000000000000, 0.000000000000000000 ) ) ;
#793 = AXIS2_PLACEMENT_3D ( 'NONE', #528, #921, #630 ) ;
#794 = DIRECTION ( 'NONE',  ( 1.000000000000000000, 0.000000000000000000, 0.000000000000000000 ) ) ;
#795 = ORIENTED_EDGE ( 'NONE', *, *, #267, .T. ) ;
#796 = ORIENTED_EDGE ( 'NONE', *, *, #1222, .F. ) ;
#797 = CARTESIAN_POINT ( 'NONE',  ( 3.700000000000000178, -1.199999999999999956, 1.500000000000000000 ) ) ;
#798 = CARTESIAN_POINT ( 'NONE',  ( -3.700000000000000178, 2.000000000000000000, 0.5000000000000000000 ) ) ;
#799 = MANIFOLD_SOLID_BREP ( 'Fuse 508 v1.step<1>[5]', #1071 ) ;
#800 = EDGE_CURVE ( 'NONE', #1249, #1215, #306, .T. ) ;
#801 = VERTEX_POINT ( 'NONE', #773 ) ;
#802 = CARTESIAN_POINT ( 'NONE',  ( 3.399999999999999911, -1.199999999999999956, 1.500000000000000000 ) ) ;
#803 = DIRECTION ( 'NONE',  ( 0.000000000000000000, 0.000000000000000000, -1.000000000000000000 ) ) ;
#804 = STYLED_ITEM ( 'NONE', ( #120 ), #1195 ) ;
#805 = CARTESIAN_POINT ( 'NONE',  ( 2.893890790668987911, 4.424985745339313527E-17, 1.500000000000000000 ) ) ;
#806 = COLOUR_RGB ( '',0.7921568627450980005, 0.8196078431372548767, 0.9333333333333333481 ) ;
#807 = FACE_OUTER_BOUND ( 'NONE', #952, .T. ) ;
#808 = EDGE_LOOP ( 'NONE', ( #418, #1210, #197, #46 ) ) ;
#809 = EDGE_CURVE ( 'NONE', #1, #856, #70, .T. ) ;
#810 = LINE ( 'NONE', #526, #1042 ) ;
#811 = EDGE_LOOP ( 'NONE', ( #699, #1045, #1191, #89 ) ) ;
#812 = LINE ( 'NONE', #1231, #606 ) ;
#813 = VECTOR ( 'NONE', #442, 1000.000000000000000 ) ;
#814 = CARTESIAN_POINT ( 'NONE',  ( 2.893890790668987911, 4.424985745339311678E-17, 0.000000000000000000 ) ) ;
#815 = VECTOR ( 'NONE', #803, 1000.000000000000000 ) ;
#816 = CARTESIAN_POINT ( 'NONE',  ( -1.750000000000000000, 1.750000000000000000, 0.000000000000000000 ) ) ;
#817 = EDGE_CURVE ( 'NONE', #263, #686, #1021, .T. ) ;
#818 = DIRECTION ( 'NONE',  ( 1.000000000000000000, 0.000000000000000000, 0.000000000000000000 ) ) ;
#819 = ADVANCED_FACE ( 'NONE', ( #365 ), #662, .T. ) ;
#820 = DIRECTION ( 'NONE',  ( -0.000000000000000000, 1.000000000000000000, 0.000000000000000000 ) ) ;
#821 = ORIENTED_EDGE ( 'NONE', *, *, #28, .T. ) ;
#822 = SHAPE_REPRESENTATION ( 'Part7^Fuse 508 v1', ( #1131 ), #1157 ) ;
#823 = SHAPE_REPRESENTATION_RELATIONSHIP ( 'NONE' , 'NONE' ,  #1257, #277 ) ;
#824 = CARTESIAN_POINT ( 'NONE',  ( 1.750000000000000000, 1.750000000000000000, 0.000000000000000000 ) ) ;
#825 = EDGE_LOOP ( 'NONE', ( #940, #608, #1234, #841 ) ) ;
#826 = SURFACE_STYLE_FILL_AREA ( #434 ) ;
#827 = ADVANCED_FACE ( 'NONE', ( #1049 ), #763, .F. ) ;
#828 = ORIENTED_EDGE ( 'NONE', *, *, #613, .T. ) ;
#829 =( GEOMETRIC_REPRESENTATION_CONTEXT ( 3 ) GLOBAL_UNCERTAINTY_ASSIGNED_CONTEXT ( ( #218 ) ) GLOBAL_UNIT_ASSIGNED_CONTEXT ( ( #480, #467, #855 ) ) REPRESENTATION_CONTEXT ( 'NONE', 'WORKASPACE' ) );
#830 = ORIENTED_EDGE ( 'NONE', *, *, #125, .F. ) ;
#831 = SURFACE_STYLE_USAGE ( .BOTH. , #248 ) ;
#832 = ORIENTED_EDGE ( 'NONE', *, *, #1163, .F. ) ;
#833 = CARTESIAN_POINT ( 'NONE',  ( -2.532563283960918010, 0.000000000000000000, 0.000000000000000000 ) ) ;
#834 = DIRECTION ( 'NONE',  ( 1.000000000000000000, 0.000000000000000000, 0.000000000000000000 ) ) ;
#835 = VECTOR ( 'NONE', #1198, 1000.000000000000000 ) ;
#836 = CARTESIAN_POINT ( 'NONE',  ( -2.532563283960918010, 0.000000000000000000, 1.500000000000000000 ) ) ;
#837 = CARTESIAN_POINT ( 'NONE',  ( 2.532563283960918010, 0.000000000000000000, 1.500000000000000000 ) ) ;
#838 = DIRECTION ( 'NONE',  ( 1.000000000000000000, 0.000000000000000000, 0.000000000000000000 ) ) ;
#839 = FACE_OUTER_BOUND ( 'NONE', #493, .T. ) ;
#840 = EDGE_CURVE ( 'NONE', #1249, #848, #482, .T. ) ;
#841 = ORIENTED_EDGE ( 'NONE', *, *, #189, .F. ) ;
#842 = FACE_OUTER_BOUND ( 'NONE', #996, .T. ) ;
#843 = DIRECTION ( 'NONE',  ( 0.000000000000000000, 0.000000000000000000, 1.000000000000000000 ) ) ;
#844 = VECTOR ( 'NONE', #514, 1000.000000000000000 ) ;
#845 = APPLICATION_PROTOCOL_DEFINITION ( 'draft international standard', 'automotive_design', 1998, #1244 ) ;
#846 = DIRECTION ( 'NONE',  ( 1.000000000000000000, 0.000000000000000000, 0.000000000000000000 ) ) ;
#847 = SURFACE_STYLE_USAGE ( .BOTH. , #458 ) ;
#848 = VERTEX_POINT ( 'NONE', #1060 ) ;
#849 = DIRECTION ( 'NONE',  ( 1.000000000000000000, 0.000000000000000000, 0.000000000000000000 ) ) ;
#850 = CARTESIAN_POINT ( 'NONE',  ( 3.700000000000000178, 2.000000000000000000, 0.5000000000000000000 ) ) ;
#851 = ORIENTED_EDGE ( 'NONE', *, *, #258, .F. ) ;
#852 = PLANE ( 'NONE',  #1237 ) ;
#853 = LINE ( 'NONE', #872, #305 ) ;
#854 = DIRECTION ( 'NONE',  ( 1.000000000000000000, 0.000000000000000000, 0.000000000000000000 ) ) ;
#855 =( NAMED_UNIT ( * ) SI_UNIT ( $, .STERADIAN. ) SOLID_ANGLE_UNIT ( ) );
#856 = VERTEX_POINT ( 'NONE', #864 ) ;
#857 = CARTESIAN_POINT ( 'NONE',  ( -3.649999999999999911, -1.199999999999999956, 2.500000000000000000 ) ) ;
#858 = FACE_OUTER_BOUND ( 'NONE', #400, .T. ) ;
#859 = ADVANCED_FACE ( 'NONE', ( #264 ), #1156, .T. ) ;
#860 = LINE ( 'NONE', #1011, #813 ) ;
#861 = SURFACE_STYLE_FILL_AREA ( #945 ) ;
#862 = ORIENTED_EDGE ( 'NONE', *, *, #817, .F. ) ;
#863 = AXIS2_PLACEMENT_3D ( 'NONE', #111, #1207, #892 ) ;
#864 = CARTESIAN_POINT ( 'NONE',  ( 3.700000000000000178, 2.000000000000000000, 8.300000000000000711 ) ) ;
#865 = LINE ( 'NONE', #367, #688 ) ;
#866 = ADVANCED_FACE ( 'NONE', ( #580 ), #1150, .T. ) ;
#867 = LINE ( 'NONE', #1088, #737 ) ;
#868 = EDGE_CURVE ( 'NONE', #1167, #433, #935, .T. ) ;
#869 = EDGE_LOOP ( 'NONE', ( #529, #75, #475, #1200 ) ) ;
#870 = CARTESIAN_POINT ( 'NONE',  ( -1.750000000000000000, 1.750000000000000000, 0.5000000000000000000 ) ) ;
#871 = VECTOR ( 'NONE', #498, 1000.000000000000000 ) ;
#872 = CARTESIAN_POINT ( 'NONE',  ( -3.700000000000000178, -2.000000000000000000, 0.5000000000000000000 ) ) ;
#873 = EDGE_LOOP ( 'NONE', ( #1073, #962 ) ) ;
#874 = LINE ( 'NONE', #713, #776 ) ;
#875 = ORIENTED_EDGE ( 'NONE', *, *, #775, .F. ) ;
#876 = ADVANCED_FACE ( 'NONE', ( #842 ), #852, .T. ) ;
#877 = DIRECTION ( 'NONE',  ( 1.000000000000000000, 0.000000000000000000, 0.000000000000000000 ) ) ;
#878 = CARTESIAN_POINT ( 'NONE',  ( 3.449999999999999734, 1.199999999999999956, 2.500000000000000000 ) ) ;
#879 = VERTEX_POINT ( 'NONE', #673 ) ;
#880 = DIRECTION ( 'NONE',  ( 0.000000000000000000, 0.000000000000000000, 1.000000000000000000 ) ) ;
#881 = ORIENTED_EDGE ( 'NONE', *, *, #427, .F. ) ;
#882 = DIRECTION ( 'NONE',  ( 1.000000000000000000, 0.000000000000000000, 0.000000000000000000 ) ) ;
#883 = VECTOR ( 'NONE', #291, 1000.000000000000000 ) ;
#884 =( GEOMETRIC_REPRESENTATION_CONTEXT ( 3 ) GLOBAL_UNCERTAINTY_ASSIGNED_CONTEXT ( ( #711 ) ) GLOBAL_UNIT_ASSIGNED_CONTEXT ( ( #381, #357, #253 ) ) REPRESENTATION_CONTEXT ( 'NONE', 'WORKASPACE' ) );
#885 = LINE ( 'NONE', #193, #1181 ) ;
#886 = PRODUCT_DEFINITION_SHAPE ( 'NONE', 'NONE',  #1269 ) ;
#887 = LINE ( 'NONE', #1188, #398 ) ;
#888 = VECTOR ( 'NONE', #1098, 1000.000000000000000 ) ;
#889 = CARTESIAN_POINT ( 'NONE',  ( 3.700000000000000178, -2.000000000000000000, 0.5000000000000000000 ) ) ;
#890 = VECTOR ( 'NONE', #141, 1000.000000000000000 ) ;
#891 = EDGE_CURVE ( 'NONE', #893, #1048, #174, .T. ) ;
#892 = DIRECTION ( 'NONE',  ( 1.000000000000000000, 0.000000000000000000, 0.000000000000000000 ) ) ;
#893 = VERTEX_POINT ( 'NONE', #1164 ) ;
#894 = CARTESIAN_POINT ( 'NONE',  ( -3.700000000000000178, -1.199999999999999956, 2.500000000000000000 ) ) ;
#895 = CARTESIAN_POINT ( 'NONE',  ( -1.750000000000000000, -1.750000000000000000, 0.5000000000000000000 ) ) ;
#896 = VERTEX_POINT ( 'NONE', #953 ) ;
#897 = EDGE_CURVE ( 'NONE', #1, #917, #1250, .T. ) ;
#898 = DIRECTION ( 'NONE',  ( 1.000000000000000000, 0.000000000000000000, 0.000000000000000000 ) ) ;
#899 = ORIENTED_EDGE ( 'NONE', *, *, #311, .T. ) ;
#900 = DIRECTION ( 'NONE',  ( 0.000000000000000000, 0.000000000000000000, 1.000000000000000000 ) ) ;
#901 = FACE_OUTER_BOUND ( 'NONE', #1086, .T. ) ;
#902 = MECHANICAL_DESIGN_GEOMETRIC_PRESENTATION_REPRESENTATION (  '', ( #754 ), #130 ) ;
#903 = VERTEX_POINT ( 'NONE', #857 ) ;
#904 =( LENGTH_UNIT ( ) NAMED_UNIT ( * ) SI_UNIT ( .MILLI., .METRE. ) );
#905 = ORIENTED_EDGE ( 'NONE', *, *, #283, .F. ) ;
#906 = CARTESIAN_POINT ( 'NONE',  ( 3.649999999999999911, -1.199999999999999956, 1.500000000000000000 ) ) ;
#907 = EDGE_CURVE ( 'NONE', #988, #37, #360, .T. ) ;
#908 = ORIENTED_EDGE ( 'NONE', *, *, #540, .T. ) ;
#909 = LINE ( 'NONE', #1205, #1161 ) ;
#910 = VECTOR ( 'NONE', #374, 1000.000000000000000 ) ;
#911 = DIRECTION ( 'NONE',  ( 0.000000000000000000, 0.000000000000000000, 1.000000000000000000 ) ) ;
#912 = EDGE_LOOP ( 'NONE', ( #1025, #107, #990, #336 ) ) ;
#913 = LINE ( 'NONE', #43, #483 ) ;
#914 = EDGE_CURVE ( 'NONE', #1033, #1254, #984, .T. ) ;
#915 = DIRECTION ( 'NONE',  ( -1.000000000000000000, 0.000000000000000000, 0.000000000000000000 ) ) ;
#916 = LINE ( 'NONE', #227, #211 ) ;
#917 = VERTEX_POINT ( 'NONE', #585 ) ;
#918 = ORIENTED_EDGE ( 'NONE', *, *, #54, .F. ) ;
#919 = ORIENTED_EDGE ( 'NONE', *, *, #450, .F. ) ;
#920 = DIRECTION ( 'NONE',  ( 0.000000000000000000, 0.000000000000000000, 1.000000000000000000 ) ) ;
#921 = DIRECTION ( 'NONE',  ( -1.000000000000000000, 0.000000000000000000, 0.000000000000000000 ) ) ;
#922 = AXIS2_PLACEMENT_3D ( 'NONE', #180, #566, #768 ) ;
#923 = CARTESIAN_POINT ( 'NONE',  ( -3.649999999999999911, 1.199999999999999956, 1.500000000000000000 ) ) ;
#924 = LINE ( 'NONE', #816, #167 ) ;
#925 = EDGE_LOOP ( 'NONE', ( #33, #207, #533, #635 ) ) ;
#926 = CARTESIAN_POINT ( 'NONE',  ( -2.532563283960918010, 0.000000000000000000, 1.500000000000000000 ) ) ;
#927 = FACE_OUTER_BOUND ( 'NONE', #1221, .T. ) ;
#928 = AXIS2_PLACEMENT_3D ( 'NONE', #1147, #375, #939 ) ;
#929 = EDGE_CURVE ( 'NONE', #1033, #191, #1074, .T. ) ;
#930 = AXIS2_PLACEMENT_3D ( 'NONE', #926, #58, #421 ) ;
#931 = PRODUCT_CONTEXT ( 'NONE', #40, 'mechanical' ) ;
#932 = DIRECTION ( 'NONE',  ( 1.000000000000000000, 0.000000000000000000, 0.000000000000000000 ) ) ;
#933 = PRESENTATION_STYLE_ASSIGNMENT (( #847 ) ) ;
#934 = ORIENTED_EDGE ( 'NONE', *, *, #195, .F. ) ;
#935 = LINE ( 'NONE', #656, #1065 ) ;
#936 = PLANE ( 'NONE',  #36 ) ;
#937 = EDGE_CURVE ( 'NONE', #519, #1087, #25, .T. ) ;
#938 = APPLICATION_PROTOCOL_DEFINITION ( 'draft international standard', 'automotive_design', 1998, #262 ) ;
#939 = DIRECTION ( 'NONE',  ( 0.000000000000000000, -1.000000000000000000, 0.000000000000000000 ) ) ;
#940 = ORIENTED_EDGE ( 'NONE', *, *, #1076, .F. ) ;
#941 = DIRECTION ( 'NONE',  ( 0.000000000000000000, 0.000000000000000000, 1.000000000000000000 ) ) ;
#942 = VECTOR ( 'NONE', #590, 1000.000000000000000 ) ;
#943 = SHAPE_DEFINITION_REPRESENTATION ( #669, #1114 ) ;
#944 = CARTESIAN_POINT ( 'NONE',  ( 1.750000000000000000, 1.750000000000000000, 0.5000000000000000000 ) ) ;
#945 = FILL_AREA_STYLE ('',( #1148 ) ) ;
#946 = EDGE_LOOP ( 'NONE', ( #632, #1031, #875, #1007 ) ) ;
#947 = ADVANCED_FACE ( 'NONE', ( #98 ), #497, .T. ) ;
#948 = DIRECTION ( 'NONE',  ( 1.000000000000000000, 0.000000000000000000, 0.000000000000000000 ) ) ;
#949 = CARTESIAN_POINT ( 'NONE',  ( -1.750000000000000000, 1.750000000000000000, 0.5000000000000000000 ) ) ;
#950 = FACE_OUTER_BOUND ( 'NONE', #825, .T. ) ;
#951 = AXIS2_PLACEMENT_3D ( 'NONE', #44, #383, #849 ) ;
#952 = EDGE_LOOP ( 'NONE', ( #777, #399, #733, #974 ) ) ;
#953 = CARTESIAN_POINT ( 'NONE',  ( 3.399999999999999911, 1.199999999999999956, 2.500000000000000000 ) ) ;
#954 = DIRECTION ( 'NONE',  ( 0.000000000000000000, 0.000000000000000000, -1.000000000000000000 ) ) ;
#955 = DIRECTION ( 'NONE',  ( 0.000000000000000000, -1.000000000000000000, 0.000000000000000000 ) ) ;
#956 = FACE_OUTER_BOUND ( 'NONE', #1055, .T. ) ;
#957 = ORIENTED_EDGE ( 'NONE', *, *, #929, .T. ) ;
#958 = CARTESIAN_POINT ( 'NONE',  ( -3.700000000000000178, -1.199999999999999956, 1.500000000000000000 ) ) ;
#959 = CARTESIAN_POINT ( 'NONE',  ( 3.449999999999999734, -1.199999999999999956, 2.500000000000000000 ) ) ;
#960 = CARTESIAN_POINT ( 'NONE',  ( 3.700000000000000178, -1.199999999999999956, 2.500000000000000000 ) ) ;
#961 = VECTOR ( 'NONE', #707, 1000.000000000000000 ) ;
#962 = ORIENTED_EDGE ( 'NONE', *, *, #1092, .F. ) ;
#963 = COLOUR_RGB ( '',0.7921568627450980005, 0.8196078431372548767, 0.9333333333333333481 ) ;
#964 = DIRECTION ( 'NONE',  ( 0.000000000000000000, 0.000000000000000000, 1.000000000000000000 ) ) ;
#965 = CARTESIAN_POINT ( 'NONE',  ( -3.700000000000000178, 1.199999999999999956, 1.500000000000000000 ) ) ;
#966 = PRODUCT_DEFINITION_FORMATION_WITH_SPECIFIED_SOURCE ( 'ANY', '', #1063, .NOT_KNOWN. ) ;
#967 = ADVANCED_FACE ( 'NONE', ( #1183 ), #595, .F. ) ;
#968 = AXIS2_PLACEMENT_3D ( 'NONE', #1024, #153, #932 ) ;
#969 = VERTEX_POINT ( 'NONE', #870 ) ;
#970 = DIRECTION ( 'NONE',  ( -1.000000000000000000, 0.000000000000000000, 0.000000000000000000 ) ) ;
#971 = PRODUCT ( 'Part7^Fuse 508 v1', 'Part7^Fuse 508 v1', '', ( #1146 ) ) ;
#972 = FACE_OUTER_BOUND ( 'NONE', #722, .T. ) ;
#973 = CARTESIAN_POINT ( 'NONE',  ( 3.449999999999999734, 1.199999999999999956, 2.500000000000000000 ) ) ;
#974 = ORIENTED_EDGE ( 'NONE', *, *, #1097, .T. ) ;
#975 = CARTESIAN_POINT ( 'NONE',  ( -3.649999999999999911, 1.199999999999999956, 1.500000000000000000 ) ) ;
#976 = LINE ( 'NONE', #105, #871 ) ;
#977 = VERTEX_POINT ( 'NONE', #20 ) ;
#978 = DIRECTION ( 'NONE',  ( -1.000000000000000000, 0.000000000000000000, 0.000000000000000000 ) ) ;
#979 = VECTOR ( 'NONE', #512, 1000.000000000000000 ) ;
#980 = EDGE_CURVE ( 'NONE', #1179, #977, #507, .T. ) ;
#981 = DIRECTION ( 'NONE',  ( 1.000000000000000000, 0.000000000000000000, 0.000000000000000000 ) ) ;
#982 =( NAMED_UNIT ( * ) PLANE_ANGLE_UNIT ( ) SI_UNIT ( $, .RADIAN. ) );
#983 = ORIENTED_EDGE ( 'NONE', *, *, #139, .F. ) ;
#984 = LINE ( 'NONE', #797, #459 ) ;
#985 = CIRCLE ( 'NONE', #968, 0.3613275067080698455 ) ;
#986 = LINE ( 'NONE', #115, #690 ) ;
#987 = EDGE_CURVE ( 'NONE', #801, #1179, #783, .T. ) ;
#988 = VERTEX_POINT ( 'NONE', #319 ) ;
#989 =( NAMED_UNIT ( * ) SI_UNIT ( $, .STERADIAN. ) SOLID_ANGLE_UNIT ( ) );
#990 = ORIENTED_EDGE ( 'NONE', *, *, #987, .F. ) ;
#991 = FACE_OUTER_BOUND ( 'NONE', #616, .T. ) ;
#992 = VERTEX_POINT ( 'NONE', #1168 ) ;
#993 = DIRECTION ( 'NONE',  ( 1.000000000000000000, 0.000000000000000000, 0.000000000000000000 ) ) ;
#994 = UNCERTAINTY_MEASURE_WITH_UNIT (LENGTH_MEASURE( 1.000000000000000082E-05 ), #363, 'distance_accuracy_value', 'NONE');
#995 = LINE ( 'NONE', #387, #78 ) ;
#996 = EDGE_LOOP ( 'NONE', ( #716, #241, #735, #136 ) ) ;
#997 = EDGE_CURVE ( 'NONE', #903, #165, #887, .T. ) ;
#998 = VERTEX_POINT ( 'NONE', #700 ) ;
#999 = LINE ( 'NONE', #137, #771 ) ;
#1000 = DIRECTION ( 'NONE',  ( 0.000000000000000000, 0.000000000000000000, -1.000000000000000000 ) ) ;
#1001 = CARTESIAN_POINT ( 'NONE',  ( -3.649999999999999911, 1.199999999999999956, 1.500000000000000000 ) ) ;
#1002 = ORIENTED_EDGE ( 'NONE', *, *, #226, .T. ) ;
#1003 = EDGE_CURVE ( 'NONE', #496, #155, #1083, .T. ) ;
#1004 =( NAMED_UNIT ( * ) PLANE_ANGLE_UNIT ( ) SI_UNIT ( $, .RADIAN. ) );
#1005 = ORIENTED_EDGE ( 'NONE', *, *, #1266, .T. ) ;
#1006 = DIRECTION ( 'NONE',  ( -1.000000000000000000, 0.000000000000000000, 0.000000000000000000 ) ) ;
#1007 = ORIENTED_EDGE ( 'NONE', *, *, #1126, .F. ) ;
#1008 = DIRECTION ( 'NONE',  ( 0.000000000000000000, 1.000000000000000000, 0.000000000000000000 ) ) ;
#1009 = AXIS2_PLACEMENT_3D ( 'NONE', #356, #664, #1140 ) ;
#1010 = AXIS2_PLACEMENT_3D ( 'NONE', #199, #900, #981 ) ;
#1011 = CARTESIAN_POINT ( 'NONE',  ( 3.700000000000000178, 1.199999999999999956, 2.500000000000000000 ) ) ;
#1012 = ADVANCED_BREP_SHAPE_REPRESENTATION ( '', ( #1226, #1202, #1131 ), #1157 ) ;
#1013 = EDGE_LOOP ( 'NONE', ( #249, #1107, #224, #42 ) ) ;
#1014 = CARTESIAN_POINT ( 'NONE',  ( -3.700000000000000178, -1.199999999999999956, 2.500000000000000000 ) ) ;
#1015 = PRESENTATION_STYLE_ASSIGNMENT (( #629 ) ) ;
#1016 = ORIENTED_EDGE ( 'NONE', *, *, #891, .F. ) ;
#1017 = DIRECTION ( 'NONE',  ( 0.000000000000000000, 0.000000000000000000, 1.000000000000000000 ) ) ;
#1018 = CYLINDRICAL_SURFACE ( 'NONE', #492, 0.3613275067080698455 ) ;
#1019 = EDGE_CURVE ( 'NONE', #538, #748, #192, .T. ) ;
#1020 = CARTESIAN_POINT ( 'NONE',  ( -3.700000000000000178, 1.199999999999999956, 1.500000000000000000 ) ) ;
#1021 = CIRCLE ( 'NONE', #188, 0.3613275067080698455 ) ;
#1022 = VECTOR ( 'NONE', #698, 1000.000000000000000 ) ;
#1023 = CARTESIAN_POINT ( 'NONE',  ( 0.000000000000000000, 0.000000000000000000, 0.5000000000000000000 ) ) ;
#1024 = CARTESIAN_POINT ( 'NONE',  ( 2.532563283960918010, 0.000000000000000000, 1.500000000000000000 ) ) ;
#1025 = ORIENTED_EDGE ( 'NONE', *, *, #443, .F. ) ;
#1026 = FACE_OUTER_BOUND ( 'NONE', #382, .T. ) ;
#1027 = FACE_OUTER_BOUND ( 'NONE', #912, .T. ) ;
#1028 = EDGE_CURVE ( 'NONE', #1185, #1087, #488, .T. ) ;
#1029 = AXIS2_PLACEMENT_3D ( 'NONE', #489, #271, #286 ) ;
#1030 = APPLICATION_PROTOCOL_DEFINITION ( 'draft international standard', 'automotive_design', 1998, #235 ) ;
#1031 = ORIENTED_EDGE ( 'NONE', *, *, #1260, .T. ) ;
#1032 = SURFACE_STYLE_USAGE ( .BOTH. , #452 ) ;
#1033 = VERTEX_POINT ( 'NONE', #295 ) ;
#1034 = CARTESIAN_POINT ( 'NONE',  ( -3.649999999999999911, -1.199999999999999956, 1.500000000000000000 ) ) ;
#1035 = ADVANCED_FACE ( 'NONE', ( #13 ), #687, .T. ) ;
#1036 = ITEM_DEFINED_TRANSFORMATION ( 'NONE', 'NONE', #681,  #1131 ) ;
#1037 = DIRECTION ( 'NONE',  ( 0.000000000000000000, 0.000000000000000000, 1.000000000000000000 ) ) ;
#1038 = FILL_AREA_STYLE ('',( #1253 ) ) ;
#1039 = ORIENTED_EDGE ( 'NONE', *, *, #443, .T. ) ;
#1040 = CARTESIAN_POINT ( 'NONE',  ( 3.649999999999999911, 0.000000000000000000, 2.000000000000000000 ) ) ;
#1041 = FACE_OUTER_BOUND ( 'NONE', #315, .T. ) ;
#1042 = VECTOR ( 'NONE', #223, 1000.000000000000000 ) ;
#1043 = PRESENTATION_LAYER_ASSIGNMENT (  '', '', ( #361 ) ) ;
#1044 = APPLICATION_PROTOCOL_DEFINITION ( 'draft international standard', 'automotive_design', 1998, #16 ) ;
#1045 = ORIENTED_EDGE ( 'NONE', *, *, #503, .F. ) ;
#1046 = SURFACE_STYLE_USAGE ( .BOTH. , #154 ) ;
#1047 = EDGE_CURVE ( 'NONE', #191, #988, #412, .T. ) ;
#1048 = VERTEX_POINT ( 'NONE', #679 ) ;
#1049 = FACE_OUTER_BOUND ( 'NONE', #1261, .T. ) ;
#1050 = DIRECTION ( 'NONE',  ( 1.000000000000000000, 0.000000000000000000, 0.000000000000000000 ) ) ;
#1051 = AXIS2_PLACEMENT_3D ( 'NONE', #1020, #911, #39 ) ;
#1052 = FACE_OUTER_BOUND ( 'NONE', #1112, .T. ) ;
#1053 = SURFACE_STYLE_FILL_AREA ( #1141 ) ;
#1054 = STYLED_ITEM ( 'NONE', ( #1015 ), #799 ) ;
#1055 = EDGE_LOOP ( 'NONE', ( #1142, #537, #238, #934 ) ) ;
#1056 = DIRECTION ( 'NONE',  ( 1.000000000000000000, 0.000000000000000000, 0.000000000000000000 ) ) ;
#1057 = PLANE ( 'NONE',  #1096 ) ;
#1058 = PLANE ( 'NONE',  #242 ) ;
#1059 = VERTEX_POINT ( 'NONE', #802 ) ;
#1060 = CARTESIAN_POINT ( 'NONE',  ( -2.172382071801252756, 4.410947685843481353E-17, 0.000000000000000000 ) ) ;
#1061 = DIRECTION ( 'NONE',  ( 0.000000000000000000, -1.000000000000000000, 0.000000000000000000 ) ) ;
#1062 = EDGE_CURVE ( 'NONE', #431, #1066, #1194, .T. ) ;
#1063 = PRODUCT ( 'Component1_4.step', 'Component1_4.step', '', ( #341 ) ) ;
#1064 = PLANE ( 'NONE',  #468 ) ;
#1065 = VECTOR ( 'NONE', #166, 1000.000000000000000 ) ;
#1066 = VERTEX_POINT ( 'NONE', #8 ) ;
#1067 = CARTESIAN_POINT ( 'NONE',  ( 1.750000000000000000, -1.750000000000000000, 0.000000000000000000 ) ) ;
#1068 = CARTESIAN_POINT ( 'NONE',  ( -1.750000000000000000, -1.750000000000000000, 0.5000000000000000000 ) ) ;
#1069 = AXIS2_PLACEMENT_3D ( 'NONE', #465, #631, #555 ) ;
#1070 = DIRECTION ( 'NONE',  ( 0.000000000000000000, 1.000000000000000000, 0.000000000000000000 ) ) ;
#1071 = CLOSED_SHELL ( 'NONE', ( #239, #876, #1035, #674, #34, #684 ) ) ;
#1072 = VECTOR ( 'NONE', #92, 1000.000000000000000 ) ;
#1073 = ORIENTED_EDGE ( 'NONE', *, *, #1243, .F. ) ;
#1074 = LINE ( 'NONE', #1078, #1084 ) ;
#1075 = CARTESIAN_POINT ( 'NONE',  ( -3.649999999999999911, 1.199999999999999956, 2.500000000000000000 ) ) ;
#1076 = EDGE_CURVE ( 'NONE', #917, #998, #396, .T. ) ;
#1077 = ORIENTED_EDGE ( 'NONE', *, *, #667, .F. ) ;
#1078 = CARTESIAN_POINT ( 'NONE',  ( 3.700000000000000178, -1.199999999999999956, 1.000000000000000000 ) ) ;
#1079 = APPLICATION_CONTEXT ( 'automotive_design' ) ;
#1080 = FACE_OUTER_BOUND ( 'NONE', #1013, .T. ) ;
#1081 = EDGE_LOOP ( 'NONE', ( #388, #1208, #641, #755 ) ) ;
#1082 = EDGE_CURVE ( 'NONE', #1048, #896, #108, .T. ) ;
#1083 = LINE ( 'NONE', #208, #1109 ) ;
#1084 = VECTOR ( 'NONE', #104, 1000.000000000000000 ) ;
#1085 = DIRECTION ( 'NONE',  ( 0.000000000000000000, 1.000000000000000000, 0.000000000000000000 ) ) ;
#1086 = EDGE_LOOP ( 'NONE', ( #430, #246, #610, #881 ) ) ;
#1087 = VERTEX_POINT ( 'NONE', #725 ) ;
#1088 = CARTESIAN_POINT ( 'NONE',  ( -3.649999999999999911, -1.199999999999999956, 1.500000000000000000 ) ) ;
#1089 = CARTESIAN_POINT ( 'NONE',  ( -2.172382071801252756, 4.410947685843481353E-17, 1.500000000000000000 ) ) ;
#1090 = ORIENTED_EDGE ( 'NONE', *, *, #769, .F. ) ;
#1091 = DIRECTION ( 'NONE',  ( 0.000000000000000000, 0.000000000000000000, -1.000000000000000000 ) ) ;
#1092 = EDGE_CURVE ( 'NONE', #848, #992, #437, .T. ) ;
#1093 = CLOSED_SHELL ( 'NONE', ( #68, #1235, #461, #9, #582, #15, #517, #524, #368, #827, #292, #328, #859, #819, #866, #335 ) ) ;
#1094 = VERTEX_POINT ( 'NONE', #325 ) ;
#1095 = LINE ( 'NONE', #216, #140 ) ;
#1096 = AXIS2_PLACEMENT_3D ( 'NONE', #657, #182, #1050 ) ;
#1097 = EDGE_CURVE ( 'NONE', #977, #856, #747, .T. ) ;
#1098 = DIRECTION ( 'NONE',  ( 0.000000000000000000, 1.000000000000000000, 0.000000000000000000 ) ) ;
#1099 = ORIENTED_EDGE ( 'NONE', *, *, #247, .F. ) ;
#1100 = LINE ( 'NONE', #1121, #1218 ) ;
#1101 = ORIENTED_EDGE ( 'NONE', *, *, #800, .T. ) ;
#1102 = DIRECTION ( 'NONE',  ( 0.000000000000000000, 1.000000000000000000, 0.000000000000000000 ) ) ;
#1103 = UNCERTAINTY_MEASURE_WITH_UNIT (LENGTH_MEASURE( 1.000000000000000082E-05 ), #410, 'distance_accuracy_value', 'NONE');
#1104 = FACE_OUTER_BOUND ( 'NONE', #558, .T. ) ;
#1105 = EDGE_CURVE ( 'NONE', #395, #969, #924, .T. ) ;
#1106 = CARTESIAN_POINT ( 'NONE',  ( 3.449999999999999734, -1.199999999999999956, 1.500000000000000000 ) ) ;
#1107 = ORIENTED_EDGE ( 'NONE', *, *, #562, .T. ) ;
#1108 = CARTESIAN_POINT ( 'NONE',  ( 3.649999999999999911, 1.199999999999999956, 2.500000000000000000 ) ) ;
#1109 = VECTOR ( 'NONE', #602, 1000.000000000000000 ) ;
#1110 = PLANE ( 'NONE',  #779 ) ;
#1111 = ORIENTED_EDGE ( 'NONE', *, *, #173, .F. ) ;
#1112 = EDGE_LOOP ( 'NONE', ( #1016, #324, #709, #522 ) ) ;
#1113 = LINE ( 'NONE', #432, #638 ) ;
#1114 = SHAPE_REPRESENTATION ( 'Fuse 508 v1.step', ( #1238, #681 ), #1199 ) ;
#1115 = DIRECTION ( 'NONE',  ( 1.000000000000000000, 0.000000000000000000, 0.000000000000000000 ) ) ;
#1116 = VECTOR ( 'NONE', #846, 1000.000000000000000 ) ;
#1117 = VECTOR ( 'NONE', #309, 1000.000000000000000 ) ;
#1118 = CARTESIAN_POINT ( 'NONE',  ( 3.399999999999999911, -1.199999999999999956, 2.500000000000000000 ) ) ;
#1119 = DIRECTION ( 'NONE',  ( 0.000000000000000000, 0.000000000000000000, 1.000000000000000000 ) ) ;
#1120 = ORIENTED_EDGE ( 'NONE', *, *, #258, .T. ) ;
#1121 = CARTESIAN_POINT ( 'NONE',  ( 2.171235777252848109, 0.000000000000000000, 1.500000000000000000 ) ) ;
#1122 = ADVANCED_FACE ( 'NONE', ( #991 ), #350, .T. ) ;
#1123 = CARTESIAN_POINT ( 'NONE',  ( 3.649999999999999911, -1.199999999999999956, 2.500000000000000000 ) ) ;
#1124 = CARTESIAN_POINT ( 'NONE',  ( 2.893890790668987911, 4.424985745339311678E-17, 1.500000000000000000 ) ) ;
#1125 = DIRECTION ( 'NONE',  ( 0.000000000000000000, 1.000000000000000000, 0.000000000000000000 ) ) ;
#1126 = EDGE_CURVE ( 'NONE', #893, #438, #999, .T. ) ;
#1127 = ORIENTED_EDGE ( 'NONE', *, *, #82, .T. ) ;
#1128 = FACE_OUTER_BOUND ( 'NONE', #873, .T. ) ;
#1129 = FACE_OUTER_BOUND ( 'NONE', #338, .T. ) ;
#1130 = VECTOR ( 'NONE', #35, 1000.000000000000000 ) ;
#1131 = AXIS2_PLACEMENT_3D ( 'NONE', #29, #532, #732 ) ;
#1132 = SHAPE_DEFINITION_REPRESENTATION ( #1256, #563 ) ;
#1133 = DIRECTION ( 'NONE',  ( 0.000000000000000000, 0.000000000000000000, 1.000000000000000000 ) ) ;
#1134 =( NAMED_UNIT ( * ) PLANE_ANGLE_UNIT ( ) SI_UNIT ( $, .RADIAN. ) );
#1135 = ORIENTED_EDGE ( 'NONE', *, *, #997, .F. ) ;
#1136 = CARTESIAN_POINT ( 'NONE',  ( -3.700000000000000178, 1.199999999999999956, 2.500000000000000000 ) ) ;
#1137 = SURFACE_STYLE_FILL_AREA ( #663 ) ;
#1138 = EDGE_CURVE ( 'NONE', #1094, #1185, #810, .T. ) ;
#1139 = AXIS2_PLACEMENT_3D ( 'NONE', #414, #88, #1166 ) ;
#1140 = DIRECTION ( 'NONE',  ( 0.000000000000000000, 0.000000000000000000, 1.000000000000000000 ) ) ;
#1141 = FILL_AREA_STYLE ('',( #660 ) ) ;
#1142 = ORIENTED_EDGE ( 'NONE', *, *, #274, .F. ) ;
#1143 = DIRECTION ( 'NONE',  ( 0.000000000000000000, -1.000000000000000000, 0.000000000000000000 ) ) ;
#1144 = PLANE ( 'NONE',  #1029 ) ;
#1145 = ADVANCED_FACE ( 'NONE', ( #615 ), #741, .F. ) ;
#1146 = PRODUCT_CONTEXT ( 'NONE', #1079, 'mechanical' ) ;
#1147 = CARTESIAN_POINT ( 'NONE',  ( -3.649999999999999911, -1.199999999999999956, 2.500000000000000000 ) ) ;
#1148 = FILL_AREA_STYLE_COLOUR ( '', #1259 ) ;
#1149 = ORIENTED_EDGE ( 'NONE', *, *, #283, .T. ) ;
#1150 = PLANE ( 'NONE',  #359 ) ;
#1151 = DIRECTION ( 'NONE',  ( -0.000000000000000000, -0.000000000000000000, -1.000000000000000000 ) ) ;
#1152 = VECTOR ( 'NONE', #301, 1000.000000000000000 ) ;
#1153 = DIRECTION ( 'NONE',  ( 1.000000000000000000, 0.000000000000000000, 0.000000000000000000 ) ) ;
#1154 =( NAMED_UNIT ( * ) SI_UNIT ( $, .STERADIAN. ) SOLID_ANGLE_UNIT ( ) );
#1155 = ORIENTED_EDGE ( 'NONE', *, *, #554, .T. ) ;
#1156 = PLANE ( 'NONE',  #255 ) ;
#1157 =( GEOMETRIC_REPRESENTATION_CONTEXT ( 3 ) GLOBAL_UNCERTAINTY_ASSIGNED_CONTEXT ( ( #273 ) ) GLOBAL_UNIT_ASSIGNED_CONTEXT ( ( #206, #982, #369 ) ) REPRESENTATION_CONTEXT ( 'NONE', 'WORKASPACE' ) );
#1158 =( NAMED_UNIT ( * ) SI_UNIT ( $, .STERADIAN. ) SOLID_ANGLE_UNIT ( ) );
#1159 = CLOSED_SHELL ( 'NONE', ( #103, #160, #1122, #947, #181, #1204 ) ) ;
#1160 = DIRECTION ( 'NONE',  ( 0.000000000000000000, -1.000000000000000000, 0.000000000000000000 ) ) ;
#1161 = VECTOR ( 'NONE', #1115, 1000.000000000000000 ) ;
#1162 = ORIENTED_EDGE ( 'NONE', *, *, #1222, .T. ) ;
#1163 = EDGE_CURVE ( 'NONE', #433, #1094, #913, .T. ) ;
#1164 = CARTESIAN_POINT ( 'NONE',  ( 3.649999999999999911, 1.199999999999999956, 1.500000000000000000 ) ) ;
#1165 =( NAMED_UNIT ( * ) PLANE_ANGLE_UNIT ( ) SI_UNIT ( $, .RADIAN. ) );
#1166 = DIRECTION ( 'NONE',  ( 1.000000000000000000, 0.000000000000000000, 0.000000000000000000 ) ) ;
#1167 = VERTEX_POINT ( 'NONE', #439 ) ;
#1168 = CARTESIAN_POINT ( 'NONE',  ( -2.892744496120582820, 0.000000000000000000, 0.000000000000000000 ) ) ;
#1169 = EDGE_CURVE ( 'NONE', #1048, #655, #1113, .T. ) ;
#1170 = DIRECTION ( 'NONE',  ( 0.000000000000000000, 0.000000000000000000, 1.000000000000000000 ) ) ;
#1171 = VECTOR ( 'NONE', #114, 1000.000000000000000 ) ;
#1172 = LINE ( 'NONE', #299, #176 ) ;
#1173 = EDGE_LOOP ( 'NONE', ( #364, #957, #436, #318 ) ) ;
#1174 = CARTESIAN_POINT ( 'NONE',  ( -3.449999999999999734, -1.199999999999999956, 2.500000000000000000 ) ) ;
#1175 =( REPRESENTATION_RELATIONSHIP ('NONE','NONE', #563, #822 ) REPRESENTATION_RELATIONSHIP_WITH_TRANSFORMATION ( #79 )SHAPE_REPRESENTATION_RELATIONSHIP( ) );
#1176 = PLANE ( 'NONE',  #18 ) ;
#1177 =( GEOMETRIC_REPRESENTATION_CONTEXT ( 3 ) GLOBAL_UNCERTAINTY_ASSIGNED_CONTEXT ( ( #4 ) ) GLOBAL_UNIT_ASSIGNED_CONTEXT ( ( #1223, #161, #751 ) ) REPRESENTATION_CONTEXT ( 'NONE', 'WORKASPACE' ) );
#1178 = EDGE_CURVE ( 'NONE', #269, #686, #1100, .T. ) ;
#1179 = VERTEX_POINT ( 'NONE', #129 ) ;
#1180 = AXIS2_PLACEMENT_3D ( 'NONE', #281, #1133, #854 ) ;
#1181 = VECTOR ( 'NONE', #109, 1000.000000000000000 ) ;
#1182 = ORIENTED_EDGE ( 'NONE', *, *, #509, .T. ) ;
#1183 = FACE_OUTER_BOUND ( 'NONE', #481, .T. ) ;
#1184 = CARTESIAN_POINT ( 'NONE',  ( -3.449999999999999734, -1.199999999999999956, 1.500000000000000000 ) ) ;
#1185 = VERTEX_POINT ( 'NONE', #1014 ) ;
#1186 = EDGE_CURVE ( 'NONE', #879, #893, #57, .T. ) ;
#1187 = ORIENTED_EDGE ( 'NONE', *, *, #897, .T. ) ;
#1188 = CARTESIAN_POINT ( 'NONE',  ( -3.649999999999999911, -1.199999999999999956, 2.500000000000000000 ) ) ;
#1189 = PLANE ( 'NONE',  #1010 ) ;
#1190 = EDGE_LOOP ( 'NONE', ( #832, #666, #228, #405 ) ) ;
#1191 = ORIENTED_EDGE ( 'NONE', *, *, #634, .F. ) ;
#1192 = LINE ( 'NONE', #127, #979 ) ;
#1193 = ORIENTED_EDGE ( 'NONE', *, *, #598, .F. ) ;
#1194 = LINE ( 'NONE', #1067, #415 ) ;
#1195 = MANIFOLD_SOLID_BREP ( 'Fuse 508 v1.step<1>[6]', #531 ) ;
#1196 = DIRECTION ( 'NONE',  ( 0.000000000000000000, 0.000000000000000000, 1.000000000000000000 ) ) ;
#1197 = UNCERTAINTY_MEASURE_WITH_UNIT (LENGTH_MEASURE( 1.000000000000000082E-05 ), #426, 'distance_accuracy_value', 'NONE');
#1198 = DIRECTION ( 'NONE',  ( -0.000000000000000000, -0.000000000000000000, -1.000000000000000000 ) ) ;
#1199 =( GEOMETRIC_REPRESENTATION_CONTEXT ( 3 ) GLOBAL_UNCERTAINTY_ASSIGNED_CONTEXT ( ( #676 ) ) GLOBAL_UNIT_ASSIGNED_CONTEXT ( ( #904, #1004, #723 ) ) REPRESENTATION_CONTEXT ( 'NONE', 'WORKASPACE' ) );
#1200 = ORIENTED_EDGE ( 'NONE', *, *, #628, .T. ) ;
#1201 =( NAMED_UNIT ( * ) PLANE_ANGLE_UNIT ( ) SI_UNIT ( $, .RADIAN. ) );
#1202 = MANIFOLD_SOLID_BREP ( 'Boss-Extrude1[2]', #138 ) ;
#1203 = VECTOR ( 'NONE', #486, 1000.000000000000000 ) ;
#1204 = ADVANCED_FACE ( 'NONE', ( #956 ), #1216, .T. ) ;
#1205 = CARTESIAN_POINT ( 'NONE',  ( -3.700000000000000178, 1.199999999999999956, 2.500000000000000000 ) ) ;
#1206 = LINE ( 'NONE', #721, #385 ) ;
#1207 = DIRECTION ( 'NONE',  ( 0.000000000000000000, 0.000000000000000000, 1.000000000000000000 ) ) ;
#1208 = ORIENTED_EDGE ( 'NONE', *, *, #739, .T. ) ;
#1209 = DIRECTION ( 'NONE',  ( 1.000000000000000000, 0.000000000000000000, 0.000000000000000000 ) ) ;
#1210 = ORIENTED_EDGE ( 'NONE', *, *, #1028, .T. ) ;
#1211 = CARTESIAN_POINT ( 'NONE',  ( 1.750000000000000000, 1.750000000000000000, 0.000000000000000000 ) ) ;
#1212 = PRODUCT_RELATED_PRODUCT_CATEGORY ( 'part', '', ( #491 ) ) ;
#1213 = ORIENTED_EDGE ( 'NONE', *, *, #809, .T. ) ;
#1214 = DIRECTION ( 'NONE',  ( -1.000000000000000000, 0.000000000000000000, 0.000000000000000000 ) ) ;
#1215 = VERTEX_POINT ( 'NONE', #760 ) ;
#1216 = PLANE ( 'NONE',  #316 ) ;
#1217 = ORIENTED_EDGE ( 'NONE', *, *, #403, .F. ) ;
#1218 = VECTOR ( 'NONE', #331, 1000.000000000000000 ) ;
#1219 = CARTESIAN_POINT ( 'NONE',  ( 3.649999999999999911, -1.199999999999999956, 2.500000000000000000 ) ) ;
#1220 = MANIFOLD_SOLID_BREP ( 'Fuse 508 v1.step<1>[1]', #1159 ) ;
#1221 = EDGE_LOOP ( 'NONE', ( #392, #862 ) ) ;
#1222 = EDGE_CURVE ( 'NONE', #155, #1254, #571, .T. ) ;
#1223 =( LENGTH_UNIT ( ) NAMED_UNIT ( * ) SI_UNIT ( .MILLI., .METRE. ) );
#1224 = EDGE_LOOP ( 'NONE', ( #691, #589, #342, #762 ) ) ;
#1225 =( NAMED_UNIT ( * ) SI_UNIT ( $, .STERADIAN. ) SOLID_ANGLE_UNIT ( ) );
#1226 = MANIFOLD_SOLID_BREP ( 'Boss-Extrude1[1]', #665 ) ;
#1227 = CIRCLE ( 'NONE', #447, 0.3613275067080698455 ) ;
#1228 = CARTESIAN_POINT ( 'NONE',  ( 2.532563283960918010, 0.000000000000000000, 0.000000000000000000 ) ) ;
#1229 = EDGE_CURVE ( 'NONE', #1059, #284, #1192, .T. ) ;
#1230 = DIRECTION ( 'NONE',  ( 0.000000000000000000, 0.000000000000000000, 1.000000000000000000 ) ) ;
#1231 = CARTESIAN_POINT ( 'NONE',  ( -3.700000000000000178, 2.000000000000000000, 8.300000000000000711 ) ) ;
#1232 = DIRECTION ( 'NONE',  ( 1.000000000000000000, 0.000000000000000000, -0.000000000000000000 ) ) ;
#1233 = PLANE ( 'NONE',  #1180 ) ;
#1234 = ORIENTED_EDGE ( 'NONE', *, *, #980, .F. ) ;
#1235 = ADVANCED_FACE ( 'NONE', ( #807 ), #48, .T. ) ;
#1236 = DIRECTION ( 'NONE',  ( 1.000000000000000000, 0.000000000000000000, 0.000000000000000000 ) ) ;
#1237 = AXIS2_PLACEMENT_3D ( 'NONE', #1040, #948, #470 ) ;
#1238 = AXIS2_PLACEMENT_3D ( 'NONE', #240, #135, #118 ) ;
#1239 = PRODUCT_CONTEXT ( 'NONE', #1244, 'mechanical' ) ;
#1240 = PLANE ( 'NONE',  #490 ) ;
#1241 = VERTEX_POINT ( 'NONE', #317 ) ;
#1242 = DIRECTION ( 'NONE',  ( 0.000000000000000000, 0.000000000000000000, 1.000000000000000000 ) ) ;
#1243 = EDGE_CURVE ( 'NONE', #992, #848, #640, .T. ) ;
#1244 = APPLICATION_CONTEXT ( 'automotive_design' ) ;
#1245 = SURFACE_STYLE_USAGE ( .BOTH. , #1264 ) ;
#1246 = VECTOR ( 'NONE', #422, 1000.000000000000000 ) ;
#1247 = MECHANICAL_DESIGN_GEOMETRIC_PRESENTATION_REPRESENTATION (  '', ( #1054 ), #243 ) ;
#1248 = DIRECTION ( 'NONE',  ( 1.000000000000000000, 0.000000000000000000, 0.000000000000000000 ) ) ;
#1249 = VERTEX_POINT ( 'NONE', #1089 ) ;
#1250 = LINE ( 'NONE', #476, #883 ) ;
#1251 = CYLINDRICAL_SURFACE ( 'NONE', #177, 0.3613275067080698455 ) ;
#1252 = LINE ( 'NONE', #770, #572 ) ;
#1253 = FILL_AREA_STYLE_COLOUR ( '', #806 ) ;
#1254 = VERTEX_POINT ( 'NONE', #1106 ) ;
#1255 = DIRECTION ( 'NONE',  ( 0.000000000000000000, 0.000000000000000000, 1.000000000000000000 ) ) ;
#1256 = PRODUCT_DEFINITION_SHAPE ( 'NONE', 'NONE',  #6 ) ;
#1257 = SHAPE_REPRESENTATION ( 'Component1_4.step', ( #1131 ), #416 ) ;
#1258 = AXIS2_PLACEMENT_3D ( 'NONE', #285, #85, #1143 ) ;
#1259 = COLOUR_RGB ( '',0.7921568627450980005, 0.8196078431372548767, 0.9333333333333333481 ) ;
#1260 = EDGE_CURVE ( 'NONE', #879, #1059, #212, .T. ) ;
#1261 = EDGE_LOOP ( 'NONE', ( #983, #453, #1162, #718 ) ) ;
#1262 = DIRECTION ( 'NONE',  ( 0.000000000000000000, -1.000000000000000000, 0.000000000000000000 ) ) ;
#1263 = PRODUCT_DEFINITION_FORMATION_WITH_SPECIFIED_SOURCE ( 'ANY', '', #971, .NOT_KNOWN. ) ;
#1264 = SURFACE_SIDE_STYLE ('',( #1137 ) ) ;
#1265 = COLOUR_RGB ( '',0.7921568627450980005, 0.8196078431372548767, 0.9333333333333333481 ) ;
#1266 = EDGE_CURVE ( 'NONE', #184, #411, #424, .T. ) ;
#1267 = NEXT_ASSEMBLY_USAGE_OCCURRENCE ( 'NAUO1', ' ', ' ', #6, #22, $ ) ;
#1268 = NEXT_ASSEMBLY_USAGE_OCCURRENCE ( 'NAUO2', ' ', ' ', #6, #592, $ ) ;
#1269 = NEXT_ASSEMBLY_USAGE_OCCURRENCE ( 'NAUO3', ' ', ' ', #22, #534, $ ) ;
ENDSEC;
END-ISO-10303-21;
